<?xml version="1.0" encoding="UTF-8" standalone="no"?>
<svg
   xmlns:dc="http://purl.org/dc/elements/1.1/"
   xmlns:cc="http://creativecommons.org/ns#"
   xmlns:rdf="http://www.w3.org/1999/02/22-rdf-syntax-ns#"
   xmlns:svg="http://www.w3.org/2000/svg"
   xmlns="http://www.w3.org/2000/svg"
   viewBox="0 0 133.6004 133.8716"
   height="133.8716"
   width="133.6004"
   xml:space="preserve"
   id="svg2"
   version="1.1"><metadata
     id="metadata8"><rdf:RDF><cc:Work
         rdf:about=""><dc:format>image/svg+xml</dc:format><dc:type
           rdf:resource="http://purl.org/dc/dcmitype/StillImage" /><dc:title></dc:title></cc:Work></rdf:RDF></metadata><defs
     id="defs6"><clipPath
       id="clipPath34"
       clipPathUnits="userSpaceOnUse"><path
         id="path32"
         d="M 0,595.275 H 841.89 V 0 H 0 Z" /></clipPath></defs><g
     transform="matrix(1.3333333,0,0,-1.3333333,-312.73159,461.12626)"
     id="g10"><g
       transform="translate(247.2891,339.3237)"
       id="g12"><path
         id="path14"
         style="fill:#08789e;fill-opacity:1;fill-rule:nonzero;stroke:none"
         d="m 0,0 14.646,6.521 6.377,-14.32 14.885,6.625 15.97,-35.868 -29.531,-13.147 z" /></g><g
       transform="translate(242.2417,294.498)"
       id="g16"><path
         id="path18"
         style="fill:#f25c19;fill-opacity:1;fill-rule:nonzero;stroke:none"
         d="m 0,0 35.868,15.968 13.148,-29.53 -50.188,-22.344 -6.521,14.644 14.321,6.377 z" /></g><g
       transform="translate(269.7134,289.001)"
       id="g20"><path
         id="path22"
         style="fill:#a21030;fill-opacity:1;fill-rule:nonzero;stroke:none"
         d="M 0,0 29.531,13.147 51.878,-37.039 37.232,-43.56 30.855,-29.24 15.969,-35.866 Z" /></g><g
       transform="translate(278.04,310.3164)"
       id="g24"><path
         id="path26"
         style="fill:#93b413;fill-opacity:1;fill-rule:nonzero;stroke:none"
         d="M 0,0 50.188,22.345 56.709,7.7 42.388,1.325 49.016,-13.561 13.147,-29.53 Z" /></g><g
       id="g28"><g
         clip-path="url(#clipPath34)"
         id="g30"><g
           transform="translate(310.2642,306.9922)"
           id="g36"><path
             id="path38"
             style="fill:#ffffff;fill-opacity:1;fill-rule:nonzero;stroke:none"
             d="m 0,0 c 6.296,-14.142 -0.066,-30.714 -14.209,-37.011 -14.144,-6.3 -30.714,0.063 -37.012,14.208 -6.296,14.142 0.064,30.713 14.208,37.01 C -22.87,20.506 -6.299,14.146 0,0" /></g><g
           transform="translate(265.7749,287.5439)"
           id="g40"><path
             id="path42"
             style="fill:#908c64;fill-opacity:1;fill-rule:nonzero;stroke:none"
             d="M 0,0 C -4.567,10.262 0.063,22.323 10.325,26.892 15.294,29.106 20.828,29.25 25.908,27.3 30.987,25.352 35.003,21.539 37.217,16.57 41.783,6.31 37.152,-5.756 26.893,-10.324 16.632,-14.892 4.568,-10.261 0,0 M 9.818,28.026 C -1.068,23.181 -5.98,10.38 -1.134,-0.503 c 4.848,-10.886 17.647,-15.8 28.533,-10.953 10.884,4.844 15.795,17.643 10.949,28.529 -2.347,5.274 -6.605,9.317 -11.994,11.386 -5.39,2.068 -11.262,1.914 -16.536,-0.433" /></g><g
           transform="translate(294.4478,299.8477)"
           id="g44"><path
             id="path46"
             style="fill:#908c64;fill-opacity:1;fill-rule:nonzero;stroke:none"
             d="m 0,0 c 2.462,-5.527 -0.023,-11.999 -5.548,-14.459 -5.526,-2.46 -12.001,0.024 -14.461,5.549 -2.46,5.525 0.024,12 5.551,14.461 C -8.931,8.01 -2.461,5.525 0,0" /></g><g
           transform="translate(349.6211,256.6523)"
           id="g48" /><g
           transform="translate(393.1533,288.4609)"
           id="g52" /><g
           transform="translate(430.1465,257.2998)"
           id="g56" /><g
           transform="translate(466.667,296.6504)"
           id="g60" /><g
           transform="translate(519.4482,256.7695)"
           id="g64" /><g
           transform="translate(561.6846,257.2998)"
           id="g68" /><g
           transform="translate(582.4785,292.8789)"
           id="g72" /><g
           transform="translate(635.1992,257.2998)"
           id="g78" /></g></g></g></svg>