<?xml version="1.0" encoding="UTF-8" standalone="no"?>
<svg
   xmlns:dc="http://purl.org/dc/elements/1.1/"
   xmlns:cc="http://creativecommons.org/ns#"
   xmlns:rdf="http://www.w3.org/1999/02/22-rdf-syntax-ns#"
   xmlns:svg="http://www.w3.org/2000/svg"
   xmlns="http://www.w3.org/2000/svg"
   viewBox="0 0 553.67999 133.86667"
   height="133.86667"
   width="553.67999"
   xml:space="preserve"
   id="svg2"
   version="1.1"><metadata
     id="metadata8"><rdf:RDF><cc:Work
         rdf:about=""><dc:format>image/svg+xml</dc:format><dc:type
           rdf:resource="http://purl.org/dc/dcmitype/StillImage" /></cc:Work></rdf:RDF></metadata><defs
     id="defs6" /><g
     transform="matrix(1.3333333,0,0,-1.3333333,0,133.86667)"
     id="g10"><g
       transform="scale(0.1)"
       id="g12"><path
         id="path14"
         style="fill:#08789e;fill-opacity:1;fill-rule:nonzero;stroke:none"
         d="M 127.406,938.824 273.871,1004.03 337.637,860.832 486.484,927.086 646.191,568.41 350.879,436.934 127.406,938.824" /><path
         id="path16"
         style="fill:#f25c19;fill-opacity:1;fill-rule:nonzero;stroke:none"
         d="M 76.9336,490.566 435.613,650.246 567.094,354.953 65.2148,131.508 0,277.949 143.219,341.719 76.9336,490.566" /><path
         id="path18"
         style="fill:#a21030;fill-opacity:1;fill-rule:nonzero;stroke:none"
         d="M 351.648,435.598 646.957,567.07 870.43,65.207 723.969,0 660.199,143.195 511.344,76.9336 351.648,435.598" /><path
         id="path20"
         style="fill:#93b413;fill-opacity:1;fill-rule:nonzero;stroke:none"
         d="M 434.918,648.754 936.793,872.199 1002.01,725.754 858.793,662.004 925.074,513.145 566.391,353.449 434.918,648.754" /><path
         id="path22"
         style="fill:#ffffff;fill-opacity:1;fill-rule:nonzero;stroke:none"
         d="M 757.156,615.508 C 820.121,474.094 756.5,308.371 615.066,245.402 c -141.437,-63 -307.14,0.625 -370.117,142.078 -62.961,141.418 0.641,307.129 142.082,370.094 141.43,62.992 307.133,-0.605 370.125,-142.066" /><path
         id="path24"
         style="fill:#908c64;fill-opacity:1;fill-rule:nonzero;stroke:none"
         d="m 312.266,421.027 c -45.668,102.618 0.629,223.231 103.246,268.914 49.691,22.153 105.035,23.586 155.832,4.082 50.797,-19.48 90.953,-57.605 113.09,-107.293 v 0 C 730.098,484.125 683.785,363.469 581.195,317.785 478.59,272.109 357.949,318.422 312.266,421.027 Z m 98.183,280.266 C 301.582,652.836 252.461,524.824 300.922,416 349.402,307.141 477.395,258 586.262,306.469 695.098,354.902 744.211,482.902 695.746,591.758 v 0 c -23.465,52.734 -66.055,93.168 -119.945,113.859 -53.891,20.684 -112.613,19.141 -165.352,-4.324" /><path
         id="path26"
         style="fill:#908c64;fill-opacity:1;fill-rule:nonzero;stroke:none"
         d="m 598.992,544.063 c 24.621,-55.27 -0.23,-119.989 -55.48,-144.59 -55.254,-24.598 -120.012,0.246 -144.61,55.492 -24.593,55.254 0.243,120 55.516,144.605 55.266,24.59 119.961,-0.254 144.574,-55.507" /><path
         id="path28"
         style="fill:#08789e;fill-opacity:1;fill-rule:nonzero;stroke:none"
         d="m 1150.73,112.109 c -35.34,0 -65.39,3.528 -91.9,10.586 l 8.25,73.637 c 25.91,-10.598 54.78,-17.074 86.59,-17.074 35.93,0 66.56,14.719 66.56,51.836 0,76 -167.3,41.242 -167.3,172.011 0,70.688 54.2,119.583 150.23,119.583 21.8,0 49.47,-2.938 71.85,-7.657 l -7.06,-67.156 c -21.79,7.09 -44.76,11.18 -68.33,11.18 -44.77,0 -65.39,-19.434 -65.39,-47.688 0,-71.297 170.25,-44.773 170.25,-170.84 0,-73.64 -61.86,-128.418 -153.75,-128.418" /><path
         id="path30"
         style="fill:#08789e;fill-opacity:1;fill-rule:nonzero;stroke:none"
         d="m 1586.05,430.195 -88.96,-247.996 c 9.44,-2.355 19.45,-2.941 28.87,-2.355 53.61,4.719 100.73,47.715 100.73,136.672 0,51.257 -13.54,93.066 -40.64,113.679 z m -86.6,22.383 c -50.06,-7.644 -90.13,-52.41 -90.13,-132.535 0,-50.656 11.19,-89.543 35.94,-110.742 l 87.77,243.875 c -11.19,1.789 -21.21,1.172 -33.58,-0.598 z m 11.19,-340.469 c -13.55,0 -24.74,0.567 -35.34,2.942 l -20.62,-58.3322 -55.95,17.6757 20.02,57.1605 c -60.68,30.617 -88.35,97.773 -88.35,181.425 0,130.782 86.59,209.708 193.79,209.708 10.6,0 20.62,-0.586 30.64,-2.352 l 19.43,55.379 55.97,-17.688 -18.86,-53.015 c 57.15,-26.504 94.26,-85.41 94.26,-183.184 0,-131.387 -84.82,-209.719 -194.99,-209.719" /><path
         id="path32"
         style="fill:#08789e;fill-opacity:1;fill-rule:nonzero;stroke:none"
         d="M 1955.98,118.586 1828.16,309.445 V 118.586 h -76.58 v 397.617 h 76.58 V 335.949 l 129.01,180.254 h 93.07 L 1904.74,324.18 2056.72,118.586 h -100.74" /><path
         id="path34"
         style="fill:#08789e;fill-opacity:1;fill-rule:nonzero;stroke:none"
         d="m 2321.19,512.094 c -27.69,0 -47.72,-19.446 -47.72,-46.543 0,-19.438 11.18,-41.828 43.01,-78.332 33,27.07 50.65,50.039 50.65,80.097 0,24.153 -13.53,44.778 -45.94,44.778 z M 2306.45,324.75 c -41.21,-32.98 -58.3,-59.504 -58.3,-90.109 0,-41.231 32.41,-76.582 84.24,-76.582 47.13,0 83.65,18.828 108.98,40.625 -48.3,39.492 -102.51,90.734 -134.92,126.066 z m 255.67,-217.355 c -28.27,19.445 -61.25,43.593 -83.65,62.429 -38.28,-33.562 -90.72,-57.148 -155.5,-57.148 -84.83,0 -129.02,50.676 -129.02,115.469 0,53.625 33.57,90.128 81.88,127.843 -41.22,47.703 -54.77,74.805 -54.77,107.207 0,47.715 37.09,88.953 104.83,88.953 61.29,0 94.27,-33.582 94.27,-79.531 0,-40.066 -20.61,-74.804 -73.64,-116.043 34.17,-35.351 84.82,-83.066 130.2,-119.582 v -0.605 c 25.9,36.535 42.98,87.793 40.04,146.105 h 53.03 c 1.75,-66.57 -17.68,-127.844 -54.2,-174.961 29.44,-22.968 59.5,-44.765 80.7,-59.504 l -34.17,-40.632" /><path
         id="path36"
         style="fill:#08789e;fill-opacity:1;fill-rule:nonzero;stroke:none"
         d="m 2849,113.281 c -32.39,0 -62.44,4.121 -87.19,11.203 l 6.5,51.836 c 25.33,-10.027 54.19,-15.91 83.63,-15.91 45.95,0 86.01,18.848 86.01,67.735 0,89.543 -179.66,54.191 -179.66,180.871 0,65.363 49.47,112.5 139.01,112.5 22.98,0 49.48,-2.356 71.88,-7.668 l -6.49,-47.703 c -21.21,6.472 -45.36,10.605 -68.33,10.605 -54.21,0 -80.11,-24.172 -80.11,-61.855 0,-86.008 182,-54.797 182,-179.676 0,-71.281 -58.3,-121.938 -147.25,-121.938" /><path
         id="path38"
         style="fill:#08789e;fill-opacity:1;fill-rule:nonzero;stroke:none"
         d="m 3271.36,118.586 -157.27,196.75 v -196.75 h -54.19 v 397.617 h 54.19 V 328.887 l 157.87,187.316 h 66.56 L 3170.62,324.18 3345,118.586 h -73.64" /><path
         id="path40"
         style="fill:#08789e;fill-opacity:1;fill-rule:nonzero;stroke:none"
         d="m 3479.3,474.379 c -13.53,0 -25.33,-0.586 -35.92,-1.176 V 337.719 c 5.88,-0.586 17.65,-1.172 33.57,-1.172 57.15,0 90.14,28.875 90.14,71.266 0,47.714 -30.05,66.566 -87.79,66.566 z M 3580.63,118.586 3450.44,297.07 h -7.06 V 118.586 h -54.19 v 397.617 c 27.07,1.766 55.95,2.363 99.55,2.363 78.35,0 134.89,-27.683 134.89,-103.671 0,-67.735 -53.62,-107.227 -116.65,-111.946 11.2,-14.117 24.17,-28.855 34.18,-42.41 l 108.39,-141.953 h -68.92" /><path
         id="path42"
         style="fill:#08789e;fill-opacity:1;fill-rule:nonzero;stroke:none"
         d="m 3706.67,118.586 v 397.617 h 54.19 V 118.586 h -54.19" /><path
         id="path44"
         style="fill:#08789e;fill-opacity:1;fill-rule:nonzero;stroke:none"
         d="m 4006.51,118.586 h -60.67 l -143.13,397.617 h 60.07 l 88.95,-255.664 c 7.65,-22.969 18.27,-54.18 25.33,-81.281 h 1.2 c 7.06,27.101 17.06,57.129 27.67,85.422 l 91.29,251.523 h 55.38 L 4006.51,118.586" /></g></g></svg>