<?xml version="1.0" encoding="UTF-8" standalone="no"?>
<!DOCTYPE svg PUBLIC "-//W3C//DTD SVG 1.1//EN" "http://www.w3.org/Graphics/SVG/1.1/DTD/svg11.dtd">
<svg width="100%" height="100%" viewBox="0 0 256 256" version="1.1" xmlns="http://www.w3.org/2000/svg" xmlns:xlink="http://www.w3.org/1999/xlink" xml:space="preserve" xmlns:serif="http://www.serif.com/" style="fill-rule:evenodd;clip-rule:evenodd;stroke-linecap:round;stroke-linejoin:round;stroke-miterlimit:1.5;">
    <g transform="matrix(0.760838,0,0,0.760838,-1137.66,-542.731)">
        <g transform="matrix(-1.18307,1.44884e-16,-1.44884e-16,-1.18307,2243.98,1661.71)">
            <path d="M426.154,662.816L438.233,652.194L450.709,663.274" style="fill:none;stroke:rgb(34,140,205);stroke-width:9.26px;"/>
        </g>
        <g transform="matrix(1,0,0,1,-1,1)">
            <path d="M1619.68,836.256L1679.98,836.256" style="fill:none;stroke:black;stroke-width:10.95px;stroke-linecap:butt;"/>
        </g>
        <g transform="matrix(1,0,0,1,-1,27.9854)">
            <path d="M1619.68,836.256L1679.98,836.256" style="fill:none;stroke:black;stroke-width:10.95px;stroke-linecap:butt;"/>
        </g>
        <g transform="matrix(1,0,0,1,-1,55.5458)">
            <path d="M1619.68,836.256L1679.98,836.256" style="fill:none;stroke:black;stroke-width:10.95px;stroke-linecap:butt;"/>
        </g>
        <g transform="matrix(1,0,0,1,-1,82.6417)">
            <path d="M1619.68,836.256L1679.98,836.256" style="fill:none;stroke:black;stroke-width:10.95px;stroke-linecap:butt;"/>
        </g>
        <g transform="matrix(1,0,0,1.05872,0.612147,-52.2967)">
            <g transform="matrix(1.31434,-0,-0,1.24144,1494.66,723.165)">
                <path d="M55.887,105.353L69.949,95.978L84.012,105.353" style="fill:none;stroke:rgb(34,140,205);stroke-width:6.25px;stroke-linecap:butt;stroke-linejoin:miter;stroke-miterlimit:10;"/>
                <path d="M69.949,121.513L69.949,95.978" style="fill:none;stroke:rgb(34,140,205);stroke-width:6.25px;stroke-linecap:butt;"/>
            </g>
        </g>
        <g transform="matrix(-1,-1.29656e-16,1.22465e-16,-1.05872,3173.81,1815.44)">
            <g transform="matrix(-1.31434,1.6096e-16,-1.52033e-16,-1.24144,1678.54,1040.97)">
                <path d="M84.012,150.647L69.949,160.022L55.887,150.647" style="fill:none;stroke:rgb(34,140,205);stroke-width:6.25px;stroke-linecap:butt;stroke-linejoin:miter;stroke-miterlimit:10;"/>
                <path d="M69.949,134.487L69.949,160.022" style="fill:none;stroke:rgb(34,140,205);stroke-width:6.25px;stroke-linecap:butt;"/>
            </g>
        </g>
    </g>
</svg>
