<?xml version="1.0" encoding="UTF-8" standalone="no"?>
<!DOCTYPE svg PUBLIC "-//W3C//DTD SVG 1.1//EN" "http://www.w3.org/Graphics/SVG/1.1/DTD/svg11.dtd">
<svg width="691" height="694" viewBox="0 0 691 694" version="1.1" xmlns="http://www.w3.org/2000/svg" xmlns:xlink="http://www.w3.org/1999/xlink" xml:space="preserve" xmlns:serif="http://www.serif.com/" style="fill-rule:evenodd;clip-rule:evenodd;stroke-linejoin:round;stroke-miterlimit:2;">
	<path d="M0,347.45c0,-83.522 29.612,-160.149 78.925,-219.91c63.403,-76.835 159.372,-125.82 266.745,-125.82c190.955,0 345.7,154.805 345.73,345.73c-0,190.895 -154.775,345.7 -345.73,345.7c-190.895,-0 -345.67,-154.805 -345.67,-345.7Zm5.134,-0c0,94.059 38.12,179.163 99.761,240.805c61.642,61.641 146.746,99.761 240.775,99.761c94.059,-0 179.193,-38.12 240.835,-99.761c61.641,-61.642 99.761,-146.746 99.761,-240.805c-0,-94.03 -38.12,-179.163 -99.761,-240.805c-61.642,-61.642 -146.776,-99.761 -240.835,-99.761c-105.79,0 -200.297,48.239 -262.775,123.94c-48.567,58.895 -77.761,134.328 -77.761,216.626Z" style="fill-rule:nonzero;" />
	<path d="M75.97,487.688c0.06,-4.507 3.761,-8.119 8.268,-8.06c4.508,0.06 8.15,3.762 8.09,8.269c-0.06,4.537 -3.761,8.149 -8.269,8.09c-4.537,-0.09 -8.149,-3.791 -8.089,-8.299Zm520.296,4.866c0.06,-4.508 3.761,-8.12 8.269,-8.06c4.507,0.06 8.149,3.761 8.089,8.269c-0.059,4.507 -3.761,8.149 -8.268,8.089c-4.538,-0.059 -8.15,-3.761 -8.09,-8.298Zm-14.089,-244.447c-12.926,-30.507 -31.373,-57.88 -54.896,-81.403c-23.492,-23.462 -50.865,-41.94 -81.343,-54.865c-31.552,-13.313 -65.104,-20.06 -99.611,-20.06c-34.567,0 -68.089,6.747 -99.671,20.06c-30.478,12.895 -57.821,31.403 -81.373,54.865c-23.493,23.523 -41.94,50.866 -54.806,81.403c-13.373,31.522 -20.149,65.074 -20.149,99.582c-0,34.597 6.776,68.149 20.149,99.671c12.866,30.448 31.313,57.85 54.806,81.343c23.522,23.492 50.865,41.97 81.373,54.865c9.552,4.06 19.283,7.463 29.164,10.299l0.268,0.089c4.956,1.553 10,2.776 15.075,3.791c18,3.941 36.418,5.941 55.164,5.941c11.403,-0 22.716,-0.747 33.88,-2.209l0.09,-0c6.507,-0.388 11.104,-1.373 14.119,-2.299c17.612,-3.343 34.866,-8.537 51.522,-15.582c30.478,-12.895 57.851,-31.373 81.343,-54.865l-1.821,-1.821l1.821,1.821c23.523,-23.493 41.94,-50.896 54.866,-81.343c13.313,-31.522 20.089,-65.075 20.089,-99.671c0,-34.538 -6.746,-68.06 -20.059,-99.612Zm-394.655,293.76c-0.388,-0.328 -1.045,-1.403 -0.717,-2.239c0.149,-0.328 0.329,-0.716 0.537,-1.074c1.105,-2.06 2.896,-4.448 4.418,-6.269c2.657,5.731 9.075,16.806 22.627,28.776c-9.373,-5.791 -18.328,-12.179 -26.865,-19.194Zm-2.15,-151.761c5.254,5.135 6.179,9.583 6.209,12.597c0,1.224 -0.179,2.18 -0.328,2.836c-0.09,0.329 -0.149,0.567 -0.209,0.717c-0,0.029 -0.03,0.059 -0.03,0.089c-0.239,0.358 -2.298,4.239 -8.179,4.239c-0.895,-0 -1.94,-0.09 -3.075,-0.328c-9.94,-1.941 -19.791,-5.791 -27.91,-6.806c-0.119,-0.03 -0.298,-0 -0.448,-0.03l19.523,-26.776c6.388,5.88 11.91,11.015 14.447,13.462Zm-40.865,-44.626l127.223,-128.656l-76.268,179.073c-1.134,-2.985 -3.134,-6.268 -6.478,-9.492c-7.164,-6.896 -36.567,-33.701 -44.477,-40.925Zm34.268,69.82c1.433,0.269 2.806,0.418 4.06,0.418c4.537,0.03 7.821,-1.701 9.851,-3.462c2.03,-1.762 2.865,-3.493 2.955,-3.702l-0,-0.06c-0,-0.029 0.03,-0.059 0.06,-0.149l0.149,-0.328l78.238,-182.984c0.179,1.223 0.538,3.582 0.866,4.716c1.224,20.537 5.94,34.955 10.896,46c2.865,6.388 5.791,11.283 8.059,14.716c1.135,1.731 2.12,3.105 2.866,4.09c0.239,0.328 0.477,0.626 0.657,0.865l-18.239,63.015c-0.299,0.985 0.06,2.089 0.865,2.716l4.359,3.463c-0,0 0.537,0.507 0.298,1.463c-0.268,0.955 -20.298,74.925 -20.298,74.925l-63.642,73.074c-4.716,-3.91 -18.507,-16.686 -36.776,-45.074c-15.91,-24.687 -20.656,-40.269 -20.626,-49.134c-0,-4.418 1.104,-7.105 2.417,-8.777l0.06,-0.059l0.06,-0.09c0.089,-0.089 0.149,-0.209 0.239,-0.298c1.462,-1.612 3.253,-2.179 4.597,-2.179c0.179,-0 0.328,-0 0.477,0.029c7.075,0.896 17.075,4.747 27.552,6.806Zm134.955,-269.282c-0.448,-1.313 -1.851,-2.03 -3.164,-1.612c1.134,-1.015 2.239,-1.97 3.313,-2.895l11.045,-1.433c1.403,-0.179 2.388,-1.493 2.209,-2.896c-0.179,-1.403 -1.463,-2.388 -2.896,-2.209l-1.671,0.239c3.462,-2.03 6.985,-3.672 9.91,-4.866c1.97,-0.806 3.642,-1.432 4.836,-1.85c1.194,-0.388 1.821,-0.597 1.851,-0.597c1.373,-0.388 2.149,-1.821 1.731,-3.194c-0.418,-1.344 -1.851,-2.12 -3.194,-1.732c-0.09,0.03 -4.388,1.284 -9.94,3.821c0.806,-1.164 0.537,-2.746 -0.627,-3.582c-1.164,-0.806 -2.776,-0.537 -3.582,0.627l-5.911,8.388c-0.537,0.358 -1.074,0.687 -1.582,1.045c-0.746,0.537 -1.582,1.164 -2.477,1.88l0.597,-1.164c0.656,-1.254 0.149,-2.806 -1.105,-3.463c-1.253,-0.656 -2.806,-0.149 -3.462,1.105l-6.478,12.597c-1.612,1.492 -3.104,2.895 -4.388,4.119c0.209,-6.716 2,-18.567 9.552,-24.209c7.403,-5.671 13.552,-6.895 18.687,-6.895c3.015,-0 5.671,0.448 8.029,0.806c1.105,0.149 5.075,1.104 8.508,1.97c3.463,0.896 6.597,1.702 6.597,1.731l0.657,0.09c3.791,0.03 5.671,0.985 6.686,2c1.015,1.015 1.403,2.388 1.433,3.91c0.03,1.284 -0.537,2.747 -1.164,3.851c-0.239,0.418 -0.448,0.717 -0.627,1.015l-19.194,2.119c-0.687,0.09 -1.343,0.448 -1.761,0.985l-12.09,15.941l-5.91,0.03l-0.537,0.059c-0.239,0.06 -1.314,0.299 -2.508,1.284c-1.224,0.955 -2.418,2.895 -2.358,5.373c-0.03,4.806 1.642,8.089 3.463,10c0.179,0.209 0.388,0.388 0.567,0.567l-7.881,7.881c-1.224,-0.329 -3.224,-1.015 -5.074,-2.329c-2.388,-1.671 -4.568,-4.149 -5.284,-8.477c-0.388,-2.508 -0.537,-4.567 -0.537,-6.209c-0,-1.732 0.149,-2.985 0.328,-3.881c0.03,-0.03 0.06,-0.03 0.09,-0.059c-0,-0 1.164,-1.135 2.955,-2.866l10.865,-3.702c1.224,-0.537 1.941,-2 1.493,-3.313Zm39.313,19.642c0,-0 0.03,0.806 -0.627,1.194c-0.686,0.388 -1.134,1.044 -1.283,1.821c-0.12,0.776 0.209,1.492 0.627,2.119c0.089,0.149 0.119,0.478 -0.06,0.806c-0.179,0.298 -0.507,0.895 -0.507,0.895c-0.359,0.627 -0.448,1.374 -0.209,2.06l0.029,0.09c0.09,0.298 0.269,1.134 0.269,2.03c0,0.507 -0.388,1.94 -1.403,2.358c-0.955,0.418 -2.567,0.746 -4.716,0.806l-5.433,-0.12c-1.254,-0.03 -2.358,0.866 -2.567,2.09c-0.03,0.119 -0.15,0.806 -0.15,1.88c0,1.403 0.209,3.523 1.344,5.672c0.418,0.836 1.045,1.642 1.791,2.388c-0,0 -0,0.03 0.03,0.03l9.134,10.239l-23.701,1.612l-16.15,-12.627c0.806,-0.388 1.254,-0.627 1.254,-0.627c0.866,-0.418 1.433,-1.313 1.433,-2.299l-0,-7.462l10.358,-10.388c0.627,-0.627 0.896,-1.582 0.687,-2.448c-0.239,-0.895 -0.896,-1.582 -1.762,-1.821c-0.477,-0.328 -3.582,-1.313 -3.671,-7.671c0.03,-1.045 0.298,-1.165 0.507,-1.433c0.09,-0.06 0.179,-0.12 0.239,-0.179l6.746,-0.06c0.806,-0 1.553,-0.388 2.03,-1.015c0,0 10.776,-14.269 11.523,-15.164c0.746,-0.925 1.88,-1.015 1.88,-1.015l14.597,-1.582c0,-0 0.746,-0.03 0.866,0.866c0.119,1.343 0.268,2.985 0.447,4.776c0.03,0.746 -0.447,1.015 -0.746,1.044c-1.851,0.06 -3.791,0.12 -5.851,0.18c-2.149,0.089 -4.507,1.074 -6.059,2.388c-1.164,0.955 -1.194,2.776 -0.12,3.82c0.597,0.568 1.881,0.777 3.284,1.194c1.761,0.538 3.731,1.195 4.716,0.896c1.254,-0.418 1.732,-1.522 1.821,-2.746c0.09,-1.344 0.896,-2.299 2.269,-2.299c0.567,0 0.925,0.478 0.985,0.955c0.269,2.568 0.716,5.791 0.896,7.642c0.089,0.896 0.149,1.732 0.208,2.448c0.03,0.925 -0.776,0.985 -1.194,1.045c-0.865,0.119 -1.522,0.119 -1.522,0.149c-0.687,0.03 -1.343,0.328 -1.791,0.866c-0.478,0.507 -0.687,1.194 -0.657,1.88l0.209,2.717Zm-29.821,42.656c0.448,0.358 1.015,0.538 1.583,0.538l0.179,-0l29.91,-2.03c0.985,-0.06 1.851,-0.687 2.209,-1.612c0.388,-0.896 0.179,-1.941 -0.448,-2.687l-5.373,-6.03c3.134,0.956 5.821,1.791 7.91,2.418c1.612,0.418 4.538,2.985 7.015,6.358c2.359,3.075 4.508,6.717 5.941,9.672c-1.045,5.313 -2.568,10.537 -4.179,15.791l-13.254,10.06l-28.866,-19.433c-1.462,-2.149 -8.179,-11.94 -14.626,-18.418c-3.433,-3.373 -8.269,-4.716 -13.105,-4.716c-0.895,-0 -1.791,0.059 -2.686,0.149c1.253,-0.687 2.537,-1.373 3.761,-2.03c1.88,-0.985 3.701,-1.94 5.283,-2.776l18.746,14.746Zm-25.134,-4.925c3.941,-0 7.433,1.134 9.493,3.194c3.343,3.343 6.955,7.88 9.671,11.582c2.747,3.701 4.597,6.477 4.597,6.507c0.179,0.299 0.418,0.538 0.717,0.717l30.806,20.746c0.925,0.627 2.119,0.597 2.985,-0.09l39.223,-29.82l0.179,-0.15c0,0 0.866,-0.776 2,-1.731c1.135,-0.955 2.568,-2.09 3.433,-2.627c2.03,-1.343 10.687,-6.477 16.209,-6.627c0.478,-0.03 0.955,-0.03 1.403,-0.03c2.657,-0.029 4.597,0.448 5.582,1.105c0.926,0.657 1.344,1.194 1.433,3.134c0,3.135 0.06,7.761 0.06,7.761c-0,1.254 0.895,2.09 2.119,2.299c0.955,-0 2.269,0.269 2.269,1.761c-0,1.702 -1.164,1.94 -1.702,2.03c-0.925,0.119 -1.821,0.239 -2.179,0.269l-2.418,-0l-0.656,0.089c-0,0 -3.314,0.866 -6.866,1.702c-1.761,0.418 -3.612,0.865 -5.104,1.164c-0.747,0.149 -1.403,0.298 -1.911,0.388c-0.239,0.03 -0.448,0.06 -0.597,0.089c-0.149,0.03 -0.179,0 -0.179,0.03c-2.269,0 -5.791,0.388 -5.851,0.388c-0.716,0.09 -1.403,0.478 -1.821,1.075c0,0.03 -4.358,6.179 -9.791,13.433c-5.432,7.253 -12.029,15.671 -16.238,19.88c-4.388,4.388 -8,7.702 -10.538,9.911c-0.776,0.686 -1.462,1.253 -2.03,1.731c-0.298,0.239 -0.985,0.567 -1.731,0.269c-3.761,-1.553 -11.791,-4.776 -21.462,-8.896c-13.493,-5.761 -30.209,-13.254 -42.866,-20.03c-2.507,-1.283 -6.985,-4.029 -10.686,-7.94c-0.389,-0.418 -0.777,-0.866 -1.165,-1.313c-0.119,-0.15 -0.238,-0.299 -0.358,-0.418c-0.298,-0.358 -0.567,-0.717 -0.836,-1.045c-0.209,-0.269 -0.388,-0.567 -0.597,-0.836c-0.179,-0.239 -0.328,-0.477 -0.477,-0.746c-0.179,-0.269 -0.358,-0.567 -0.538,-0.866c-0.059,-0.119 -0.119,-0.239 -0.209,-0.358c-0.358,-0.627 -0.656,-1.254 -0.925,-1.91c-0.03,-0.09 -0.089,-0.179 -0.119,-0.269c-0.15,-0.388 -0.299,-0.776 -0.418,-1.164l-0,-0.03c-0.239,-0.687 -0.418,-1.403 -0.567,-2.119c-0.06,-0.299 -0.12,-0.627 -0.179,-0.926l-0.09,-0.716c-0.06,-0.597 -0.119,-1.194 -0.119,-1.821c-0,-0.418 0.029,-0.806 0.059,-1.224c0.03,-0.328 0.06,-0.687 0.12,-1.045l-0,-0.179c0.119,-0.836 0.298,-1.672 0.537,-2.537c0.149,-0.508 0.298,-1.045 0.507,-1.582c0,-0.03 0.03,-0.06 0.03,-0.09c0.179,-0.477 0.388,-1.015 0.597,-1.522c0.03,-0.06 0.06,-0.149 0.09,-0.209c0.209,-0.478 0.448,-0.955 0.716,-1.433c0.06,-0.09 0.12,-0.209 0.179,-0.328c0.329,-0.567 0.657,-1.164 1.015,-1.762c2.329,-3.97 9.015,-6.925 15.194,-6.865Zm80.537,-39.194c0,-1.134 0.388,-1.313 0.597,-1.284c3.911,0.627 6.06,2.329 7.433,3.941c0.836,1.015 1.343,2.059 1.642,2.806c0.149,0.388 0.239,0.686 0.298,0.895c0.03,0.09 0.03,0.179 0.06,0.209c0.209,1.224 1.284,2.149 2.537,2.149l50.149,0c1.284,0 2.359,-0.925 2.538,-2.179c0.059,-0.239 0.447,-1.88 2.059,-3.403c1.344,-1.253 3.553,-2.627 7.553,-3.134c0.537,-0.119 0.626,0.418 0.626,0.896c0,5.313 -0.179,16.387 -0.179,32.447c0,13.075 3.373,23.642 6.597,34.09c3.254,10.477 6.359,20.835 6.359,34.089c-0,7.075 -1.344,13.851 -3.971,20c-2.298,-1.284 -4.238,-2.06 -5.313,-2.358c-0.358,-0.09 -0.716,-0.15 -1.075,-0.15c-2.029,0.09 -3.343,0.985 -4.627,1.881c-1.253,1.015 -2.238,1.731 -2.955,3.343c-0.209,0.538 -0.298,1.075 -0.298,1.582c0.03,1.403 0.507,2.359 0.865,3.105c-0.537,0.448 -1.164,0.955 -1.791,1.522c-0.835,0.746 -1.701,1.552 -2.447,2.418c-0.747,0.866 -1.433,1.672 -1.851,2.925c-0.239,0.777 -0.388,1.583 -0.388,2.418c-0,1.582 0.448,3.015 1.164,4.478c-7.791,4.507 -17.552,7.164 -29.313,7.194c-17.164,-0 -29.433,-5.91 -37.612,-14.448c-6.06,-6.388 -9.821,-14.328 -11.343,-22.567c2.537,-2.149 6.985,-6.06 12.627,-11.701c0.955,-0.955 2,-2.09 3.104,-3.344c1.821,6.448 5.433,11.821 10.149,15.821c6.597,5.612 15.224,8.627 24.149,8.896c0.15,0.03 0.329,0.059 0.478,0.059c0.06,0 0.149,0 0.209,-0.029c0.209,-0 0.418,0.029 0.627,0.029c19.313,-0.059 33.791,-17.164 33.821,-36.089c-0,-8.507 -2,-14.448 -3.851,-23.612c-1.881,-9.194 -3.732,-21.97 -3.732,-44.447c0,-0.687 -0.268,-1.344 -0.746,-1.821c-0.477,-0.478 -1.134,-0.746 -1.821,-0.746l-49.522,-0c-0.686,-0 -1.343,0.268 -1.821,0.746c-0.477,0.477 -0.746,1.134 -0.746,1.821c-0,16.089 -1.045,26.447 -2.358,34.149l-11.642,8.836c0.925,-3.344 1.761,-6.747 2.418,-10.209c0.06,-0.15 0.06,-0.299 0.09,-0.448c0.835,-4.478 1.343,-9.075 1.373,-13.821c-0,-17.015 -0.09,-30.507 -0.12,-36.955Zm71.403,142.328c-1.403,-1.97 -1.851,-3.284 -1.821,-4.15c0,-0.298 0.03,-0.567 0.149,-0.895c0.209,-0.478 1.732,-2.119 3.105,-3.284c1.373,-1.223 2.627,-2.149 2.627,-2.149c0.716,-0.448 1.194,-1.612 1.134,-2.298c-0.03,-1.015 -0.299,-1.373 -0.478,-1.791c-0.179,-0.359 -0.358,-0.687 -0.507,-0.956c-0.179,-0.388 -0.299,-1.253 0.477,-2c0.866,-0.895 2.12,-0.537 2.359,-0.417c0.955,0.388 2.507,1.104 4.029,1.999c2.239,1.314 4.508,3.135 5.314,4.687c0.836,1.433 1.522,3.343 1.492,4.627c0,0.866 -0.358,1.492 -0.776,1.97c-0.836,0.955 -8.388,7.284 -9.164,7.761c-0.806,0.567 -4.03,1.94 -6.776,2.955c-0.806,0.299 -1.582,0.568 -2.269,0.836c-0.955,0.388 -1.104,-0.239 -1.104,-0.239c-0,0 -0.179,-0.567 0.179,-0.925c0.448,-0.358 0.866,-0.746 1.284,-1.194c0.447,-0.597 1.134,-1.164 1.224,-2.776c0.089,-0.567 -0.09,-1.224 -0.478,-1.761Zm7.552,178.447c0,-0 0.09,0.746 -0.507,1.104c-0.597,0.329 -18.687,10.478 -18.687,10.478l-2.089,-180.596c2.059,-0.657 4.029,-1.433 5.91,-2.299l15.373,171.313Zm-82.776,83.522c0,-0 6.657,8.627 6.926,9.015c0.268,0.388 0.059,0.835 -0.12,0.985c-10.089,8.238 -26.447,14 -45.164,16.059c2.956,-13.582 14.299,-67.104 22.746,-121.611c8.687,-56.179 12.538,-109.522 13.284,-120.626c0,-0 6.746,-0.448 7.94,-0.568c1.164,-0.119 1.314,0.568 1.314,1.284c-0.03,0.716 -7.403,213.73 -7.403,213.73c-0.09,0.657 0.119,1.254 0.477,1.732Zm-89.671,-212.029c0,-0 16.716,-57.791 16.955,-58.567c0.209,-0.776 0.985,-0.985 0.985,-0.985c0,-0 12.239,-3.433 14.179,-4.06c1.941,-0.627 5.165,-0.866 5.165,-0.866l42.059,-2.567c2.209,4.926 5.224,9.582 9.104,13.672c3.403,3.612 7.493,6.746 12.209,9.283c0,0 -0.089,32 -0.089,32.597c-0,0.597 -0.299,1.284 -1.642,1.403c-1.343,0.12 -42.298,2.956 -52.507,3.702c-1.463,0.089 -3.194,0.358 -4.746,0.776c-1.553,0.448 -37.224,10.209 -37.224,10.209c-0,-0 -1.224,0.179 -1.821,-0.269c-0.597,-0.477 -0.925,-0.746 -2.03,-1.612c-1.134,-0.895 -0.597,-2.716 -0.597,-2.716Zm15.791,-64.895c-4.06,-5.582 -15.88,-22.12 -19.88,-52.299c0.268,0.329 0.567,0.627 0.835,0.926c4.269,4.477 9.135,7.462 12.03,8.955c25.761,13.791 67.104,30.089 67.164,30.119c0.03,0 0.06,0 0.09,0.03c0.358,1.731 0.835,3.403 1.403,5.104l-38.806,2.359c-0,-0 -4.567,0.209 -7.851,1.134c-3.97,1.104 -13.045,3.701 -13.642,3.91c-0.776,0.239 -1.194,-0.059 -1.343,-0.238Zm85.97,59.462l1.88,-0.388c1.194,-0.239 2.06,-1.313 2.06,-2.508l0.09,-33.343c6.865,2.776 14.835,4.359 23.91,4.359l0.09,-0c5.82,-0 11.253,-0.657 16.268,-1.791l2.388,206.596l0,0.626c0.03,2.12 -0.537,9.523 -6.597,13.881c-7.522,5.493 -24.358,14.239 -47.104,14.836l7.015,-202.268Zm-1.015,-94.089c6,-7.373 12.627,-16.418 16.358,-21.552l0,42.895c-2.567,-1.194 -4.955,-2.687 -7.045,-4.478c-4.865,-4.119 -8.268,-9.731 -9.313,-16.865Zm21.492,23.224l0,-48.149c0.448,-0.03 0.896,-0.03 1.254,-0.03c1.045,-0.03 2.119,-0.269 3.761,-0.597c0.478,-0.12 0.985,-0.209 1.523,-0.329l-0,50.329c-2.239,-0.209 -4.418,-0.627 -6.538,-1.224Zm11.672,1.313l-0,-51.642c2.358,-0.567 4.418,-1.104 5.194,-1.283l0.955,-0l0,51.791c-1.97,0.597 -4.03,0.985 -6.149,1.134Zm15.94,-63.313c-0.298,-0.925 -0.865,-2.299 -2.627,-2.896c-0.447,-0.119 -0.955,-0.268 -1.403,-0.358c0,-1.612 -0.029,-3.88 -0.029,-5.642c0.029,-1.223 -0.18,-2.417 -0.597,-3.492l-0,-20.687l8.059,0c0.12,21.194 2,33.791 3.821,42.926c1.94,9.522 3.761,14.985 3.731,22.597c0,8.179 -3.134,15.97 -8.328,21.671c-2.119,2.358 -4.597,4.328 -7.313,5.851l-0,-50c0.179,-0.03 0.388,-0.06 0.537,-0.06c0.239,-0.03 0.478,-0.059 0.627,-0.059l0.209,-0c0.955,-0 1.642,-0.478 1.97,-0.806c1.104,-1.224 1.075,-1.941 1.373,-2.926c0.209,-0.955 0.299,-2.03 0.328,-3.104c0.03,-1.075 -0.029,-2.03 -0.358,-3.015Zm-9.791,-33.075l0,15.791c-1.851,-0.686 -3.91,-0.925 -6.149,-0.955l-0,-14.836l6.149,0Zm-11.283,0l-0,15.344c-2.239,0.477 -4.478,1.253 -6.538,2.149l0,-17.493l6.538,0Zm-11.672,0l0,20.06c-1.731,0.955 -3.045,1.791 -3.791,2.239c-2.328,1.463 -5.463,4.268 -6.06,4.806l0,0.03c0.896,-6.866 1.553,-15.493 1.642,-27.135l8.209,0Zm-203.521,339.193c0.656,-0.746 69.94,-80.298 69.94,-80.298c0.268,-0.299 0.447,-0.627 0.537,-1.015c-0,-0 20.507,-75.671 20.656,-76.179c0.15,-0.537 0.687,-0.686 0.687,-0.686c0,-0 36.358,-9.941 37.731,-10.359c1.403,-0.388 3.403,-0.567 3.403,-0.567l20.179,-1.403c-0.239,2.358 -0.656,6.149 -1.313,11.015c-3.433,25.582 -13.911,80.746 -39.463,110.806c-38.059,44.985 -90.746,49.582 -110.477,49.582l-1.254,-0c-0.746,-0.03 -1.253,-0.15 -0.626,-0.896Zm-1.224,6c0.925,0.03 1.97,0.03 3.104,0.03c20.418,-0 74.776,-4.687 114.388,-51.373c32.597,-38.716 40.776,-112.567 42.059,-125.492l10.209,-0.717c-0.358,5.284 -1.254,17.821 -2.866,34.747c-2.119,22.716 -5.462,53.283 -10.328,84.716c-4.865,31.432 -10.716,62.596 -15.343,85.88c-3.433,17.224 -6.179,30.119 -7.373,35.671c-0.12,0.508 -0.746,1.433 -1.94,1.433c-2.836,0 -5.672,0.269 -8.568,0.239c-9.373,0 -19.074,-0.866 -28.626,-2.716c-5.015,-1.105 -9.97,-2.329 -14.896,-3.762c-35.432,-11.164 -56,-26.955 -67.731,-39.731c-5.88,-6.418 -9.552,-12.119 -11.731,-16.179c-0.358,-0.656 -0.657,-1.254 -0.925,-1.821c-0.269,-0.597 0.059,-0.955 0.567,-0.925Zm147.701,68.209c14.686,-2.538 27.671,-7.344 37.164,-14.179l8.089,2.328c0.299,0.089 0.597,0.119 0.896,0.119c-0,0 7.522,-0.418 8.149,-0.447c2.149,-0.12 3.104,1.134 3.104,1.582c0,0.447 0.06,1.015 0.06,1.015c-0,-0 0.09,1.343 -0.776,2.209c-0.806,0.805 -6.597,2.388 -8.717,3.074c-15.343,2.896 -30.984,4.388 -46.865,4.388c-0.358,-0.06 -0.716,-0.089 -1.104,-0.089Zm232.237,-153.134c-12.686,29.851 -30.716,56.656 -53.79,79.731c-23.045,23.015 -49.851,41.104 -79.702,53.761c-11.761,4.985 -23.791,9.015 -36.029,12.089l-0.299,-4.985c0,-3.015 -3.403,-4.507 -5.283,-4.507l-10.776,0.179c-0,0 -3.314,-0.806 -3.732,-0.925c-0.418,-0.12 -0.298,-0.538 -0.239,-0.627c0.747,-0.926 0.806,-2.239 0.06,-3.194l-8.239,-10.746l0.269,-7.642c24.179,-0.597 42,-9.761 50.298,-15.821c8.179,-6.06 8.687,-15.284 8.717,-18.03c-0,-0.388 -0,-0.657 -0.03,-0.776l-0.239,-21.433c0.09,-0.03 0.149,-0.059 0.239,-0.089l22.925,-12.866c0.896,-0.507 1.373,-1.463 1.314,-2.477l-15.045,-167.701c0.657,-0.209 2.776,-0.955 5.194,-1.851c2.925,-1.134 6.03,-2.328 7.851,-3.522c1.641,-1.164 8.537,-6.956 10.208,-8.687c1.463,-1.552 2,-3.552 2,-5.313c-0.029,-2.747 -1.074,-5.224 -2.149,-7.164c-0.955,-1.642 -2.239,-2.985 -3.671,-4.15c3.164,-7.044 4.776,-14.835 4.746,-22.895c-0,-14.06 -3.373,-25.134 -6.597,-35.612c-3.254,-10.477 -6.388,-20.388 -6.388,-32.567c-0,-22.597 0.239,-36.03 0.239,-36.059c-0,-0.687 -0.269,-1.344 -0.747,-1.851c-0.477,-0.508 -1.134,-0.776 -1.821,-0.776c-7.582,-0.03 -12.298,2.477 -14.895,5.283c-1.224,1.314 -1.94,2.597 -2.418,3.672l-46.388,-0c-0.448,-1.164 -1.224,-2.657 -2.477,-4.179c-2.508,-3.105 -7.224,-6.09 -14.567,-6.06c-0.687,0 -1.344,0.269 -1.821,0.776c-0.478,0.478 -0.747,1.135 -0.747,1.821c0,0.03 0.15,17.045 0.15,40.895c-0,1.881 -0.09,3.732 -0.239,5.583c-0.955,-1.493 -1.97,-2.985 -3.045,-4.418c-2.866,-3.672 -5.881,-6.926 -9.612,-8.15c-3.343,-1.014 -8.328,-2.567 -14.179,-4.358c-2.149,-0.686 -3.015,-1.642 -3.642,-2.746c-0.358,-0.627 -0.537,-1.343 -0.656,-2l2.835,0.06l0.15,-0c2.567,-0.09 4.746,-0.418 6.627,-1.194c1.85,-0.747 3.522,-2.12 4.149,-4.179c0.328,-1.045 0.418,-2.06 0.418,-2.956c-0,-1.015 -0.12,-1.88 -0.269,-2.537l1.224,-2.149c0.388,-0.687 0.448,-1.523 0.149,-2.239c0.567,-0.507 0.866,-1.284 0.806,-2.06l-0.179,-2.626c0.119,-0.03 0.239,-0.06 0.388,-0.06c0.776,-0.149 1.582,-0.329 2.448,-0.717c0.418,-0.209 0.865,-0.447 1.343,-0.925c0.478,-0.448 0.985,-1.313 0.985,-2.298c0,-0.687 -0.149,-2.329 -0.388,-4.926c-0.567,-6.328 -1.552,-17.074 -1.88,-20.418c1.044,-1.403 2.865,-4.298 2.925,-8.089c-0,-2.418 -0.687,-5.284 -2.925,-7.523c-2.15,-2.179 -5.523,-3.462 -10,-3.522c-2,-0.537 -12.359,-3.283 -15.374,-3.731c-2.238,-0.329 -5.223,-0.836 -8.746,-0.836c-6,-0.03 -13.582,1.582 -21.821,7.97c-10.656,8.388 -11.522,23.403 -11.582,30.06c0,1.283 0.03,2.298 0.09,2.865c-0.358,1.075 -0.896,3.284 -0.896,6.806c0,1.941 0.15,4.269 0.597,7.015c1.045,6.657 5.165,10.687 8.806,12.776c1.851,1.075 3.582,1.702 4.896,2.09l-0,4.895c-2.03,1.015 -14.836,6.657 -27.164,15.135c-0.269,0.238 -1.284,0.805 -2.239,1.91c-0.03,0.03 -0.06,0.03 -0.09,0.06l-138.596,140.148c-0.478,0.478 -0.746,1.164 -0.746,1.881c0.03,0.686 0.328,1.373 0.836,1.821c0.029,0.03 9.552,8.686 20.119,18.358c2.627,2.418 5.343,4.866 7.97,7.283l-25.403,34.836c-2.149,2.717 -3.522,6.687 -3.492,11.94c0.03,10.627 5.283,26.776 21.432,51.94c18.418,28.627 32.508,41.821 37.732,46.15l-6.717,7.701c-0.239,0.239 -2.388,2.507 -4.597,5.463c-1.164,1.522 -2.328,3.223 -3.254,4.955c-0.238,0.418 -0.447,0.836 -0.626,1.283c-4.538,-3.94 -8.956,-8.029 -13.254,-12.328c-23.015,-23.045 -41.104,-49.85 -53.701,-79.731c-13.105,-30.865 -19.732,-63.731 -19.732,-97.641c0,-33.821 6.627,-66.657 19.732,-97.582c12.626,-29.91 30.686,-56.716 53.701,-79.761c23.074,-23.015 49.85,-41.104 79.731,-53.761c30.955,-13.044 63.761,-19.671 97.641,-19.671c33.851,-0 66.687,6.597 97.612,19.671c29.88,12.657 56.686,30.746 79.701,53.761c23.045,23.045 41.104,49.851 53.791,79.761c13.045,30.925 19.671,63.761 19.671,97.582c0.09,33.91 -6.537,66.776 -19.582,97.671Zm-524.296,-76.119c2.955,-0.388 5.493,-0.358 7.582,0.089c2.12,0.448 3.911,1.314 5.373,2.597c1.463,1.284 2.627,3.015 3.493,5.165c0.865,2.119 1.492,4.716 1.88,7.731c0.329,2.567 0.359,4.985 0.12,7.164c-0.269,2.179 -0.926,4.119 -1.97,5.791c-1.045,1.672 -2.478,3.045 -4.329,4.149c-1.85,1.075 -6.238,2 -6.238,2c-0.418,0.09 -1.105,0.209 -1.523,0.269l-22.686,2.955c-0.418,0.06 -0.776,0.448 -0.806,0.866l-0.179,3.343c-0.03,0.418 -0.388,0.836 -0.806,0.896l-1.015,0.119c-0.418,0.06 -0.806,-0.239 -0.866,-0.657l-2,-15.283c-0.06,-0.418 0.239,-0.806 0.687,-0.866l0.985,-0.119c0.418,-0.06 0.865,0.239 1.015,0.627l1.044,3.134c0.12,0.418 0.597,0.686 1.015,0.627l25.373,-3.314c3.105,-0.418 5.433,-1.641 6.985,-3.761c1.553,-2.089 2.09,-4.985 1.612,-8.627c-0.507,-3.791 -1.791,-6.418 -3.88,-7.88c-2.09,-1.463 -8.388,-1.433 -8.388,-1.433c-0.418,-0 -1.135,0.06 -1.553,0.119l-23.044,3.015c-0.418,0.06 -0.806,0.448 -0.806,0.866l-0.209,3.343c-0.03,0.448 -0.388,0.836 -0.806,0.896l-0.985,0.119c-0.418,0.06 -0.806,-0.239 -0.866,-0.686l-1.791,-13.702c-0.06,-0.418 0.239,-0.806 0.657,-0.866l1.015,-0.119c0.418,-0.06 0.865,0.239 1.015,0.627l1.044,3.194c0.12,0.388 0.597,0.686 1.015,0.627l22.836,-3.015Zm-27.403,-35.552c0.03,-0.418 0.358,-0.955 0.717,-1.164l32.029,-19.105l-26.805,-1.97c-0.418,-0.03 -0.866,0.269 -0.986,0.687l-0.865,3.164c-0.12,0.418 -0.567,0.716 -0.985,0.686l-1.015,-0.059c-0.418,-0.03 -0.746,-0.418 -0.717,-0.836l0.985,-13.164c0.03,-0.418 0.418,-0.747 0.836,-0.717l1.015,0.09c0.418,0.03 0.806,0.418 0.866,0.836l0.388,3.343c0.06,0.418 0.448,0.806 0.866,0.836l37.97,2.865c0.417,0.03 0.746,0.418 0.716,0.836l-0.299,3.732c-0.029,0.417 -0.358,0.955 -0.716,1.164l-37.015,21.701l31.194,2.358c0.418,0.03 0.866,-0.268 0.985,-0.686l0.866,-3.164c0.119,-0.418 0.537,-0.717 0.985,-0.687l1.015,0.06c0.418,0.03 0.746,0.388 0.716,0.836l-1.015,13.194c-0.029,0.417 -0.418,0.746 -0.835,0.716l-1.015,-0.09c-0.418,-0.029 -0.806,-0.417 -0.866,-0.835l-0.388,-3.314c-0.06,-0.418 -0.448,-0.806 -0.866,-0.836l-34.119,-2.597c-0.418,-0.029 -0.866,0.269 -0.985,0.687l-0.866,3.224c-0.119,0.418 -0.537,0.716 -0.985,0.686l-1.015,-0.059c-0.418,-0.03 -0.746,-0.418 -0.716,-0.836l0.925,-11.582Zm13.164,-71.104c0.418,0.119 0.747,0.537 0.717,0.955l-0.179,3.283c-0.03,0.418 0.298,0.866 0.716,0.985l33.224,8.299c0.418,0.119 0.895,-0.119 1.074,-0.508l1.374,-2.985c0.179,-0.388 0.656,-0.626 1.074,-0.507l0.985,0.239c0.418,0.119 0.687,0.537 0.567,0.955l-3.731,14.955c-0.119,0.418 -0.537,0.657 -0.925,0.567l-0.985,-0.238c-0.418,-0.09 -0.747,-0.538 -0.717,-0.956l0.179,-3.283c0.03,-0.418 -0.298,-0.866 -0.716,-0.955l-33.224,-8.299c-0.418,-0.119 -0.895,0.119 -1.074,0.507l-1.403,2.986c-0.18,0.388 -0.657,0.626 -1.075,0.507l-0.985,-0.269c-0.418,-0.089 -0.657,-0.507 -0.567,-0.925l3.731,-14.955c0.119,-0.418 0.537,-0.657 0.955,-0.567l0.985,0.209Zm52.06,-25.194c0.298,0.298 0.418,0.865 0.239,1.253l-1.791,4.239c-0.18,0.388 -0.657,0.687 -1.075,0.657l-40.328,-2.716c-0.418,-0.03 -0.985,0.238 -1.224,0.567l-1.493,2.03c-0.268,0.358 -0.776,0.507 -1.164,0.328l-0.925,-0.388c-0.388,-0.149 -0.567,-0.627 -0.418,-1.015l5.522,-12.985c0.179,-0.388 0.627,-0.567 1.015,-0.418l0.926,0.388c0.388,0.149 0.656,0.657 0.567,1.075l-0.478,2.597c-0.06,0.418 0.209,0.776 0.627,0.835l32.388,2.508l-23.791,-22.746c-0.299,-0.299 -0.746,-0.239 -1.015,0.119l-1.791,2.627c-0.239,0.358 -0.746,0.507 -1.164,0.358l-0.926,-0.388c-0.388,-0.179 -0.567,-0.627 -0.417,-1.015l4.985,-11.701c0.179,-0.388 0.626,-0.567 1.015,-0.418l0.925,0.388c0.388,0.179 0.657,0.657 0.567,1.075l-0.627,3.044c-0.089,0.418 0.09,1.015 0.388,1.284l29.463,28.418Zm80.985,-110.627c0.985,-0.268 1.97,-0.627 3.014,-1.134c1.045,-0.478 1.911,-0.985 2.568,-1.463c2.328,-1.731 3.761,-3.552 4.328,-5.522c0.567,-1.97 0.149,-3.881 -1.224,-5.761c-0.806,-1.105 -1.761,-1.881 -2.836,-2.299c-1.074,-0.418 -2.209,-0.627 -3.403,-0.656c-1.194,-0.03 -2.447,0.089 -3.731,0.328c-1.284,0.239 -2.567,0.448 -3.851,0.657c-1.94,0.268 -3.671,0.477 -5.253,0.686c-1.583,0.209 -3.015,0.239 -4.299,0.06c-1.313,-0.149 -2.507,-0.537 -3.612,-1.164c-1.104,-0.627 -2.149,-1.612 -3.134,-2.955c-1.075,-1.463 -1.732,-3.015 -1.94,-4.597c-0.209,-1.583 -0.03,-3.194 0.507,-4.777c0.567,-1.612 1.493,-3.194 2.776,-4.746c1.314,-1.552 2.925,-3.045 4.836,-4.477c0.716,-0.538 1.522,-1.075 2.448,-1.583c0.895,-0.537 1.821,-1.014 2.776,-1.492c0.955,-0.448 1.88,-0.896 2.806,-1.284c0.925,-0.388 1.791,-0.656 1.791,-0.656c0.418,-0.12 0.836,-0.15 0.925,-0.06c0.12,0.09 0.358,0.478 0.567,0.836l3.254,5.701c0.209,0.388 0.09,0.896 -0.239,1.135l-2.149,1.582c-0.328,0.238 -0.896,0.238 -1.224,-0.03l-3.97,-3.343c-0.687,-0 -1.522,0.208 -2.478,0.567c-0.955,0.358 -1.97,0.955 -3.074,1.791c-2,1.492 -3.224,3.104 -3.732,4.925c-0.477,1.791 -0.119,3.522 1.075,5.164c0.776,1.045 1.612,1.761 2.507,2.179c0.896,0.388 1.851,0.597 2.866,0.597c1.015,0 2.09,-0.089 3.164,-0.328c1.105,-0.239 2.239,-0.448 3.403,-0.657c1.612,-0.209 3.284,-0.477 5.045,-0.806c1.731,-0.298 3.433,-0.418 5.104,-0.358c1.642,0.06 3.194,0.418 4.657,1.015c1.463,0.597 2.687,1.672 3.761,3.224c1.344,2 2.09,3.91 2.269,5.731c0.179,1.821 -0.06,3.552 -0.746,5.224c-0.657,1.642 -1.732,3.254 -3.194,4.806c-1.463,1.552 -3.194,3.045 -5.135,4.478c-1.761,1.313 -3.612,2.418 -5.552,3.373c-1.94,0.955 -4.448,1.97 -4.448,1.97c-0.388,0.149 -0.806,0.209 -0.895,0.119c-0.09,-0.089 -0.358,-0.477 -0.567,-0.836l-3.284,-5.671c-0.209,-0.388 -0.119,-0.896 0.239,-1.134l2.149,-1.583c0.329,-0.268 0.896,-0.238 1.224,0.03l3.911,3.194Zm30.686,-63.134c0.209,0.388 0.09,0.896 -0.239,1.194l-2.567,2.06c-0.328,0.269 -0.448,0.806 -0.239,1.164l16.209,30.179c0.209,0.388 0.717,0.567 1.105,0.448l3.134,-0.985c0.418,-0.12 0.895,0.06 1.104,0.448l0.478,0.895c0.209,0.388 0.06,0.836 -0.328,1.045l-13.582,7.283c-0.388,0.209 -0.836,0.06 -1.045,-0.328l-0.478,-0.895c-0.209,-0.359 -0.089,-0.896 0.239,-1.165l2.537,-2.089c0.329,-0.269 0.448,-0.776 0.239,-1.164l-16.209,-30.149c-0.209,-0.389 -0.686,-0.597 -1.104,-0.448l-3.135,0.985c-0.417,0.119 -0.895,-0.09 -1.104,-0.448l-0.478,-0.895c-0.209,-0.389 -0.059,-0.866 0.329,-1.045l13.582,-7.314c0.388,-0.209 0.865,-0.059 1.045,0.329l0.507,0.895Zm16.866,-9.85c0.089,-0.239 0.507,-0.568 0.895,-0.717l31.672,-11.522c0.418,-0.149 0.895,-0.209 1.104,-0.149c0.209,0.059 0.508,0.447 0.657,0.835l2.716,6.776c0.149,0.389 -0.03,0.836 -0.448,0.986l-2.537,0.925c-0.418,0.149 -0.925,-0.03 -1.164,-0.388l-2.239,-3.314c-0.239,-0.358 -0.776,-0.537 -1.164,-0.417l-3.313,0.985c-0.418,0.119 -1.075,0.328 -1.463,0.477l-3.224,1.164l11.881,32.746c0.149,0.389 0.626,0.687 1.044,0.598l3.254,-0.508c0.418,-0.06 0.896,0.209 1.045,0.597l0.358,0.955c0.149,0.418 -0.06,0.836 -0.478,0.985l-14.477,5.254c-0.418,0.149 -0.866,-0.06 -0.985,-0.478l-0.358,-0.955c-0.15,-0.388 0.029,-0.895 0.388,-1.104l2.835,-1.702c0.359,-0.209 0.538,-0.716 0.389,-1.134l-11.911,-32.746l-3.224,1.194c-0.418,0.149 -1.044,0.418 -1.462,0.567l-3.165,1.373c-0.388,0.179 -0.686,0.657 -0.626,1.075l0.417,3.97c0.06,0.418 -0.238,0.895 -0.656,1.045l-2.538,0.925c-0.417,0.149 -0.835,-0.06 -0.985,-0.478l-2.179,-6.716c-0.119,-0.298 -0.149,-0.836 -0.059,-1.104Zm77.551,4.477l-14.149,2.687l-2.179,12.955c-0.059,0.418 0.209,0.776 0.657,0.776l2.925,0.06c0.418,-0 0.836,0.358 0.926,0.776l0.179,0.985c0.059,0.418 -0.209,0.836 -0.627,0.895l-12.388,2.329c-0.418,0.059 -0.836,-0.209 -0.896,-0.627l-0.179,-0.985c-0.089,-0.418 0.179,-0.896 0.567,-1.075l2.538,-1.074c0.388,-0.18 0.776,-0.657 0.865,-1.075l7.821,-40.716c0.09,-0.418 0.508,-0.836 0.896,-0.926l5.433,-1.015c0.417,-0.059 0.925,0.15 1.134,0.538l20.149,35.403c0.209,0.358 0.746,0.686 1.164,0.686l2.687,0.09c0.448,-0 0.836,0.358 0.925,0.776l0.179,0.985c0.09,0.418 -0.209,0.836 -0.627,0.895l-14.179,2.687c-0.418,0.06 -0.835,-0.209 -0.925,-0.627l-0.179,-0.985c-0.09,-0.418 0.179,-0.896 0.567,-1.075l2.537,-1.074c0.388,-0.15 0.538,-0.597 0.359,-0.985l-6.18,-11.284Zm-10.298,-18.627l-3.254,18l11.941,-2.239l-8.687,-15.761Zm49.492,27.344c0.926,0.358 1.97,0.656 3.105,0.865c1.134,0.209 2.119,0.329 2.925,0.329c2.896,-0 5.134,-0.627 6.776,-1.881c1.612,-1.254 2.418,-3.015 2.418,-5.343c0,-1.373 -0.328,-2.567 -0.925,-3.523c-0.627,-0.985 -1.403,-1.821 -2.358,-2.567c-0.956,-0.746 -2.03,-1.373 -3.224,-1.94c-1.164,-0.567 -2.358,-1.164 -3.493,-1.761c-1.701,-0.926 -3.254,-1.761 -4.656,-2.538c-1.374,-0.776 -2.568,-1.582 -3.523,-2.477c-0.955,-0.896 -1.701,-1.911 -2.209,-3.075c-0.507,-1.164 -0.776,-2.567 -0.776,-4.239c0,-1.82 0.388,-3.462 1.134,-4.865c0.777,-1.403 1.851,-2.597 3.254,-3.552c1.403,-0.956 3.075,-1.702 5.045,-2.18c1.97,-0.507 4.149,-0.746 6.567,-0.776c0.896,0 1.851,0.06 2.896,0.179c1.044,0.12 2.089,0.269 3.104,0.448c1.045,0.179 2.06,0.388 3.015,0.627c0.985,0.239 1.821,0.537 1.821,0.537c0.388,0.15 0.776,0.359 0.806,0.478c0.03,0.149 0.03,0.597 -0.03,1.015l-0.776,6.507c-0.06,0.418 -0.448,0.776 -0.866,0.776l-2.657,0c-0.417,0 -0.865,-0.328 -0.955,-0.746l-1.254,-5.045c-0.567,-0.418 -1.343,-0.746 -2.328,-0.985c-0.985,-0.268 -2.149,-0.388 -3.552,-0.388c-2.478,0 -4.448,0.597 -5.911,1.761c-1.462,1.165 -2.179,2.777 -2.179,4.806c0,1.314 0.269,2.388 0.747,3.224c0.477,0.836 1.134,1.582 1.97,2.179c0.806,0.597 1.731,1.135 2.746,1.612c1.015,0.478 2.06,0.956 3.134,1.493c1.433,0.776 2.926,1.552 4.538,2.328c1.582,0.776 3.015,1.702 4.298,2.717c1.284,1.044 2.328,2.209 3.164,3.552c0.806,1.343 1.194,2.955 1.105,4.806c-0.12,2.418 -0.627,4.388 -1.552,5.97c-0.926,1.582 -2.15,2.836 -3.672,3.761c-1.522,0.955 -3.343,1.612 -5.433,1.97c-2.089,0.388 -4.358,0.567 -6.806,0.567c-2.209,0 -4.358,-0.179 -6.477,-0.537c-2.12,-0.388 -4.747,-1.045 -4.747,-1.045c-0.418,-0.119 -0.776,-0.298 -0.776,-0.447c-0.03,-0.12 0,-0.597 0.06,-1.015l0.716,-6.508c0.06,-0.418 0.448,-0.776 0.866,-0.776l2.657,0c0.418,0 0.865,0.328 0.955,0.746l1.313,4.956Zm110.627,17.313c-4.657,2.507 -10.149,2.716 -16.508,0.657c-3.074,-0.985 -5.641,-2.329 -7.761,-4c-2.119,-1.672 -3.701,-3.642 -4.806,-5.911c-1.104,-2.268 -1.671,-4.836 -1.701,-7.701c-0.03,-2.866 0.507,-5.97 1.582,-9.344c1.134,-3.522 2.597,-6.477 4.418,-8.835c1.791,-2.358 3.85,-4.15 6.149,-5.403c2.298,-1.224 4.836,-1.911 7.582,-2c2.746,-0.12 5.642,0.328 8.657,1.283c3.015,0.985 5.582,2.299 7.731,3.97c2.119,1.672 3.761,3.672 4.866,5.971c1.104,2.298 1.701,4.895 1.731,7.791c0.06,2.865 -0.478,6.029 -1.582,9.432c-2.269,6.926 -5.702,11.612 -10.358,14.09Zm3.821,-30.746c-1.135,-3.582 -3.612,-5.97 -7.433,-7.224c-3.881,-1.254 -7.314,-0.806 -10.328,1.343c-2.986,2.149 -5.493,6.239 -7.433,12.299c-2,6.119 -2.418,10.955 -1.314,14.537c1.105,3.582 3.612,5.97 7.463,7.224c3.881,1.253 7.313,0.806 10.328,-1.344c3.015,-2.149 5.493,-6.238 7.433,-12.298c2,-6.119 2.418,-10.955 1.284,-14.537Zm21.253,43.313c0.657,0.776 1.403,1.522 2.299,2.269c0.895,0.746 1.701,1.313 2.418,1.701c2.537,1.373 4.806,1.911 6.835,1.582c2.03,-0.298 3.583,-1.492 4.687,-3.522c0.657,-1.224 0.955,-2.388 0.896,-3.552c-0.06,-1.135 -0.359,-2.269 -0.836,-3.374c-0.508,-1.104 -1.105,-2.179 -1.881,-3.223c-0.776,-1.075 -1.492,-2.12 -2.209,-3.224c-1.045,-1.642 -2,-3.135 -2.836,-4.478c-0.835,-1.343 -1.462,-2.627 -1.88,-3.88c-0.418,-1.254 -0.567,-2.478 -0.448,-3.762c0.119,-1.253 0.567,-2.626 1.343,-4.089c0.866,-1.612 2,-2.866 3.344,-3.702c1.343,-0.865 2.865,-1.403 4.567,-1.552c1.701,-0.179 3.522,0 5.492,0.508c1.97,0.507 4,1.343 6.12,2.477c0.776,0.418 1.612,0.926 2.447,1.552c0.866,0.597 1.702,1.224 2.508,1.881c0.836,0.657 1.612,1.343 2.358,2c0.746,0.687 1.343,1.343 1.343,1.343c0.299,0.329 0.508,0.687 0.448,0.806c-0.03,0.12 -0.269,0.538 -0.507,0.866l-3.791,5.343c-0.239,0.358 -0.777,0.478 -1.135,0.269l-2.328,-1.284c-0.388,-0.209 -0.597,-0.716 -0.478,-1.134l1.344,-5.015c-0.299,-0.627 -0.836,-1.284 -1.553,-2c-0.746,-0.686 -1.701,-1.373 -2.925,-2.03c-2.179,-1.164 -4.179,-1.612 -6.03,-1.283c-1.851,0.328 -3.254,1.373 -4.209,3.164c-0.627,1.134 -0.925,2.209 -0.895,3.194c0.03,0.985 0.238,1.94 0.656,2.865c0.418,0.926 0.985,1.821 1.642,2.747c0.687,0.895 1.343,1.821 2.03,2.806c0.866,1.343 1.821,2.776 2.836,4.209c1.015,1.462 1.851,2.955 2.477,4.477c0.627,1.523 0.985,3.075 1.045,4.627c0.06,1.582 -0.388,3.164 -1.343,4.776c-1.254,2.06 -2.657,3.552 -4.239,4.478c-1.582,0.925 -3.254,1.433 -5.045,1.522c-1.791,0.09 -3.701,-0.209 -5.701,-0.866c-2,-0.686 -4.09,-1.582 -6.239,-2.746c-1.94,-1.045 -3.731,-2.239 -5.403,-3.582c-1.671,-1.343 -3.671,-3.194 -3.671,-3.194c-0.329,-0.298 -0.538,-0.627 -0.478,-0.776c0.06,-0.119 0.298,-0.507 0.537,-0.866l3.761,-5.373c0.239,-0.328 0.747,-0.448 1.135,-0.268l2.328,1.253c0.388,0.209 0.597,0.717 0.478,1.135l-1.314,4.925Zm44.478,28.06c-0.269,0.328 -0.209,0.835 0.119,1.104l5.254,4.119c0.328,0.269 0.895,0.687 1.254,0.926l2.805,1.94c0.359,0.239 0.926,0.209 1.254,-0.06l3.433,-2.776c0.328,-0.268 0.896,-0.268 1.224,0l2.149,1.672c0.328,0.269 0.388,0.746 0.12,1.075l-4.538,5.402c-0.268,0.329 -0.627,0.717 -0.776,0.836c-0.149,0.15 -0.567,0.03 -0.895,-0.238l-22.776,-17.851c-0.329,-0.269 -0.388,-0.746 -0.12,-1.105l0.627,-0.776c0.269,-0.328 0.806,-0.448 1.164,-0.268l2.926,1.492c0.388,0.209 0.895,0.09 1.164,-0.269l21.134,-26.925c0.269,-0.328 0.239,-0.865 -0.03,-1.194l-2.149,-2.477c-0.269,-0.329 -0.299,-0.866 -0.03,-1.194l0.627,-0.777c0.269,-0.328 0.746,-0.417 1.104,-0.149l12.09,9.463c0.328,0.268 0.388,0.746 0.149,1.104l-0.627,0.806c-0.268,0.329 -0.776,0.448 -1.164,0.269l-2.925,-1.493c-0.388,-0.209 -0.926,-0.089 -1.164,0.269l-21.403,27.075Zm50.567,47.97c-5.284,-0.239 -10.12,-2.836 -14.538,-7.851c-2.119,-2.418 -3.671,-4.866 -4.626,-7.373c-0.956,-2.508 -1.344,-5.015 -1.135,-7.553c0.209,-2.537 1.045,-5.014 2.448,-7.492c1.433,-2.478 3.463,-4.896 6.119,-7.224c2.776,-2.448 5.553,-4.239 8.299,-5.373c2.746,-1.134 5.433,-1.642 8.03,-1.522c2.597,0.119 5.104,0.835 7.552,2.149c2.418,1.313 4.686,3.134 6.776,5.522c2.089,2.388 3.642,4.836 4.627,7.344c0.985,2.537 1.343,5.074 1.134,7.611c-0.209,2.568 -1.045,5.075 -2.478,7.582c-1.432,2.508 -3.492,4.926 -6.179,7.314c-5.403,4.806 -10.776,7.074 -16.029,6.866Zm18.955,-24.508c0.865,-3.642 -0.06,-6.985 -2.717,-10c-2.686,-3.045 -5.88,-4.418 -9.552,-4.089c-3.671,0.328 -7.91,2.597 -12.656,6.776c-4.836,4.268 -7.672,8.209 -8.538,11.85c-0.865,3.642 0.03,6.985 2.746,10.03c2.687,3.045 5.881,4.418 9.553,4.09c3.671,-0.329 7.91,-2.567 12.656,-6.776c4.836,-4.299 7.672,-8.239 8.508,-11.881Zm17.492,51.343c0.329,-0.268 0.418,-0.806 0.209,-1.164l-4.627,-7.881l-15.253,9.194l4.985,8.388c0.209,0.359 0.597,0.956 0.836,1.314l1.91,2.806c0.239,0.358 0.776,0.537 1.164,0.418l4.179,-1.373c0.388,-0.12 0.926,0.059 1.135,0.418l1.432,2.388c0.209,0.358 0.09,0.835 -0.298,1.044l-6.179,3.403c-0.388,0.209 -0.836,0.418 -1.015,0.508c-0.179,0.06 -0.537,-0.179 -0.746,-0.537l-16.03,-26.985c-0.209,-0.359 -0.09,-0.836 0.269,-1.075l0.865,-0.508c0.358,-0.208 0.896,-0.149 1.194,0.18l2.179,2.477c0.269,0.329 0.806,0.388 1.194,0.179l29.433,-17.492c0.358,-0.209 0.537,-0.717 0.418,-1.135l-1.105,-3.104c-0.149,-0.418 0.03,-0.895 0.418,-1.134l0.866,-0.508c0.358,-0.209 0.836,-0.089 1.075,0.269l15.283,25.731c0.209,0.358 0.388,0.836 0.358,1.075c-0.029,0.209 -0.328,0.597 -0.686,0.836l-6.149,3.94c-0.359,0.239 -0.836,0.119 -1.045,-0.239l-1.403,-2.328c-0.209,-0.359 -0.149,-0.896 0.179,-1.194l3.343,-3.135c0.299,-0.298 0.418,-0.835 0.209,-1.224l-1.582,-3.074c-0.179,-0.388 -0.537,-0.985 -0.746,-1.343l-4.508,-7.612l-13.492,8.059l4.657,7.851c0.209,0.358 0.716,0.537 1.134,0.388l3.075,-1.164c0.388,-0.149 0.895,0.03 1.134,0.418l1.164,1.97c0.209,0.388 0.09,0.836 -0.269,1.075l-9.94,5.91c-0.358,0.209 -0.836,0.09 -1.075,-0.269l-1.164,-1.97c-0.209,-0.358 -0.119,-0.895 0.209,-1.164l2.806,-2.627Zm-504.356,-18.239c-0.388,-0.179 -0.895,0 -1.134,0.359l-5.015,7.641l14.985,9.642l5.343,-8.179c0.239,-0.358 0.597,-0.955 0.806,-1.343l1.672,-2.955c0.209,-0.388 0.149,-0.926 -0.149,-1.224l-3.075,-3.135c-0.299,-0.298 -0.358,-0.835 -0.119,-1.194l1.522,-2.328c0.239,-0.358 0.716,-0.448 1.075,-0.209l5.791,4.06c0.358,0.239 0.746,0.567 0.895,0.686c0.149,0.15 0.09,0.538 -0.149,0.896l-17.134,26.298c-0.239,0.359 -0.717,0.448 -1.075,0.209l-0.836,-0.537c-0.358,-0.239 -0.507,-0.746 -0.358,-1.134l1.254,-3.045c0.149,-0.388 -0,-0.896 -0.359,-1.134l-28.686,-18.687c-0.358,-0.239 -0.895,-0.179 -1.194,0.149l-2.298,2.358c-0.299,0.299 -0.836,0.359 -1.195,0.12l-0.835,-0.537c-0.359,-0.239 -0.448,-0.717 -0.239,-1.075l16.358,-25.075c0.239,-0.358 0.597,-0.716 0.806,-0.806c0.209,-0.089 0.687,0.03 1.045,0.269l6.268,3.791c0.359,0.209 0.478,0.687 0.239,1.045l-1.492,2.269c-0.239,0.358 -0.747,0.537 -1.165,0.388l-4.298,-1.582c-0.388,-0.15 -0.925,-0 -1.194,0.358l-2.06,2.776c-0.268,0.358 -0.656,0.925 -0.895,1.283l-4.866,7.403l13.194,8.568l4.985,-7.642c0.239,-0.358 0.179,-0.896 -0.149,-1.164l-2.388,-2.269c-0.299,-0.299 -0.358,-0.836 -0.149,-1.194l1.253,-1.911c0.239,-0.358 0.717,-0.477 1.075,-0.238l9.701,6.328c0.359,0.239 0.478,0.716 0.239,1.075l-1.254,1.94c-0.238,0.358 -0.746,0.507 -1.134,0.328l-3.612,-1.642Zm545.401,51.881c0.149,0.388 0.06,1.015 -0.209,1.373l-21.851,30.269l25.433,-8.866c0.388,-0.149 0.687,-0.597 0.627,-1.015l-0.478,-3.254c-0.059,-0.418 0.209,-0.895 0.627,-1.015l0.955,-0.328c0.418,-0.149 0.866,0.09 0.985,0.478l4.329,12.477c0.149,0.418 -0.09,0.866 -0.478,0.985l-0.955,0.329c-0.388,0.149 -0.896,-0.03 -1.134,-0.418l-1.672,-2.926c-0.209,-0.358 -0.717,-0.567 -1.134,-0.418l-36,12.448c-0.418,0.149 -0.836,-0.089 -0.985,-0.478l-1.224,-3.552c-0.149,-0.418 -0.06,-1.015 0.209,-1.373l25.343,-34.656l-29.582,10.238c-0.418,0.15 -0.687,0.597 -0.627,1.015l0.478,3.254c0.059,0.418 -0.209,0.895 -0.627,1.015l-0.955,0.328c-0.418,0.149 -0.866,-0.059 -0.985,-0.477l-4.329,-12.478c-0.149,-0.388 0.06,-0.866 0.478,-0.985l0.955,-0.328c0.388,-0.15 0.896,0.03 1.105,0.418l1.671,2.895c0.209,0.358 0.717,0.567 1.134,0.418l32.359,-11.194c0.417,-0.149 0.686,-0.597 0.626,-1.015l-0.477,-3.313c-0.06,-0.418 0.209,-0.896 0.627,-1.015l0.955,-0.329c0.418,-0.119 0.836,0.09 0.985,0.478l3.821,11.015Zm-22.448,65.462c-0.239,0.955 -0.358,2.03 -0.418,3.194c-0.059,1.164 -0.03,2.15 0.09,2.955c0.418,2.836 1.343,4.986 2.806,6.418c1.462,1.433 3.343,2 5.642,1.672c1.373,-0.209 2.477,-0.657 3.373,-1.433c0.865,-0.746 1.612,-1.642 2.209,-2.686c0.597,-1.045 1.074,-2.209 1.462,-3.463c0.388,-1.254 0.806,-2.478 1.254,-3.702c0.687,-1.82 1.313,-3.492 1.881,-4.955c0.567,-1.492 1.223,-2.746 1.97,-3.85c0.746,-1.075 1.671,-1.941 2.746,-2.597c1.075,-0.657 2.448,-1.105 4.09,-1.344c1.82,-0.268 3.462,-0.119 4.955,0.448c1.492,0.567 2.836,1.463 3.97,2.716c1.134,1.254 2.089,2.806 2.866,4.717c0.776,1.88 1.313,4.03 1.671,6.388c0.12,0.895 0.209,1.851 0.239,2.866c0.03,1.044 0.03,2.089 -0,3.134c-0.03,1.045 -0.119,2.089 -0.209,3.074c-0.119,1.015 -0.269,1.881 -0.269,1.881c-0.089,0.418 -0.238,0.806 -0.388,0.866c-0.119,0.059 -0.597,0.119 -1.015,0.119l-6.567,0.149c-0.418,0 -0.836,-0.328 -0.895,-0.746l-0.388,-2.627c-0.06,-0.418 0.209,-0.895 0.627,-1.074l4.805,-1.911c0.329,-0.627 0.538,-1.433 0.657,-2.418c0.12,-1.015 0.09,-2.179 -0.119,-3.582c-0.358,-2.448 -1.194,-4.328 -2.567,-5.612c-1.374,-1.283 -3.045,-1.761 -5.045,-1.492c-1.284,0.179 -2.328,0.567 -3.105,1.194c-0.776,0.597 -1.403,1.343 -1.91,2.239c-0.478,0.895 -0.896,1.88 -1.224,2.955c-0.328,1.074 -0.657,2.179 -1.045,3.283c-0.567,1.523 -1.134,3.135 -1.671,4.806c-0.567,1.672 -1.254,3.224 -2.12,4.657c-0.836,1.403 -1.88,2.627 -3.074,3.612c-1.224,0.985 -2.747,1.582 -4.627,1.761c-2.388,0.239 -4.448,0 -6.12,-0.716c-1.671,-0.717 -3.104,-1.732 -4.238,-3.105c-1.135,-1.373 -2.06,-3.074 -2.717,-5.104c-0.656,-2 -1.164,-4.239 -1.522,-6.657c-0.299,-2.179 -0.418,-4.328 -0.358,-6.477c0.089,-2.15 0.388,-4.836 0.388,-4.836c0.059,-0.418 0.179,-0.806 0.328,-0.836c0.119,-0.03 0.597,-0.06 1.015,-0.09l6.567,-0.179c0.418,-0.03 0.836,0.329 0.896,0.747l0.388,2.626c0.059,0.418 -0.209,0.896 -0.597,1.075l-4.687,1.94Zm41.075,57.672c-0.418,-0 -0.836,-0.329 -0.926,-0.747l-0.656,-3.223c-0.09,-0.418 -0.508,-0.747 -0.926,-0.747l-34.238,0.15c-0.448,-0 -0.836,0.358 -0.926,0.776l-0.597,3.224c-0.089,0.417 -0.477,0.776 -0.925,0.776l-1.015,-0c-0.418,-0 -0.776,-0.359 -0.776,-0.776l-0.06,-15.403c0,-0.418 0.358,-0.777 0.776,-0.777l1.015,0c0.418,0 0.836,0.329 0.925,0.747l0.627,3.224c0.09,0.418 0.508,0.746 0.926,0.746l34.238,-0.149c0.418,-0 0.836,-0.359 0.926,-0.777l0.597,-3.223c0.089,-0.418 0.507,-0.776 0.925,-0.776l1.015,-0c0.448,-0 0.776,0.358 0.776,0.776l0.06,15.403c-0,0.417 -0.358,0.776 -0.776,0.776l-0.985,-0Zm-39.164,26.089c-0.508,0.866 -0.956,1.851 -1.344,2.925c-0.388,1.075 -0.656,2.03 -0.776,2.836c-0.448,2.836 -0.179,5.164 0.806,6.985c0.955,1.791 2.597,2.866 4.896,3.224c1.373,0.209 2.597,0.09 3.641,-0.358c1.045,-0.448 2.03,-1.104 2.896,-1.91c0.866,-0.836 1.672,-1.792 2.418,-2.866c0.746,-1.075 1.492,-2.12 2.298,-3.164c1.194,-1.523 2.269,-2.926 3.254,-4.179c0.985,-1.254 1.97,-2.269 3.015,-3.075c1.045,-0.806 2.149,-1.373 3.403,-1.701c1.224,-0.329 2.657,-0.359 4.298,-0.09c1.821,0.269 3.344,0.925 4.627,1.881c1.284,0.985 2.269,2.238 2.985,3.791c0.717,1.522 1.194,3.313 1.344,5.343c0.179,2.03 0.089,4.239 -0.299,6.597c-0.119,0.895 -0.358,1.821 -0.627,2.836c-0.268,1.015 -0.597,2 -0.925,2.985c-0.328,1.015 -0.717,1.94 -1.105,2.895c-0.388,0.926 -0.806,1.702 -0.806,1.702c-0.208,0.388 -0.477,0.686 -0.626,0.716c-0.15,0 -0.597,-0.089 -1.015,-0.179l-6.329,-1.791c-0.418,-0.119 -0.686,-0.567 -0.627,-0.985l0.418,-2.627c0.06,-0.418 0.478,-0.776 0.896,-0.836l5.164,-0.418c0.478,-0.507 0.925,-1.224 1.343,-2.119c0.418,-0.925 0.717,-2.06 0.956,-3.433c0.388,-2.448 0.119,-4.477 -0.806,-6.119c-0.926,-1.612 -2.388,-2.597 -4.388,-2.896c-1.284,-0.209 -2.388,-0.119 -3.314,0.209c-0.925,0.358 -1.761,0.866 -2.477,1.582c-0.717,0.717 -1.403,1.523 -2.03,2.448c-0.627,0.925 -1.284,1.881 -1.97,2.836c-0.986,1.283 -2,2.657 -3.015,4.089c-1.045,1.433 -2.15,2.717 -3.373,3.821c-1.224,1.105 -2.568,1.941 -4.03,2.538c-1.433,0.597 -3.105,0.716 -4.926,0.328c-2.358,-0.508 -4.238,-1.314 -5.641,-2.478c-1.403,-1.164 -2.448,-2.597 -3.135,-4.238c-0.686,-1.642 -1.045,-3.553 -1.074,-5.672c-0.03,-2.12 0.149,-4.388 0.507,-6.806c0.328,-2.179 0.866,-4.269 1.582,-6.299c0.717,-2.029 1.791,-4.507 1.791,-4.507c0.179,-0.388 0.418,-0.716 0.567,-0.716c0.12,-0 0.597,0.089 0.985,0.209l6.329,1.731c0.418,0.119 0.686,0.537 0.627,0.985l-0.418,2.627c-0.06,0.418 -0.478,0.806 -0.896,0.836l-5.074,0.507Zm-461.939,220.417c0.388,0.179 0.896,0.03 1.135,-0.328l17.611,-25.314l-32.805,18.597c-0.388,0.209 -0.956,0.15 -1.284,-0.119l-1.313,-1.075c-0.329,-0.268 -0.508,-0.836 -0.418,-1.253l9.492,-35.433l-19.91,21.701c-0.299,0.299 -0.358,0.836 -0.09,1.164l2,2.717c0.269,0.358 0.239,0.895 -0.059,1.194l-0.687,0.716c-0.298,0.299 -0.776,0.329 -1.104,0.03l-9.702,-9.045c-0.328,-0.298 -0.328,-0.776 -0.03,-1.104l0.687,-0.746c0.298,-0.299 0.836,-0.388 1.194,-0.15l2.806,1.762c0.358,0.209 0.895,0.149 1.194,-0.15l22.537,-25.014c0.299,-0.329 0.299,-0.836 0,-1.165l-2.119,-2.537c-0.269,-0.328 -0.269,-0.866 -0,-1.194l0.627,-0.776c0.268,-0.328 0.776,-0.388 1.104,-0.119l10.149,8.238c0.329,0.269 0.508,0.836 0.418,1.254l-8.089,31.194l27.791,-15.134c0.388,-0.209 0.955,-0.15 1.283,0.119l9.731,7.91c0.329,0.269 0.388,0.747 0.12,1.075l-0.627,0.776c-0.269,0.329 -0.806,0.448 -1.164,0.239l-2.926,-1.582c-0.388,-0.209 -0.895,-0.09 -1.164,0.239l-19.224,27.313c-0.238,0.358 -0.209,0.896 0.09,1.224l2.269,2.418c0.298,0.298 0.328,0.836 0.059,1.194l-0.597,0.806c-0.268,0.358 -0.746,0.418 -1.074,0.179l-12.508,-9.164c-0.328,-0.239 -0.418,-0.746 -0.179,-1.075l0.597,-0.806c0.239,-0.358 0.776,-0.477 1.164,-0.298l3.015,1.522Zm73.493,-2.179c3.014,1.522 5.641,3.254 7.91,5.194c2.239,1.91 3.94,4.09 5.075,6.478c1.134,2.388 1.641,5.044 1.522,7.94c-0.149,2.925 -1.105,6.119 -2.896,9.642c-1.671,3.283 -3.641,5.91 -5.91,7.85c-2.269,1.941 -4.716,3.254 -7.373,3.911c-2.657,0.656 -5.463,0.716 -8.448,0.179c-2.985,-0.537 -8.507,-2.896 -8.507,-2.896c-0.388,-0.179 -1.015,-0.447 -1.403,-0.656l-14.806,-7.582c-0.388,-0.18 -0.537,-0.657 -0.329,-1.045l0.448,-0.896c0.179,-0.388 0.687,-0.597 1.105,-0.477l3.194,0.925c0.418,0.119 0.895,-0.09 1.104,-0.478l15.552,-30.388c0.209,-0.388 0.09,-0.895 -0.268,-1.164l-2.597,-2.03c-0.329,-0.268 -0.448,-0.776 -0.269,-1.164l0.448,-0.895c0.209,-0.388 0.657,-0.538 1.045,-0.329l15.403,7.881Zm6.955,18.03c0.418,-2.358 0.358,-4.508 -0.15,-6.418c-0.537,-1.911 -1.552,-3.642 -3.014,-5.134c-1.493,-1.523 -5.165,-3.702 -5.165,-3.702c-0.358,-0.239 -0.985,-0.567 -1.373,-0.746l-3.88,-2l-16.508,32.268l3.702,1.911c1.791,0.895 3.522,1.642 5.164,2.209c1.672,0.537 3.254,0.806 4.806,0.776c2.448,-0.209 4.836,-1.164 7.194,-2.866c2.358,-1.731 4.507,-4.507 6.448,-8.328c1.432,-2.955 2.358,-5.612 2.776,-7.97Zm66.059,12.03c-0.089,-1.433 -0.06,-1.672 -0.089,-2.687c-0.06,-1.254 -0.448,-1.702 -1.702,-2.507c-0.507,-0.299 -1.045,-0.568 -1.612,-0.806c-0.925,-0.418 -1.97,-0.747 -3.134,-0.956c-2.12,-0.388 -4.12,-0.358 -6,0.06c-1.881,0.418 -3.552,1.254 -5.045,2.507c-1.492,1.254 -2.776,2.926 -3.851,5.015c-1.074,2.09 -1.85,4.627 -2.388,7.523c-1.134,6.209 -0.686,11.015 1.314,14.477c2,3.463 5.492,5.642 10.418,6.538c1.432,0.268 3.015,0.358 4.716,0.298c1.463,-0.06 3.104,-0.269 5.015,-0.507c0.985,-0.12 1.075,0.597 1.075,0.597l0.119,0.776c-0,-0 0.09,0.895 -0.657,1.194c-1.671,0.627 -3.582,1.074 -5.701,1.373c-2.478,0.328 -5.164,0.239 -8.12,-0.299c-2.806,-0.507 -5.373,-1.373 -7.701,-2.567c-2.328,-1.224 -4.209,-2.806 -5.731,-4.836c-1.493,-2 -2.538,-4.447 -3.105,-7.313c-0.567,-2.866 -0.477,-6.209 0.209,-10.06c0.717,-3.88 1.881,-7.104 3.522,-9.701c1.642,-2.567 3.642,-4.597 6,-6.06c2.329,-1.462 4.956,-2.358 7.881,-2.746c2.925,-0.388 6,-0.269 9.254,0.328c2.209,0.418 4.239,0.985 6.089,1.762c1.284,0.537 2.508,1.074 3.642,1.641c1.582,0.776 1.164,2.12 1.164,2.12l-1.701,5.612c-0,-0 -0.418,1.224 -1.493,1.044c-0.955,-0.179 -1.552,-0.268 -1.552,-0.268c-0,-0 -0.746,-0.12 -0.836,-1.552Zm65.045,1.462c-0.418,-1.373 -0.448,-1.612 -0.717,-2.597c-0.358,-1.194 -0.865,-1.552 -2.268,-2.03c-0.538,-0.179 -1.135,-0.328 -1.762,-0.418c-0.985,-0.179 -2.089,-0.238 -3.253,-0.179c-2.179,0.12 -4.09,0.627 -5.821,1.463c-1.702,0.866 -3.135,2.06 -4.299,3.642c-1.164,1.582 -2,3.522 -2.537,5.791c-0.537,2.298 -0.716,4.925 -0.537,7.88c0.358,6.269 1.94,10.866 4.716,13.762c2.776,2.865 6.657,4.179 11.672,3.88c1.462,-0.089 3.015,-0.358 4.656,-0.836c1.403,-0.388 2.956,-0.985 4.747,-1.671c0.925,-0.359 1.194,0.328 1.194,0.328l0.268,0.716c0,0 0.299,0.836 -0.358,1.314c-1.463,1.015 -3.224,1.88 -5.224,2.686c-2.328,0.896 -4.955,1.463 -7.94,1.642c-2.866,0.179 -5.552,-0.06 -8.09,-0.686c-2.537,-0.627 -4.776,-1.732 -6.716,-3.314c-1.94,-1.582 -3.522,-3.731 -4.746,-6.358c-1.224,-2.657 -1.94,-5.94 -2.179,-9.821c-0.239,-3.94 0.149,-7.343 1.134,-10.239c0.985,-2.895 2.448,-5.343 4.388,-7.313c1.94,-1.97 4.269,-3.463 7.015,-4.537c2.746,-1.045 5.761,-1.702 9.075,-1.881c2.238,-0.149 4.358,-0.06 6.328,0.269c1.373,0.209 2.686,0.448 3.94,0.716c1.732,0.388 1.642,1.791 1.642,1.791l-0.328,5.851c-0,-0 -0.09,1.284 -1.194,1.373c-0.985,0.06 -1.553,0.09 -1.553,0.09c0,-0 -0.806,0.029 -1.253,-1.314Zm63.462,-13.403c-0.716,-1.253 -0.776,-1.492 -1.254,-2.388c-0.597,-1.104 -1.164,-1.343 -2.627,-1.522c-0.567,-0.09 -1.194,-0.06 -1.82,-0.06c-1.015,0.03 -2.09,0.209 -3.224,0.508c-2.09,0.567 -3.881,1.462 -5.373,2.656c-1.493,1.194 -2.627,2.657 -3.433,4.448c-0.806,1.791 -1.224,3.851 -1.254,6.209c-0.06,2.358 0.328,4.955 1.105,7.821c1.671,6.06 4.179,10.209 7.492,12.448c3.313,2.238 7.403,2.686 12.239,1.343c1.403,-0.388 2.865,-0.985 4.358,-1.761c1.284,-0.687 2.687,-1.582 4.298,-2.627c0.836,-0.538 1.254,0.06 1.254,0.06l0.418,0.656c0,0 0.478,0.746 -0.06,1.343c-1.223,1.284 -2.746,2.508 -4.537,3.702c-2.089,1.403 -4.537,2.478 -7.433,3.284c-2.746,0.746 -5.433,1.104 -8.03,1.014c-2.597,-0.089 -5.014,-0.686 -7.253,-1.82c-2.239,-1.165 -4.209,-2.896 -5.97,-5.224c-1.762,-2.329 -3.165,-5.403 -4.179,-9.135c-1.045,-3.791 -1.403,-7.223 -1.045,-10.268c0.358,-3.045 1.283,-5.732 2.746,-8.06c1.463,-2.328 3.433,-4.298 5.91,-5.91c2.448,-1.582 5.284,-2.836 8.478,-3.732c2.149,-0.597 4.239,-0.955 6.239,-1.074c1.403,-0.09 2.746,-0.12 4,-0.12c1.761,0 1.97,1.403 1.97,1.403l0.925,5.791c0,0 0.179,1.284 -0.895,1.582c-0.955,0.269 -1.523,0.418 -1.523,0.418c0,0 -0.835,0.269 -1.522,-0.985Zm52.806,-10.358l-18.836,-8.537c-0.388,-0.179 -1.045,-0.209 -1.463,-0.09l-2.835,0.866c-0.418,0.119 -0.926,-0.06 -1.135,-0.448l-0.507,-0.865c-0.209,-0.389 -0.09,-0.836 0.298,-1.075l13.552,-7.702c0.359,-0.208 0.836,-0.089 1.075,0.269l0.508,0.896c0.208,0.358 0.119,0.895 -0.18,1.194l-1.671,1.552c-0.329,0.298 -0.269,0.686 0.119,0.866l13.433,6.388l1.642,-14.985c0.059,-0.418 -0.239,-0.687 -0.657,-0.538l-2.358,0.747c-0.418,0.119 -0.926,-0.06 -1.134,-0.448l-0.508,-0.866c-0.209,-0.388 -0.089,-0.866 0.299,-1.075l10.746,-6.119c0.358,-0.209 0.836,-0.089 1.045,0.299l0.507,0.865c0.209,0.358 0.119,0.896 -0.209,1.194l-2.448,2.15c-0.328,0.268 -0.627,0.865 -0.656,1.283l-2.09,19.075l20.866,9.701c0.388,0.179 1.044,0.209 1.462,0.09l2.896,-0.896c0.418,-0.119 0.925,0.06 1.134,0.448l0.508,0.866c0.209,0.358 0.089,0.835 -0.299,1.044l-13.612,7.762c-0.388,0.208 -0.836,0.089 -1.045,-0.299l-0.507,-0.866c-0.209,-0.388 -0.119,-0.925 0.209,-1.194l1.821,-1.641c0.328,-0.299 0.268,-0.687 -0.12,-0.866l-15.671,-7.522l-1.911,17.552c-0.059,0.418 0.239,0.656 0.657,0.537l2.239,-0.687c0.418,-0.119 0.925,0.06 1.134,0.448l0.508,0.866c0.209,0.358 0.089,0.836 -0.299,1.045l-10.806,6.149c-0.358,0.209 -0.836,0.089 -1.044,-0.299l-0.508,-0.865c-0.209,-0.388 -0.119,-0.896 0.209,-1.194l2.448,-2.15c0.328,-0.268 0.627,-0.865 0.686,-1.283l2.508,-21.642Zm46.686,-57.283c0.269,0.328 0.299,0.865 0.03,1.194l-2.03,2.627c-0.269,0.328 -0.239,0.895 0.03,1.194l22.597,25.612c0.269,0.328 0.806,0.417 1.194,0.179l2.836,-1.672c0.358,-0.209 0.895,-0.149 1.194,0.179l0.656,0.746c0.269,0.329 0.239,0.806 -0.059,1.105l-11.612,10.239c-0.328,0.268 -0.806,0.268 -1.105,-0.06l-0.656,-0.746c-0.299,-0.329 -0.299,-0.866 -0.03,-1.194l2.03,-2.627c0.268,-0.329 0.239,-0.866 -0.03,-1.194l-22.597,-25.612c-0.269,-0.328 -0.806,-0.418 -1.194,-0.179l-2.836,1.671c-0.388,0.209 -0.895,0.12 -1.194,-0.179l-0.657,-0.746c-0.268,-0.328 -0.238,-0.806 0.06,-1.104l11.612,-10.239c0.328,-0.299 0.806,-0.239 1.104,0.06l0.657,0.746Zm-385.073,-401.222c0.418,0.059 1.015,-0.12 1.284,-0.418l6.447,-6.776c0.299,-0.329 0.269,-0.806 -0.029,-1.105l-0.717,-0.686c-0.328,-0.299 -0.865,-0.329 -1.194,-0.09l-2.448,1.702c-0.358,0.238 -0.985,0.388 -1.403,0.328l-19.283,-3.134c-0.418,-0.06 -0.627,-0.448 -0.448,-0.836c0,-0 2.358,-5.075 2.269,-7.732c-0.09,-2.656 -1.284,-5.044 -3.552,-7.223c-1.612,-1.553 -3.254,-2.448 -4.896,-2.687c-1.642,-0.239 -3.254,-0.06 -4.836,0.508c-1.582,0.567 -3.074,1.462 -4.537,2.626c-1.463,1.165 -3.522,3.194 -3.522,3.194l-1.105,1.105l-11.343,11.91c-0.299,0.329 -0.269,0.806 0.03,1.105l0.716,0.686c0.299,0.299 0.836,0.329 1.194,0.09l2.717,-1.97c0.358,-0.239 0.895,-0.209 1.194,0.089l24.806,23.612c0.298,0.299 0.358,0.836 0.149,1.194l-1.821,2.806c-0.239,0.358 -0.179,0.896 0.149,1.194l0.746,0.687c0.299,0.298 0.806,0.268 1.105,-0.03l10.627,-11.164c0.298,-0.299 0.268,-0.806 -0.03,-1.105l-0.746,-0.716c-0.299,-0.299 -0.836,-0.329 -1.194,-0.09l-2.687,1.911c-0.358,0.238 -0.895,0.209 -1.194,-0.09l-11.433,-10.865l1.702,-1.792c0.298,-0.298 0.895,-0.507 1.313,-0.417l21.97,4.179Zm-26.358,-4.329c-0.298,0.329 -0.507,0.508 -0.507,0.508l-12.329,-11.672l2.209,-2.298c0.299,-0.329 0.776,-0.806 1.105,-1.105c-0,0 1.343,-1.313 2.298,-2.03c0.955,-0.686 1.911,-1.164 2.896,-1.373c0.985,-0.209 2,-0.149 3.045,0.209c1.044,0.358 2.119,1.075 3.253,2.12c2.448,2.328 3.612,4.597 3.463,6.806c-0.12,2.208 -2.925,6.029 -2.925,6.029c-0.239,0.359 -0.717,0.896 -0.986,1.194l-1.522,1.612Z" style="fill-rule:nonzero;" />
</svg>
