<?xml version="1.0" encoding="UTF-8" standalone="no"?><!-- Generator: Gravit.io --><svg xmlns="http://www.w3.org/2000/svg" xmlns:xlink="http://www.w3.org/1999/xlink" style="isolation:isolate" viewBox="0 0 1086.96 215" width="1086.96pt" height="215pt"><defs><clipPath id="_clipPath_XeDCyIj1K9imWsdfs1b00vO3cJCJajpi"><rect width="1086.96" height="215"/></clipPath></defs><g clip-path="url(#_clipPath_XeDCyIj1K9imWsdfs1b00vO3cJCJajpi)"><g><g><path d=" M 0 4.864 L 0 2.737 L 39.714 2.737 L 39.714 4.864 C 28.208 6.294 27.981 7.706 27.981 20.153 L 27.981 54.411 C 27.981 73.013 34.257 83.456 50.384 83.456 C 67.818 83.456 73.745 71.252 74.094 53.469 L 74.094 20.049 C 74.094 7.845 73.85 6.294 62.361 4.881 L 62.361 2.755 L 91.405 2.755 L 91.405 4.881 C 79.899 6.311 79.673 7.845 79.673 20.049 L 79.673 53.243 C 79.673 78.958 67.695 90.22 46.479 90.22 C 22.891 90.22 11.75 78.016 11.75 56.085 L 11.75 20.171 C 11.733 7.95 11.489 6.294 0 4.864 Z " fill="rgb(0,0,0)"/><path d=" M 157.549 4.864 L 157.549 2.737 L 186.594 2.737 L 186.594 4.864 C 175.088 6.294 174.861 7.828 174.861 20.031 L 174.861 88.668 L 164.906 88.668 L 114.418 23.361 L 114.418 71.374 C 114.418 83.578 114.662 85.129 126.151 86.541 L 126.151 88.668 L 97.106 88.668 L 97.106 86.541 C 108.613 85.112 108.839 83.578 108.839 71.374 L 108.839 16.126 L 106.817 13.511 C 102.668 8.054 100.419 5.805 97.089 4.498 L 97.089 2.72 L 119.143 2.72 L 169.282 67.207 L 169.282 20.031 C 169.282 7.828 169.038 6.294 157.549 4.864 Z " fill="rgb(0,0,0)"/><path d=" M 221.793 71.374 C 221.793 83.578 222.037 85.129 233.526 86.541 L 233.526 88.668 L 193.812 88.668 L 193.812 86.541 C 205.318 85.112 205.545 83.578 205.545 71.374 L 205.545 20.049 C 205.545 7.845 205.301 6.294 193.812 4.881 L 193.812 2.755 L 233.526 2.755 L 233.526 4.881 C 222.02 6.311 221.793 7.845 221.793 20.049 L 221.793 71.374 Z " fill="rgb(0,0,0)"/><path d=" M 251.796 16.475 C 248.484 7.828 247.055 5.805 239.697 4.864 L 239.697 2.737 L 276.326 2.737 L 276.326 4.864 C 268.864 5.805 266.598 7.95 268.742 13.877 L 289.61 70.886 L 304.063 29.045 C 311.769 6.764 308.456 5.805 299.321 4.864 L 299.321 2.737 L 326.71 2.737 L 326.71 4.864 C 318.76 5.805 317.574 7.357 311.42 25.018 L 289.018 88.668 L 279.412 88.668 L 251.796 16.475 Z " fill="rgb(0,0,0)"/><path d=" M 376.867 88.668 L 332.881 88.668 L 332.881 86.541 C 344.387 85.112 344.614 83.578 344.614 71.374 L 344.614 20.049 C 344.614 7.845 344.37 6.294 332.881 4.881 L 332.881 2.755 L 375.664 2.755 C 383.84 2.755 394.388 2.755 403.645 2.406 L 406.487 30.736 L 404.116 30.736 C 398.188 10.704 390.134 7.026 367.139 7.026 L 360.862 7.026 L 360.862 41.754 L 374.74 41.754 C 381.504 41.754 385.758 38.442 386.943 28.469 L 389.07 28.469 L 389.07 60.234 L 386.943 60.234 C 385.758 50.279 381.487 46.949 374.74 46.949 L 360.862 46.949 L 360.862 79.428 C 360.862 83.578 361.699 84.519 366.912 84.519 L 371.41 84.519 C 392.993 84.519 400.577 79.655 406.975 60.46 L 409.224 60.46 L 404.482 88.79 C 394.998 88.668 385.27 88.668 376.867 88.668 Z " fill="rgb(0,0,0)"/><path d=" M 420.259 86.541 C 431.766 85.112 431.992 83.578 431.992 71.374 L 431.992 20.049 C 431.992 7.845 431.748 6.294 420.259 4.881 L 420.259 2.755 L 435.427 2.755 C 441.232 2.755 453.209 2.633 456.888 2.633 C 478.82 2.633 495.765 8.56 495.765 25.279 C 495.765 36.785 487.118 43.532 474.304 46.618 L 492.679 75.07 C 498.136 83.491 499.914 85.617 508.213 86.576 L 508.213 88.703 L 481.661 88.703 C 479.412 84.31 475.734 77.79 471.829 71.391 L 466.738 63.442 C 461.752 55.614 459.154 51.587 456.783 48.379 L 448.258 48.379 L 448.258 71.374 C 448.258 83.578 448.485 85.129 461.177 86.541 L 461.177 88.668 L 420.277 88.668 L 420.277 86.541 L 420.259 86.541 Z  M 456.173 6.886 L 448.241 6.886 L 448.241 44.108 L 456.173 44.108 C 469.806 44.108 477.756 39.366 477.756 25.506 C 477.756 11.646 469.806 6.886 456.173 6.886 Z " fill="rgb(0,0,0)"/><path d=" M 517.47 83.804 L 517.47 54.882 L 519.841 54.882 C 523.154 76.935 531.94 85.827 546.044 85.827 C 556.47 85.827 565.134 80.736 565.134 70.066 C 565.134 62.012 558.736 57.863 549.252 53.347 L 538.705 48.361 C 526.135 42.434 518.203 34.606 518.203 23.117 C 518.203 9.484 531.121 0 547.718 0 C 556.243 0 567.401 2.371 573.206 5.927 L 573.206 30.23 L 570.835 30.23 C 567.523 13.285 559.346 4.393 547.596 4.393 C 537.99 4.393 531.243 8.891 531.243 17.19 C 531.243 25.366 536.822 29.167 543.098 32.131 L 555.668 38.058 C 568.83 44.23 578.663 50.75 578.663 63.668 C 578.663 79.202 563.844 90.22 546.062 90.22 C 534.416 90.22 524.339 87.483 517.47 83.804 Z " fill="rgb(0,0,0)"/><path d=" M 617.872 71.374 C 617.872 83.578 618.098 85.129 629.605 86.541 L 629.605 88.668 L 589.89 88.668 L 589.89 86.541 C 601.397 85.112 601.623 83.578 601.623 71.374 L 601.623 20.049 C 601.623 7.845 601.379 6.294 589.89 4.881 L 589.89 2.755 L 629.605 2.755 L 629.605 4.881 C 618.098 6.311 617.872 7.845 617.872 20.049 L 617.872 71.374 Z " fill="rgb(0,0,0)"/><path d=" M 660.428 86.541 C 672.997 85.112 673.468 83.229 673.468 71.374 L 673.468 6.66 L 670.504 6.66 C 653.907 6.66 646.916 15.08 640.989 34.048 L 638.618 34.048 L 642.174 2.406 C 651.292 2.755 662.328 2.755 670.504 2.755 L 692.558 2.755 C 700.735 2.755 711.77 2.755 721.01 2.406 L 724.567 34.048 L 722.073 34.048 C 716.268 15.08 709.277 6.66 692.68 6.66 L 689.716 6.66 L 689.716 71.374 C 689.716 83.229 690.187 85.129 702.757 86.541 L 702.757 88.668 L 660.445 88.668 L 660.445 86.541 L 660.428 86.541 Z " fill="rgb(0,0,0)"/><path d=" M 777.548 88.668 L 733.562 88.668 L 733.562 86.541 C 745.051 85.112 745.295 83.578 745.295 71.374 L 745.295 20.049 C 745.295 7.845 745.051 6.294 733.562 4.881 L 733.562 2.755 L 776.362 2.755 C 784.539 2.755 795.086 2.755 804.344 2.406 L 807.185 30.736 L 804.814 30.736 C 798.887 10.704 790.832 7.026 767.837 7.026 L 761.561 7.026 L 761.561 41.754 L 775.438 41.754 C 782.203 41.754 786.457 38.442 787.642 28.469 L 789.769 28.469 L 789.769 60.234 L 787.642 60.234 C 786.457 50.279 782.185 46.949 775.438 46.949 L 761.561 46.949 L 761.561 79.428 C 761.561 83.578 762.398 84.519 767.611 84.519 L 772.109 84.519 C 793.692 84.519 801.275 79.655 807.673 60.46 L 809.922 60.46 L 805.18 88.79 C 795.696 88.668 785.968 88.668 777.548 88.668 Z " fill="rgb(0,0,0)"/><path d=" M 842.053 86.541 C 854.623 85.112 855.093 83.229 855.093 71.374 L 855.093 6.66 L 852.13 6.66 C 835.533 6.66 828.542 15.08 822.614 34.048 L 820.243 34.048 L 823.8 2.406 C 832.935 2.755 843.953 2.755 852.13 2.755 L 874.183 2.755 C 882.36 2.755 893.396 2.755 902.635 2.406 L 906.192 34.048 L 903.699 34.048 C 897.893 15.08 890.902 6.66 874.305 6.66 L 871.342 6.66 L 871.342 71.374 C 871.342 83.229 871.812 85.129 884.382 86.541 L 884.382 88.668 L 842.07 88.668 L 842.07 86.541 L 842.053 86.541 Z " fill="rgb(0,0,0)"/><path d=" M 959.173 88.668 L 915.188 88.668 L 915.188 86.541 C 926.694 85.112 926.921 83.578 926.921 71.374 L 926.921 20.049 C 926.921 7.845 926.677 6.294 915.188 4.881 L 915.188 2.755 L 957.97 2.755 C 966.147 2.755 976.694 2.755 985.952 2.406 L 988.793 30.736 L 986.422 30.736 C 980.495 10.704 972.44 7.026 949.445 7.026 L 943.169 7.026 L 943.169 41.754 L 957.046 41.754 C 963.811 41.754 968.065 38.442 969.25 28.469 L 971.377 28.469 L 971.377 60.234 L 969.25 60.234 C 968.065 50.279 963.793 46.949 957.046 46.949 L 943.169 46.949 L 943.169 79.428 C 943.169 83.578 944.006 84.519 949.219 84.519 L 953.716 84.519 C 975.3 84.519 982.883 79.655 989.281 60.46 L 991.53 60.46 L 986.788 88.79 C 977.304 88.668 967.594 88.668 959.173 88.668 Z " fill="rgb(0,0,0)"/><path d=" M 1023.661 86.541 C 1036.231 85.112 1036.701 83.229 1036.701 71.374 L 1036.701 6.66 L 1033.738 6.66 C 1017.141 6.66 1010.15 15.08 1004.222 34.048 L 1001.851 34.048 L 1005.408 2.406 C 1014.543 2.755 1025.561 2.755 1033.738 2.755 L 1055.791 2.755 C 1063.968 2.755 1074.986 2.755 1084.243 2.406 L 1087.8 34.048 L 1085.307 34.048 C 1079.501 15.08 1072.51 6.66 1055.913 6.66 L 1052.95 6.66 L 1052.95 71.374 C 1052.95 83.229 1053.42 85.129 1065.99 86.541 L 1065.99 88.668 L 1023.678 88.668 L 1023.678 86.541 L 1023.661 86.541 Z " fill="rgb(0,0,0)"/><path d=" M 30.23 195.137 C 30.23 207.34 30.474 208.892 41.963 210.304 L 41.963 212.431 L 2.249 212.431 L 2.249 210.304 C 13.755 208.874 13.982 207.34 13.982 195.137 L 13.982 143.811 C 13.982 131.608 13.738 130.056 2.249 128.644 L 2.249 126.517 L 41.963 126.517 L 41.963 128.644 C 30.457 130.074 30.23 131.608 30.23 143.811 L 30.23 195.137 Z " fill="rgb(0,0,0)"/><path d=" M 129.324 124.146 C 152.563 124.146 174.495 139.784 174.495 169.073 C 174.495 198.344 152.563 214 129.324 214 C 106.085 214 84.153 198.362 84.153 169.073 C 84.17 139.784 106.102 124.146 129.324 124.146 Z  M 129.324 128.522 C 112.971 128.522 102.302 144.056 102.302 169.056 C 102.302 194.073 112.971 209.589 129.324 209.589 C 145.677 209.589 156.346 194.056 156.346 169.056 C 156.364 144.056 145.694 128.522 129.324 128.522 Z " fill="rgb(0,0,0)"/><path d=" M 190.273 207.584 L 190.273 178.662 L 192.644 178.662 C 195.956 200.715 204.743 209.607 218.847 209.607 C 229.272 209.607 237.937 204.516 237.937 193.847 C 237.937 185.792 231.538 181.643 222.054 177.127 L 211.49 172.141 C 198.92 166.214 190.987 158.386 190.987 146.897 C 190.987 133.264 203.906 123.78 220.503 123.78 C 229.045 123.78 240.186 126.151 245.991 129.708 L 245.991 154.01 L 243.62 154.01 C 240.308 137.065 232.114 128.173 220.381 128.173 C 210.775 128.173 204.028 132.671 204.028 140.97 C 204.028 149.146 209.607 152.947 215.883 155.911 L 228.453 161.838 C 241.615 168.01 251.448 174.53 251.448 187.448 C 251.448 202.982 236.629 214 218.847 214 C 207.218 214 197.142 211.263 190.273 207.584 Z " fill="rgb(0,0,0)"/><path d=" M 262.71 210.321 C 274.216 208.892 274.443 207.358 274.443 195.154 L 274.443 143.829 C 274.443 131.625 274.199 130.074 262.71 128.662 L 262.71 126.535 L 302.424 126.535 L 302.424 128.662 C 290.935 130.091 290.691 131.625 290.691 143.829 L 290.691 203.453 C 290.691 207.358 291.877 208.317 295.555 208.317 L 299.234 208.317 C 320.695 208.317 326.378 203.104 332.777 182.828 L 335.148 182.828 L 331.347 212.588 C 325.664 212.466 311.786 212.466 307.044 212.466 L 262.71 212.466 L 262.71 210.321 L 262.71 210.321 Z " fill="rgb(0,0,0)"/><path d=" M 389.07 124.146 C 412.31 124.146 434.241 139.784 434.241 169.073 C 434.241 198.344 412.31 214 389.07 214 C 365.831 214 343.899 198.362 343.899 169.073 C 343.899 139.784 365.831 124.146 389.07 124.146 Z  M 389.07 128.522 C 372.717 128.522 362.048 144.056 362.048 169.056 C 362.048 194.073 372.717 209.589 389.07 209.589 C 405.423 209.589 416.093 194.056 416.093 169.056 C 416.093 144.056 405.423 128.522 389.07 128.522 Z " fill="rgb(0,0,0)"/></g></g></g></svg>