<?xml version="1.0" encoding="UTF-8" standalone="no"?><!-- Generator: Gravit.io --><svg xmlns="http://www.w3.org/2000/svg" xmlns:xlink="http://www.w3.org/1999/xlink" style="isolation:isolate" viewBox="0 0 932.92 245.9" width="932.92pt" height="245.9pt"><defs><clipPath id="_clipPath_wi9JxcYsmOwzeIabKi0FsBAq64DDlJjs"><rect width="932.92" height="245.9"/></clipPath></defs><g clip-path="url(#_clipPath_wi9JxcYsmOwzeIabKi0FsBAq64DDlJjs)"><g><g><path d=" M 0 5.546 L 0 3.121 L 45.282 3.121 L 45.282 5.546 C 32.182 7.176 31.904 8.786 31.904 22.979 L 31.904 62.039 C 31.904 83.248 39.06 95.155 57.447 95.155 C 77.325 95.155 84.083 81.241 84.481 60.965 L 84.481 22.859 C 84.481 8.945 84.202 7.176 71.103 5.566 L 71.103 3.141 L 104.219 3.141 L 104.219 5.566 C 91.1 7.196 90.842 8.945 90.842 22.859 L 90.842 60.707 C 90.842 90.027 77.185 102.868 52.994 102.868 C 26.1 102.868 13.398 88.953 13.398 63.947 L 13.398 22.999 C 13.398 9.064 13.119 7.156 0 5.546 Z " fill="rgb(0,0,0)"/><path d=" M 179.636 5.546 L 179.636 3.121 L 212.752 3.121 L 212.752 5.546 C 199.633 7.176 199.374 8.925 199.374 22.84 L 199.374 101.098 L 188.024 101.098 L 130.458 26.636 L 130.458 81.36 C 130.458 95.274 130.736 97.043 143.836 98.654 L 143.836 101.079 L 110.719 101.079 L 110.719 98.654 C 123.839 97.024 124.097 95.274 124.097 81.36 L 124.097 18.367 L 121.791 15.385 C 117.06 9.164 114.496 6.599 110.699 5.109 L 110.699 3.081 L 135.845 3.081 L 193.013 76.609 L 193.013 22.82 C 193.013 8.925 192.755 7.156 179.636 5.546 Z " fill="rgb(0,0,0)"/><path d=" M 252.905 81.36 C 252.905 95.274 253.184 97.043 266.283 98.654 L 266.283 101.079 L 221.001 101.079 L 221.001 98.654 C 234.121 97.024 234.379 95.274 234.379 81.36 L 234.379 22.84 C 234.379 8.925 234.101 7.156 221.001 5.546 L 221.001 3.121 L 266.283 3.121 L 266.283 5.546 C 253.164 7.176 252.905 8.925 252.905 22.84 L 252.905 81.36 L 252.905 81.36 Z " fill="rgb(0,0,0)"/><path d=" M 287.115 18.785 C 283.338 8.925 281.708 6.619 273.32 5.546 L 273.32 3.121 L 315.083 3.121 L 315.083 5.546 C 306.575 6.619 303.991 9.064 306.436 15.823 L 330.23 80.823 L 346.709 33.116 C 355.495 7.713 351.718 6.619 341.302 5.546 L 341.302 3.121 L 372.53 3.121 L 372.53 5.546 C 363.485 6.619 362.134 8.388 355.097 28.525 L 329.554 101.098 L 318.601 101.098 L 287.115 18.785 Z " fill="rgb(0,0,0)"/><path d=" M 429.698 101.098 L 379.567 101.098 L 379.567 98.673 C 392.666 97.043 392.944 95.294 392.944 81.38 L 392.944 22.859 C 392.944 8.945 392.666 7.176 379.567 5.566 L 379.567 3.141 L 428.347 3.141 C 437.669 3.141 449.695 3.141 460.251 2.743 L 463.491 35.045 L 460.787 35.045 C 454.029 12.205 444.845 8.011 418.626 8.011 L 411.47 8.011 L 411.47 47.568 L 427.293 47.568 C 435.006 47.568 439.856 43.791 441.208 32.421 L 443.633 32.421 L 443.633 68.638 L 441.208 68.638 C 439.856 57.288 434.986 53.491 427.293 53.491 L 411.47 53.491 L 411.47 90.524 C 411.47 95.254 412.425 96.328 418.368 96.328 L 423.497 96.328 C 448.105 96.328 456.752 90.782 464.047 68.896 L 466.611 68.896 L 461.205 101.238 C 450.391 101.098 439.299 101.098 429.698 101.098 Z " fill="rgb(0,0,0)"/><path d=" M 479.174 98.654 C 492.274 97.024 492.552 95.274 492.552 81.36 L 492.552 22.84 C 492.552 8.925 492.274 7.156 479.174 5.546 L 479.174 3.121 L 496.468 3.121 C 503.087 3.121 516.743 2.982 520.938 2.982 C 545.944 2.982 565.265 9.74 565.265 28.803 C 565.265 41.922 555.406 49.615 540.795 53.133 L 561.747 85.574 C 567.968 95.175 569.996 97.6 579.458 98.693 L 579.458 101.118 L 549.184 101.118 C 546.62 96.109 542.425 88.675 537.973 81.38 L 532.168 72.315 C 526.483 63.39 523.522 58.799 520.818 55.141 L 511.078 55.141 L 511.078 81.36 C 511.078 95.274 511.356 97.043 525.808 98.654 L 525.808 101.079 L 479.174 101.079 L 479.174 98.654 Z  M 520.123 7.832 L 511.058 7.832 L 511.058 50.271 L 520.123 50.271 C 535.667 50.271 544.731 44.864 544.731 29.061 C 544.731 13.258 535.667 7.832 520.123 7.832 Z " fill="rgb(0,0,0)"/><path d=" M 590.013 95.553 L 590.013 62.575 L 592.716 62.575 C 596.493 87.721 606.492 97.858 622.593 97.858 C 634.48 97.858 644.359 92.054 644.359 79.889 C 644.359 70.705 637.064 65.974 626.25 60.826 L 614.224 55.141 C 599.892 48.383 590.848 39.457 590.848 26.358 C 590.848 10.814 605.577 0 624.501 0 C 634.241 0 646.943 2.703 653.562 6.758 L 653.562 34.468 L 650.859 34.468 C 647.082 15.147 637.739 5.009 624.362 5.009 C 613.409 5.009 605.716 10.138 605.716 19.6 C 605.716 28.922 612.077 33.256 619.233 36.635 L 633.565 43.393 C 648.573 50.43 659.784 57.864 659.784 72.594 C 659.784 90.305 642.888 102.868 622.612 102.868 C 609.334 102.848 597.865 99.747 590.013 95.553 Z " fill="rgb(0,0,0)"/><path d=" M 704.509 81.36 C 704.509 95.274 704.787 97.043 717.887 98.654 L 717.887 101.079 L 672.605 101.079 L 672.605 98.654 C 685.705 97.024 685.983 95.274 685.983 81.36 L 685.983 22.84 C 685.983 8.925 685.705 7.156 672.605 5.546 L 672.605 3.121 L 717.887 3.121 L 717.887 5.546 C 704.767 7.176 704.509 8.925 704.509 22.84 L 704.509 81.36 Z " fill="rgb(0,0,0)"/><path d=" M 753.031 98.654 C 767.363 97.024 767.899 94.877 767.899 81.36 L 767.899 7.573 L 764.52 7.573 C 745.596 7.573 737.625 17.174 730.867 38.801 L 728.164 38.801 L 732.219 2.723 C 742.635 3.121 755.197 3.121 764.52 3.121 L 789.665 3.121 C 798.988 3.121 811.551 3.121 822.106 2.723 L 826.161 38.801 L 823.319 38.801 C 816.699 17.174 808.728 7.573 789.805 7.573 L 786.425 7.573 L 786.425 81.36 C 786.425 94.877 786.962 97.043 801.294 98.654 L 801.294 101.079 L 753.051 101.079 L 753.051 98.654 L 753.031 98.654 Z " fill="rgb(0,0,0)"/><path d=" M 903.068 98.654 L 903.068 101.079 L 854.825 101.079 L 854.825 98.654 C 869.157 97.024 869.694 94.877 869.694 81.36 L 869.694 62.575 L 844.966 18.109 C 839.698 8.369 837.81 6.619 831.588 5.546 L 831.588 3.121 L 873.351 3.121 L 873.351 5.546 C 864.843 6.619 861.723 8.925 864.982 15.286 L 885.795 54.485 L 902.412 25.026 C 911.198 9.76 908.893 6.52 899.172 5.566 L 899.172 3.141 L 929.307 3.141 L 929.307 5.566 C 922.012 6.778 918.772 9.084 910.781 22.462 L 888.22 61.661 L 888.22 81.36 C 888.2 94.877 888.736 97.043 903.068 98.654 Z " fill="rgb(0,0,0)"/><path d=" M 55.956 141.53 C 82.453 141.53 107.44 159.38 107.44 192.755 C 107.44 226.13 82.433 243.98 55.956 243.98 C 29.459 243.98 4.453 226.13 4.453 192.755 C 4.453 159.38 29.479 141.53 55.956 141.53 Z  M 55.956 146.539 C 37.311 146.539 25.145 164.25 25.145 192.755 C 25.145 221.26 37.311 238.971 55.956 238.971 C 74.601 238.971 86.767 221.26 86.767 192.755 C 86.767 164.25 74.621 146.539 55.956 146.539 Z " fill="rgb(0,0,0)"/><path d=" M 120.44 239.786 C 133.559 238.156 133.817 236.407 133.817 222.492 L 133.817 163.972 C 133.817 150.058 133.539 148.288 120.44 146.678 L 120.44 144.253 L 171.943 144.253 C 181.266 144.253 193.292 144.253 203.847 143.856 L 207.087 176.157 L 204.384 176.157 C 197.625 153.317 188.442 149.123 162.223 149.123 L 152.363 149.123 L 152.363 188.7 L 168.186 188.7 C 175.899 188.7 180.749 184.923 182.101 173.553 L 184.526 173.553 L 184.526 209.77 L 182.101 209.77 C 180.749 198.42 175.879 194.624 168.186 194.624 L 152.363 194.624 L 152.363 222.592 C 152.363 236.109 152.9 238.136 167.232 239.766 L 167.232 242.191 L 120.44 242.191 L 120.44 239.786 Z " fill="rgb(0,0,0)"/><path d=" M 303.872 141.53 C 330.369 141.53 355.355 159.38 355.355 192.755 C 355.355 226.13 330.349 243.98 303.872 243.98 C 277.375 243.98 252.369 226.13 252.369 192.755 C 252.369 159.38 277.375 141.53 303.872 141.53 Z  M 303.872 146.539 C 285.227 146.539 273.061 164.25 273.061 192.755 C 273.061 221.26 285.227 238.971 303.872 238.971 C 322.517 238.971 334.683 221.26 334.683 192.755 C 334.683 164.25 322.517 146.539 303.872 146.539 Z " fill="rgb(0,0,0)"/><path d=" M 373.345 236.685 L 373.345 203.708 L 376.048 203.708 C 379.825 228.853 389.824 238.991 405.925 238.991 C 417.811 238.991 427.691 233.186 427.691 221.021 C 427.691 211.838 420.396 207.107 409.582 201.958 L 397.556 196.273 C 383.224 189.515 374.18 180.59 374.18 167.49 C 374.18 151.946 388.909 141.132 407.833 141.132 C 417.573 141.132 430.275 143.836 436.894 147.891 L 436.894 175.6 L 434.191 175.6 C 430.414 156.279 421.071 146.142 407.694 146.142 C 396.741 146.142 389.048 151.27 389.048 160.732 C 389.048 170.055 395.409 174.388 402.565 177.767 L 416.897 184.526 C 431.905 191.562 443.116 198.997 443.116 213.726 C 443.116 231.437 426.22 244 405.944 244 C 392.666 243.98 381.177 240.879 373.345 236.685 Z " fill="rgb(0,0,0)"/><path d=" M 455.937 239.786 C 469.037 238.156 469.315 236.407 469.315 222.492 L 469.315 163.972 C 469.315 150.058 469.037 148.288 455.937 146.678 L 455.937 144.253 L 501.219 144.253 L 501.219 146.678 C 488.099 148.308 487.841 150.058 487.841 163.972 L 487.841 231.954 C 487.841 236.407 489.193 237.5 493.387 237.5 L 497.581 237.5 C 522.051 237.5 528.531 231.556 535.826 208.439 L 538.529 208.439 L 534.176 242.37 C 527.696 242.231 511.873 242.231 506.466 242.231 L 455.917 242.231 L 455.917 239.786 L 455.937 239.786 Z " fill="rgb(0,0,0)"/><path d=" M 600.011 141.53 C 626.509 141.53 651.515 159.38 651.515 192.755 C 651.515 226.13 626.509 243.98 600.011 243.98 C 573.514 243.98 548.508 226.13 548.508 192.755 C 548.508 159.38 573.514 141.53 600.011 141.53 Z  M 600.011 146.539 C 581.366 146.539 569.201 164.25 569.201 192.755 C 569.201 221.26 581.366 238.971 600.011 238.971 C 618.657 238.971 630.822 221.26 630.822 192.755 C 630.822 164.25 618.657 146.539 600.011 146.539 Z " fill="rgb(0,0,0)"/></g></g></g></svg>