<?xml version="1.0" encoding="UTF-8" standalone="no"?><!-- Generator: Gravit.io --><svg xmlns="http://www.w3.org/2000/svg" xmlns:xlink="http://www.w3.org/1999/xlink" style="isolation:isolate" viewBox="0 0 1400 356" width="1400pt" height="356pt"><defs><clipPath id="_clipPath_jwXpHyIEE02BowAOTbNEUZzBmQABCxkO"><rect width="1400" height="356"/></clipPath></defs><g clip-path="url(#_clipPath_jwXpHyIEE02BowAOTbNEUZzBmQABCxkO)"><g><g><g><path d=" M 1.454 177.824 C 1.454 134.865 16.685 95.453 42.049 64.715 L 42.049 64.715 C 74.66 25.195 124.021 0 179.248 0 L 179.248 0 C 277.464 0 357.057 79.623 357.072 177.824 L 357.072 177.824 C 357.072 276.01 277.464 355.633 179.248 355.633 L 179.248 355.633 C 81.062 355.633 1.454 276.025 1.454 177.824 L 1.454 177.824 Z  M 4.095 177.824 C 4.095 226.203 23.701 269.976 55.406 301.681 L 55.406 301.681 C 87.111 333.386 130.884 352.992 179.248 352.992 L 179.248 352.992 C 227.626 352.992 271.415 333.386 303.12 301.681 L 303.12 301.681 C 334.825 269.976 354.431 226.203 354.431 177.824 L 354.431 177.824 C 354.431 129.461 334.825 85.673 303.12 53.968 L 303.12 53.968 C 271.415 22.263 227.626 2.656 179.248 2.656 L 179.248 2.656 C 124.835 2.656 76.226 27.467 44.091 66.404 L 44.091 66.404 L 44.091 66.404 C 19.095 96.696 4.095 135.51 4.095 177.824 L 4.095 177.824 Z " fill="rgb(0,0,0)"/></g><g><path d=" M 40.513 249.955 C 40.544 247.637 42.448 245.779 44.766 245.81 C 47.085 245.84 48.958 247.744 48.927 250.062 C 48.896 252.396 46.993 254.254 44.674 254.223 C 42.356 254.193 40.498 252.289 40.513 249.955 Z " fill="rgb(0,0,0)"/><path d=" M 308.125 252.473 C 308.156 250.155 310.059 248.297 312.378 248.328 C 314.696 248.358 316.569 250.262 316.539 252.58 C 316.508 254.899 314.604 256.772 312.286 256.741 C 309.967 256.695 308.094 254.791 308.125 252.473 Z " fill="rgb(0,0,0)"/></g><g><g><g><path d=" M 300.878 126.743 C 294.23 111.052 284.742 96.973 272.643 84.874 C 260.56 72.806 246.481 63.302 230.805 56.67 C 214.576 49.822 197.319 46.352 179.57 46.352 C 161.791 46.352 144.549 49.822 128.305 56.67 C 112.629 63.302 98.565 72.822 86.451 84.874 C 74.368 96.973 64.879 111.037 58.262 126.743 C 51.384 142.956 47.898 160.214 47.898 177.962 C 47.898 195.757 51.384 213.014 58.262 229.228 C 64.879 244.888 74.368 258.983 86.451 271.066 C 98.55 283.149 112.613 292.653 128.305 299.286 C 133.218 301.374 138.223 303.124 143.305 304.583 C 143.351 304.598 143.397 304.613 143.443 304.629 C 145.992 305.427 148.587 306.057 151.197 306.579 C 160.455 308.605 169.928 309.634 179.57 309.634 C 185.435 309.634 191.254 309.25 196.996 308.498 C 197.012 308.498 197.027 308.498 197.042 308.498 C 200.389 308.298 202.754 307.792 204.305 307.316 C 213.363 305.596 222.237 302.925 230.805 299.301 C 246.481 292.668 260.56 283.165 272.643 271.081 L 271.706 270.145 L 272.643 271.081 C 284.742 258.998 294.215 244.904 300.863 229.243 C 307.71 213.03 311.196 195.772 311.196 177.978 C 311.196 160.214 307.726 142.972 300.878 126.743 Z  M 97.889 277.837 C 97.69 277.668 97.352 277.115 97.521 276.685 C 97.598 276.517 97.69 276.317 97.797 276.133 C 98.365 275.073 99.287 273.845 100.07 272.908 C 101.436 275.856 104.737 281.553 111.708 287.709 C 106.887 284.731 102.281 281.445 97.889 277.837 Z  M 96.799 199.78 C 99.502 202.421 99.977 204.708 99.993 206.259 C 99.993 206.888 99.901 207.38 99.824 207.718 C 99.778 207.886 99.747 208.009 99.716 208.086 C 99.716 208.101 99.701 208.117 99.701 208.132 C 99.578 208.316 98.519 210.312 95.494 210.312 C 95.034 210.312 94.496 210.266 93.913 210.143 C 88.8 209.145 83.733 207.165 79.557 206.643 C 79.496 206.627 79.404 206.643 79.327 206.627 L 89.368 192.855 C 92.654 195.88 95.494 198.521 96.799 199.78 Z  M 75.765 176.826 L 141.202 110.653 L 101.973 202.758 C 101.39 201.223 100.361 199.534 98.642 197.876 C 94.972 194.314 79.849 180.542 75.765 176.826 Z  M 93.391 212.738 C 94.128 212.876 94.834 212.953 95.479 212.953 C 97.813 212.968 99.502 212.078 100.546 211.172 C 101.59 210.266 102.02 209.376 102.066 209.268 L 102.066 209.253 C 102.066 209.253 102.066 209.238 102.066 209.238 C 102.066 209.222 102.081 209.207 102.096 209.161 L 102.173 208.992 L 142.415 114.875 C 142.507 115.504 142.691 116.717 142.86 117.301 C 143.489 127.864 145.915 135.28 148.464 140.96 C 149.938 144.246 151.442 146.764 152.609 148.53 C 153.193 149.42 153.699 150.127 154.083 150.633 C 154.206 150.802 154.329 150.956 154.421 151.078 L 145.04 183.49 C 144.886 183.996 145.071 184.564 145.485 184.887 L 147.727 186.668 C 147.727 186.668 148.003 186.929 147.88 187.42 C 147.742 187.912 137.44 225.957 137.44 225.957 L 104.706 263.543 C 102.281 261.532 95.187 254.96 85.791 240.359 C 77.607 227.662 75.166 219.647 75.182 215.087 C 75.182 212.815 75.75 211.433 76.425 210.573 C 76.441 210.558 76.441 210.558 76.456 210.543 L 76.487 210.497 C 76.533 210.45 76.563 210.389 76.609 210.343 C 77.362 209.514 78.283 209.222 78.974 209.222 C 79.066 209.222 79.143 209.222 79.22 209.238 C 82.858 209.698 88.002 211.663 93.391 212.738 Z  M 162.804 74.219 C 162.574 73.543 161.852 73.175 161.177 73.39 C 161.76 72.868 162.328 72.376 162.881 71.9 L 168.562 71.163 C 169.283 71.071 169.79 70.396 169.698 69.674 C 169.606 68.953 168.945 68.446 168.208 68.538 L 167.349 68.661 C 169.13 67.617 170.941 66.772 172.446 66.158 C 173.459 65.744 174.319 65.421 174.933 65.206 C 175.547 65.007 175.87 64.899 175.885 64.899 C 176.591 64.7 176.991 63.963 176.776 63.256 C 176.561 62.566 175.824 62.166 175.133 62.366 C 175.087 62.381 172.876 63.026 170.02 64.331 C 170.435 63.732 170.297 62.919 169.698 62.489 C 169.099 62.074 168.27 62.212 167.855 62.811 L 164.815 67.126 C 164.539 67.31 164.263 67.479 164.002 67.663 C 163.618 67.939 163.188 68.262 162.727 68.63 L 163.034 68.031 C 163.372 67.387 163.111 66.588 162.466 66.25 C 161.821 65.913 161.023 66.174 160.685 66.818 L 157.354 73.298 C 156.524 74.065 155.757 74.787 155.097 75.416 C 155.204 71.962 156.125 65.867 160.01 62.965 C 163.817 60.048 166.98 59.418 169.621 59.418 C 171.172 59.418 172.538 59.648 173.751 59.833 C 174.319 59.909 176.361 60.401 178.127 60.846 C 179.908 61.307 181.52 61.721 181.52 61.736 L 181.858 61.782 C 183.808 61.798 184.775 62.289 185.297 62.811 C 185.819 63.333 186.019 64.039 186.034 64.822 C 186.049 65.483 185.758 66.235 185.435 66.803 C 185.312 67.018 185.205 67.172 185.113 67.325 L 175.24 68.415 C 174.887 68.461 174.549 68.646 174.334 68.922 L 168.116 77.121 L 165.076 77.136 L 164.8 77.167 C 164.677 77.197 164.124 77.32 163.51 77.827 C 162.881 78.318 162.267 79.316 162.297 80.591 C 162.282 83.062 163.142 84.751 164.078 85.734 C 164.17 85.841 164.278 85.934 164.37 86.026 L 160.317 90.079 C 159.687 89.91 158.659 89.557 157.707 88.881 C 156.478 88.022 155.358 86.747 154.989 84.521 C 154.789 83.231 154.713 82.172 154.713 81.327 C 154.713 80.437 154.789 79.792 154.882 79.332 C 154.897 79.316 154.912 79.316 154.928 79.301 C 154.928 79.301 155.526 78.717 156.448 77.827 L 162.036 75.923 C 162.666 75.662 163.034 74.91 162.804 74.219 Z  M 183.025 84.321 C 183.025 84.321 183.04 84.736 182.702 84.936 C 182.349 85.135 182.119 85.473 182.042 85.872 C 181.981 86.271 182.149 86.64 182.364 86.962 C 182.41 87.039 182.426 87.208 182.334 87.377 C 182.242 87.53 182.073 87.837 182.073 87.837 C 181.888 88.16 181.842 88.544 181.965 88.897 C 181.965 88.897 181.965 88.897 181.981 88.943 C 182.027 89.096 182.119 89.526 182.119 89.987 C 182.119 90.248 181.919 90.985 181.397 91.2 C 180.906 91.415 180.077 91.584 178.971 91.614 L 176.177 91.553 C 175.532 91.538 174.964 91.998 174.857 92.628 C 174.841 92.689 174.78 93.042 174.78 93.595 C 174.78 94.317 174.887 95.407 175.471 96.512 C 175.686 96.942 176.008 97.357 176.392 97.74 C 176.392 97.74 176.392 97.756 176.407 97.756 L 176.407 97.756 L 181.105 103.022 L 168.915 103.851 L 160.608 97.357 C 161.023 97.157 161.253 97.034 161.253 97.034 C 161.699 96.819 161.99 96.359 161.99 95.852 L 161.99 92.014 L 167.318 86.671 C 167.64 86.348 167.779 85.857 167.671 85.412 C 167.548 84.951 167.21 84.598 166.765 84.475 L 166.765 84.475 C 166.52 84.306 164.923 83.799 164.877 80.529 C 164.892 79.992 165.03 79.93 165.138 79.792 C 165.184 79.761 165.23 79.731 165.261 79.7 L 168.73 79.669 C 169.145 79.669 169.529 79.47 169.775 79.147 C 169.775 79.147 175.317 71.808 175.701 71.348 C 176.085 70.872 176.668 70.826 176.668 70.826 L 184.176 70.012 C 184.176 70.012 184.56 69.997 184.621 70.457 C 184.683 71.148 184.76 71.993 184.852 72.914 C 184.867 73.298 184.621 73.436 184.468 73.451 C 183.516 73.482 182.518 73.513 181.459 73.543 C 180.353 73.589 179.14 74.096 178.342 74.772 C 177.743 75.263 177.728 76.199 178.28 76.737 C 178.587 77.029 179.248 77.136 179.969 77.351 C 180.875 77.627 181.888 77.965 182.395 77.812 C 183.04 77.597 183.286 77.029 183.332 76.399 C 183.378 75.708 183.792 75.217 184.499 75.217 C 184.79 75.217 184.974 75.462 185.005 75.708 C 185.143 77.029 185.374 78.687 185.466 79.639 C 185.512 80.099 185.543 80.529 185.573 80.898 C 185.589 81.374 185.174 81.404 184.959 81.435 C 184.514 81.496 184.176 81.496 184.176 81.512 C 183.823 81.527 183.485 81.681 183.255 81.957 C 183.009 82.218 182.902 82.571 182.917 82.924 L 183.025 84.321 Z  M 167.702 106.277 C 167.932 106.461 168.224 106.553 168.516 106.553 C 168.546 106.553 168.577 106.553 168.608 106.553 L 183.992 105.509 C 184.499 105.479 184.944 105.156 185.128 104.68 C 185.328 104.22 185.22 103.682 184.898 103.298 L 182.134 100.197 C 183.746 100.688 185.128 101.118 186.203 101.441 C 187.032 101.656 188.536 102.976 189.811 104.711 C 191.024 106.292 192.129 108.165 192.866 109.685 C 192.329 112.418 191.546 115.105 190.717 117.807 L 183.9 122.982 L 169.053 112.986 C 168.301 111.881 164.846 106.845 161.53 103.513 C 159.764 101.778 157.277 101.087 154.789 101.087 C 154.329 101.087 153.868 101.118 153.408 101.164 C 154.053 100.811 154.713 100.458 155.342 100.12 C 156.309 99.614 157.246 99.122 158.06 98.692 L 167.702 106.277 Z  M 154.759 103.744 C 156.785 103.744 158.582 104.327 159.641 105.386 C 161.361 107.106 163.219 109.44 164.616 111.344 C 166.028 113.247 166.98 114.675 166.98 114.691 C 167.072 114.844 167.195 114.967 167.349 115.059 L 183.193 125.73 C 183.669 126.052 184.284 126.037 184.729 125.684 L 204.903 110.346 L 204.995 110.269 C 204.995 110.269 205.441 109.87 206.024 109.378 C 206.608 108.887 207.345 108.304 207.79 108.027 C 208.834 107.336 213.286 104.696 216.127 104.619 C 216.372 104.603 216.618 104.603 216.848 104.603 C 218.215 104.588 219.213 104.834 219.719 105.171 C 220.195 105.509 220.41 105.786 220.456 106.784 C 220.456 108.396 220.487 110.776 220.487 110.776 C 220.487 111.42 220.948 111.85 221.577 111.958 C 222.069 111.958 222.744 112.096 222.744 112.864 C 222.744 113.739 222.145 113.862 221.869 113.908 C 221.393 113.969 220.932 114.03 220.748 114.046 L 219.504 114.046 L 219.167 114.092 C 219.167 114.092 217.462 114.537 215.635 114.967 C 214.73 115.182 213.778 115.412 213.01 115.566 C 212.626 115.643 212.288 115.719 212.027 115.765 C 211.905 115.781 211.797 115.796 211.72 115.811 C 211.644 115.827 211.628 115.811 211.628 115.827 C 210.461 115.827 208.65 116.026 208.619 116.026 C 208.25 116.072 207.897 116.272 207.682 116.579 C 207.682 116.594 205.441 119.757 202.646 123.488 C 199.852 127.219 196.459 131.549 194.294 133.714 C 192.037 135.971 190.179 137.675 188.874 138.811 C 188.475 139.164 188.122 139.456 187.83 139.702 C 187.677 139.824 187.324 139.993 186.94 139.84 C 185.005 139.041 180.875 137.383 175.901 135.264 C 168.961 132.301 160.363 128.447 153.853 124.962 C 152.563 124.302 150.26 122.889 148.356 120.878 C 148.157 120.663 147.957 120.433 147.758 120.203 C 147.696 120.126 147.635 120.049 147.573 119.988 C 147.42 119.803 147.282 119.619 147.143 119.45 C 147.036 119.312 146.944 119.159 146.836 119.02 C 146.744 118.898 146.667 118.775 146.591 118.637 C 146.499 118.498 146.406 118.345 146.314 118.191 C 146.284 118.13 146.253 118.068 146.207 118.007 C 146.023 117.685 145.869 117.362 145.731 117.024 C 145.716 116.978 145.685 116.932 145.67 116.886 C 145.593 116.687 145.516 116.487 145.455 116.287 C 145.455 116.287 145.455 116.287 145.455 116.287 C 145.455 116.287 145.455 116.287 145.455 116.272 C 145.332 115.919 145.24 115.55 145.163 115.182 C 145.132 115.028 145.101 114.86 145.071 114.706 C 145.055 114.583 145.04 114.46 145.025 114.338 C 144.994 114.03 144.963 113.723 144.963 113.401 C 144.963 113.186 144.979 112.986 144.994 112.771 C 145.009 112.603 145.025 112.418 145.055 112.234 C 145.055 112.203 145.055 112.173 145.055 112.142 C 145.117 111.712 145.209 111.282 145.332 110.837 C 145.332 110.837 145.332 110.837 145.332 110.837 L 145.332 110.837 C 145.408 110.576 145.485 110.3 145.593 110.023 C 145.593 110.008 145.608 109.992 145.608 109.977 C 145.7 109.731 145.808 109.455 145.915 109.194 C 145.931 109.163 145.946 109.117 145.961 109.087 C 146.069 108.841 146.192 108.595 146.33 108.35 C 146.36 108.304 146.391 108.242 146.422 108.181 C 146.591 107.889 146.76 107.582 146.944 107.275 L 146.944 107.275 C 148.141 105.233 151.596 103.713 154.759 103.744 Z  M 196.183 83.584 C 196.183 83.001 196.382 82.909 196.49 82.924 C 198.501 83.247 199.606 84.122 200.313 84.951 C 200.743 85.473 201.004 86.01 201.157 86.394 C 201.234 86.594 201.28 86.747 201.311 86.855 C 201.326 86.901 201.326 86.947 201.341 86.962 L 201.341 86.962 C 201.449 87.592 202.002 88.068 202.646 88.068 L 228.44 88.068 C 229.1 88.068 229.653 87.592 229.745 86.947 C 229.776 86.824 229.976 85.98 230.805 85.197 C 231.496 84.552 232.632 83.845 234.689 83.584 C 234.965 83.523 235.012 83.799 235.012 84.045 C 235.012 86.778 234.919 92.474 234.919 100.734 C 234.919 107.459 236.654 112.894 238.313 118.268 C 239.986 123.657 241.583 128.985 241.583 135.802 C 241.583 139.44 240.892 142.926 239.541 146.089 C 238.359 145.428 237.361 145.029 236.808 144.876 C 236.624 144.83 236.439 144.799 236.255 144.799 C 235.211 144.845 234.536 145.306 233.875 145.766 C 233.231 146.288 232.724 146.657 232.355 147.486 C 232.248 147.762 232.202 148.038 232.202 148.299 C 232.217 149.021 232.463 149.512 232.647 149.896 C 232.371 150.127 232.048 150.388 231.726 150.679 C 231.296 151.063 230.851 151.478 230.467 151.923 C 230.083 152.368 229.73 152.783 229.515 153.428 C 229.392 153.827 229.315 154.241 229.315 154.671 C 229.315 155.485 229.546 156.222 229.914 156.974 C 225.907 159.293 220.886 160.659 214.837 160.674 C 206.009 160.674 199.698 157.634 195.492 153.243 C 192.375 149.958 190.44 145.874 189.657 141.636 C 190.962 140.531 193.25 138.519 196.152 135.617 C 196.643 135.126 197.181 134.543 197.749 133.898 C 198.685 137.214 200.543 139.978 202.969 142.035 C 206.362 144.922 210.799 146.472 215.39 146.611 C 215.467 146.626 215.559 146.641 215.635 146.641 C 215.666 146.641 215.712 146.641 215.743 146.626 C 215.85 146.626 215.958 146.641 216.065 146.641 C 225.999 146.611 233.445 137.813 233.461 128.079 C 233.461 123.703 232.432 120.648 231.48 115.934 C 230.513 111.205 229.561 104.634 229.561 93.073 C 229.561 92.72 229.423 92.382 229.177 92.136 C 228.932 91.891 228.594 91.753 228.241 91.753 L 202.769 91.753 C 202.416 91.753 202.078 91.891 201.833 92.136 C 201.587 92.382 201.449 92.72 201.449 93.073 C 201.449 101.348 200.911 106.676 200.236 110.637 L 194.248 115.182 C 194.724 113.462 195.154 111.712 195.492 109.931 C 195.522 109.854 195.522 109.778 195.538 109.701 C 195.968 107.398 196.229 105.033 196.244 102.592 C 196.244 93.841 196.213 86.901 196.183 83.584 Z  M 232.908 156.775 C 232.186 155.761 231.956 155.086 231.972 154.64 C 231.972 154.487 231.987 154.349 232.048 154.18 L 232.048 154.18 C 232.156 153.934 232.939 153.09 233.645 152.491 C 234.351 151.861 234.996 151.386 234.996 151.386 C 235.365 151.155 235.61 150.556 235.58 150.203 C 235.564 149.681 235.426 149.497 235.334 149.282 C 235.242 149.098 235.15 148.929 235.073 148.791 C 234.981 148.591 234.919 148.146 235.319 147.762 C 235.764 147.301 236.409 147.486 236.532 147.547 C 237.023 147.747 237.821 148.115 238.604 148.576 C 239.756 149.251 240.923 150.188 241.337 150.986 C 241.767 151.723 242.12 152.706 242.105 153.366 C 242.105 153.811 241.921 154.134 241.706 154.379 C 241.276 154.871 237.391 158.126 236.992 158.371 C 236.578 158.663 234.919 159.369 233.507 159.891 C 233.092 160.045 232.693 160.183 232.34 160.321 C 231.849 160.521 231.772 160.198 231.772 160.198 C 231.772 160.198 231.68 159.907 231.864 159.722 C 232.094 159.538 232.309 159.339 232.524 159.108 C 232.755 158.801 233.108 158.51 233.154 157.68 C 233.2 157.404 233.108 157.051 232.908 156.775 Z  M 236.793 248.573 C 236.793 248.573 236.839 248.957 236.532 249.141 C 236.224 249.31 226.92 254.53 226.92 254.53 L 225.845 161.642 C 226.905 161.304 227.918 160.905 228.885 160.459 L 236.793 248.573 Z  M 194.217 291.517 C 194.217 291.517 197.641 295.954 197.779 296.154 C 197.917 296.353 197.81 296.584 197.718 296.66 C 192.528 300.898 184.115 303.861 174.488 304.921 C 176.008 297.935 181.842 270.406 186.187 242.37 C 190.655 213.475 192.636 186.038 193.02 180.327 C 193.02 180.327 196.49 180.097 197.104 180.035 C 197.703 179.974 197.779 180.327 197.779 180.695 C 197.764 181.064 193.972 290.626 193.972 290.626 C 193.941 290.98 194.033 291.271 194.217 291.517 Z  M 148.095 182.476 C 148.095 182.476 156.693 152.752 156.816 152.353 C 156.924 151.954 157.323 151.846 157.323 151.846 C 157.323 151.846 163.618 150.08 164.616 149.758 C 165.614 149.436 167.272 149.313 167.272 149.313 L 188.905 147.992 C 190.041 150.526 191.592 152.921 193.588 155.024 C 195.338 156.882 197.442 158.494 199.867 159.799 C 199.867 159.799 199.821 176.258 199.821 176.565 C 199.821 176.872 199.668 177.225 198.977 177.287 C 198.286 177.348 177.221 178.807 171.97 179.191 C 171.218 179.237 170.327 179.375 169.529 179.59 C 168.73 179.82 150.383 184.841 150.383 184.841 C 150.383 184.841 149.754 184.933 149.446 184.703 C 149.139 184.457 148.971 184.319 148.402 183.874 C 147.834 183.413 148.095 182.476 148.095 182.476 Z  M 156.233 149.098 C 154.145 146.227 148.065 137.721 146.007 122.199 C 146.145 122.367 146.299 122.521 146.437 122.674 C 148.633 124.978 151.135 126.513 152.625 127.281 C 165.875 134.374 187.139 142.757 187.17 142.772 C 187.185 142.772 187.201 142.772 187.216 142.788 C 187.4 143.678 187.646 144.538 187.938 145.413 L 167.978 146.626 C 167.978 146.626 165.629 146.733 163.94 147.209 C 161.898 147.777 157.231 149.113 156.924 149.221 C 156.524 149.328 156.294 149.19 156.233 149.098 Z  M 200.435 179.682 L 201.403 179.482 C 202.017 179.36 202.462 178.807 202.462 178.193 L 202.508 161.043 C 206.039 162.471 210.139 163.284 214.806 163.284 C 214.822 163.284 214.837 163.284 214.852 163.284 C 217.846 163.284 220.641 162.947 223.22 162.363 L 224.448 268.625 L 224.448 268.686 C 224.448 268.686 224.448 268.763 224.448 268.947 C 224.464 270.037 224.172 273.845 221.055 276.087 C 217.186 278.912 208.527 283.41 196.827 283.717 L 200.435 179.682 Z  M 199.913 131.288 C 202.999 127.495 206.408 122.843 208.327 120.203 L 208.327 142.266 C 207.007 141.651 205.778 140.884 204.704 139.963 C 202.201 137.828 200.451 134.957 199.913 131.288 Z  M 210.968 143.233 L 210.968 118.468 C 211.198 118.452 211.429 118.452 211.613 118.452 C 212.15 118.437 212.703 118.314 213.547 118.145 C 213.793 118.084 214.054 118.038 214.33 117.976 L 214.33 143.862 C 213.179 143.739 212.058 143.54 210.968 143.233 Z  M 216.971 143.893 L 216.971 117.331 C 218.184 117.04 219.243 116.763 219.643 116.671 L 220.134 116.671 L 220.134 143.31 C 219.121 143.632 218.077 143.832 216.971 143.893 Z  M 225.185 111.328 C 225.032 110.852 224.74 110.146 223.834 109.839 C 223.604 109.778 223.343 109.701 223.113 109.655 C 223.113 108.826 223.097 107.659 223.097 106.753 C 223.113 106.123 223.005 105.509 222.79 104.957 L 222.79 94.317 L 226.936 94.317 C 226.997 105.218 227.964 111.697 228.901 116.395 C 229.899 121.293 230.835 124.102 230.82 128.017 C 230.82 132.224 229.208 136.232 226.536 139.164 C 225.446 140.377 224.172 141.39 222.775 142.173 L 222.775 116.456 C 222.867 116.441 222.974 116.426 223.051 116.426 C 223.174 116.41 223.297 116.395 223.374 116.395 C 223.45 116.395 223.481 116.395 223.481 116.395 C 223.972 116.395 224.325 116.149 224.494 115.98 C 225.062 115.351 225.047 114.982 225.201 114.476 C 225.308 113.984 225.354 113.432 225.37 112.879 C 225.37 112.342 225.339 111.85 225.185 111.328 Z  M 220.134 94.317 L 220.134 102.439 C 219.182 102.085 218.123 101.963 216.971 101.947 L 216.971 94.317 L 220.134 94.317 Z  M 214.33 94.317 L 214.33 102.208 C 213.179 102.454 212.027 102.853 210.968 103.314 L 210.968 94.317 L 214.33 94.317 Z  M 208.327 94.317 L 208.327 104.634 C 207.437 105.125 206.761 105.555 206.377 105.786 C 205.18 106.538 203.568 107.981 203.26 108.258 L 203.26 108.273 C 203.721 104.742 204.059 100.304 204.105 94.317 L 208.327 94.317 L 208.327 94.317 Z  M 103.662 268.794 C 104 268.41 139.636 227.493 139.636 227.493 C 139.774 227.339 139.866 227.17 139.912 226.971 C 139.912 226.971 150.46 188.05 150.537 187.789 C 150.613 187.512 150.89 187.436 150.89 187.436 C 150.89 187.436 169.59 182.323 170.297 182.108 C 171.018 181.908 172.047 181.816 172.047 181.816 L 182.426 181.095 C 182.303 182.307 182.088 184.257 181.75 186.76 C 179.985 199.918 174.596 228.291 161.453 243.752 C 141.877 266.89 114.778 269.254 104.63 269.254 C 104.399 269.254 104.184 269.254 103.985 269.254 C 103.586 269.239 103.325 269.178 103.662 268.794 Z  M 103.017 271.864 C 103.493 271.88 104.031 271.88 104.614 271.88 C 115.116 271.88 143.075 269.469 163.449 245.456 C 180.215 225.543 184.422 187.558 185.082 180.91 L 190.333 180.542 C 190.149 183.259 189.688 189.708 188.859 198.413 C 187.769 210.097 186.049 225.819 183.547 241.987 C 181.044 258.154 178.035 274.183 175.655 286.159 C 173.889 295.018 172.477 301.65 171.863 304.506 C 171.801 304.767 171.479 305.243 170.865 305.243 C 169.406 305.243 167.947 305.381 166.458 305.366 C 161.637 305.366 156.647 304.921 151.734 303.969 C 149.155 303.401 146.606 302.771 144.073 302.034 C 125.848 296.292 115.27 288.17 109.236 281.599 C 106.211 278.298 104.323 275.365 103.202 273.277 C 103.017 272.939 102.864 272.632 102.726 272.34 C 102.588 272.049 102.756 271.864 103.017 271.864 Z  M 179.002 306.963 C 186.556 305.658 193.235 303.186 198.117 299.67 L 202.278 300.867 C 202.431 300.913 202.585 300.929 202.738 300.929 C 202.738 300.929 206.608 300.714 206.93 300.698 C 208.035 300.637 208.527 301.282 208.527 301.512 C 208.527 301.742 208.557 302.034 208.557 302.034 C 208.557 302.034 208.604 302.725 208.158 303.17 C 207.744 303.585 204.765 304.399 203.675 304.752 C 195.783 306.241 187.738 307.009 179.57 307.009 C 179.386 306.978 179.186 306.963 179.002 306.963 Z  M 298.437 228.184 C 291.912 243.537 282.638 257.325 270.77 269.193 C 258.917 281.03 245.129 290.335 229.776 296.845 C 223.727 299.409 217.539 301.481 211.244 303.063 L 211.091 300.499 C 211.091 298.948 209.34 298.18 208.373 298.18 L 202.831 298.272 C 202.831 298.272 201.126 297.858 200.911 297.797 C 200.696 297.735 200.758 297.52 200.789 297.474 C 201.172 296.998 201.203 296.323 200.819 295.831 L 196.582 290.304 L 196.72 286.374 C 209.156 286.066 218.322 281.353 222.591 278.236 C 226.797 275.119 227.058 270.375 227.074 268.963 C 227.074 268.763 227.074 268.625 227.058 268.563 L 226.936 257.54 C 226.982 257.524 227.012 257.509 227.058 257.494 L 227.058 257.494 L 238.85 250.876 C 239.311 250.615 239.556 250.124 239.525 249.602 L 231.787 163.346 C 232.125 163.238 233.215 162.855 234.459 162.394 C 235.963 161.811 237.56 161.196 238.497 160.582 C 239.341 159.983 242.888 157.005 243.748 156.114 C 244.5 155.316 244.776 154.287 244.776 153.381 C 244.761 151.969 244.224 150.695 243.671 149.697 C 243.18 148.852 242.519 148.161 241.782 147.563 C 243.41 143.939 244.239 139.932 244.224 135.786 C 244.224 128.555 242.489 122.859 240.831 117.47 C 239.157 112.081 237.545 106.983 237.545 100.719 C 237.545 89.096 237.668 82.187 237.668 82.172 C 237.668 81.819 237.53 81.481 237.284 81.22 C 237.038 80.959 236.7 80.821 236.347 80.821 C 232.447 80.805 230.022 82.095 228.686 83.538 C 228.056 84.214 227.688 84.874 227.442 85.427 L 203.583 85.427 C 203.353 84.828 202.953 84.06 202.309 83.277 C 201.019 81.681 198.593 80.145 194.816 80.161 C 194.463 80.161 194.125 80.299 193.88 80.56 C 193.634 80.805 193.496 81.143 193.496 81.496 C 193.496 81.512 193.572 90.263 193.572 102.531 C 193.572 103.498 193.526 104.45 193.45 105.402 C 192.958 104.634 192.436 103.866 191.884 103.129 C 190.41 101.241 188.859 99.567 186.94 98.938 C 185.22 98.416 182.656 97.618 179.647 96.696 C 178.541 96.343 178.096 95.852 177.774 95.284 C 177.589 94.961 177.497 94.593 177.436 94.255 L 178.894 94.286 L 178.971 94.286 C 180.292 94.24 181.412 94.071 182.38 93.672 C 183.332 93.288 184.191 92.582 184.514 91.522 C 184.683 90.985 184.729 90.463 184.729 90.002 C 184.729 89.48 184.667 89.035 184.591 88.697 L 185.22 87.592 C 185.42 87.239 185.45 86.809 185.297 86.44 C 185.589 86.179 185.742 85.78 185.711 85.381 L 185.619 84.03 C 185.681 84.014 185.742 83.999 185.819 83.999 C 186.218 83.922 186.633 83.83 187.078 83.631 C 187.293 83.523 187.523 83.4 187.769 83.155 C 188.014 82.924 188.275 82.479 188.275 81.972 C 188.275 81.619 188.199 80.775 188.076 79.439 C 187.784 76.184 187.277 70.657 187.109 68.937 C 187.646 68.216 188.583 66.726 188.613 64.776 C 188.613 63.533 188.26 62.059 187.109 60.907 C 186.003 59.787 184.268 59.126 181.965 59.096 C 180.937 58.819 175.609 57.407 174.058 57.176 C 172.907 57.008 171.371 56.747 169.56 56.747 C 166.474 56.731 162.574 57.56 158.336 60.846 C 152.855 65.16 152.41 72.883 152.379 76.307 C 152.379 76.967 152.394 77.489 152.425 77.781 C 152.241 78.334 151.964 79.47 151.964 81.281 C 151.964 82.279 152.041 83.477 152.272 84.89 C 152.809 88.313 154.928 90.386 156.801 91.461 C 157.753 92.014 158.643 92.336 159.319 92.536 L 159.319 95.054 C 158.275 95.576 151.688 98.477 145.347 102.838 C 145.209 102.961 144.687 103.252 144.196 103.82 C 144.18 103.836 144.165 103.836 144.15 103.851 L 72.863 175.936 C 72.618 176.181 72.479 176.535 72.479 176.903 C 72.495 177.256 72.648 177.609 72.909 177.84 C 72.925 177.855 77.822 182.307 83.258 187.282 C 84.609 188.526 86.006 189.785 87.357 191.028 L 74.291 208.946 C 73.186 210.343 72.479 212.385 72.495 215.087 C 72.51 220.553 75.212 228.859 83.519 241.802 C 92.992 256.526 100.238 263.313 102.925 265.539 L 99.471 269.5 C 99.348 269.623 98.243 270.79 97.106 272.31 C 96.508 273.093 95.909 273.968 95.433 274.858 C 95.31 275.073 95.203 275.288 95.11 275.519 C 92.777 273.492 90.504 271.388 88.293 269.178 C 76.456 257.325 67.152 243.537 60.673 228.168 C 53.932 212.293 50.524 195.389 50.524 177.947 C 50.524 160.552 53.932 143.663 60.673 127.756 C 67.167 112.372 76.456 98.585 88.293 86.732 C 100.162 74.894 113.934 65.59 129.303 59.08 C 145.224 52.371 162.098 48.962 179.524 48.962 C 196.935 48.962 213.824 52.355 229.73 59.08 C 245.099 65.59 258.886 74.894 270.724 86.732 C 282.577 98.585 291.866 112.372 298.391 127.756 C 305.1 143.663 308.509 160.552 308.509 177.947 C 308.555 195.404 305.146 212.308 298.437 228.184 Z " fill="rgb(0,0,0)"/></g></g></g><g><path d=" M 28.768 189.032 C 30.288 188.833 31.593 188.848 32.668 189.078 C 33.758 189.309 34.679 189.754 35.431 190.414 C 36.184 191.074 36.782 191.965 37.228 193.07 C 37.673 194.16 37.995 195.496 38.195 197.047 C 38.364 198.367 38.379 199.611 38.256 200.732 C 38.118 201.852 37.78 202.85 37.243 203.71 C 36.706 204.57 35.969 205.276 35.017 205.844 C 34.065 206.397 31.808 206.873 31.808 206.873 C 31.593 206.919 31.24 206.981 31.025 207.011 L 19.356 208.531 C 19.141 208.562 18.957 208.762 18.942 208.977 L 18.85 210.696 C 18.834 210.911 18.65 211.126 18.435 211.157 L 17.913 211.218 C 17.698 211.249 17.498 211.095 17.468 210.88 L 16.439 203.019 C 16.408 202.804 16.562 202.605 16.792 202.574 L 17.299 202.513 C 17.514 202.482 17.744 202.636 17.821 202.835 L 18.358 204.447 C 18.42 204.662 18.665 204.8 18.88 204.77 L 31.931 203.065 C 33.528 202.85 34.725 202.221 35.523 201.131 C 36.322 200.056 36.598 198.567 36.353 196.694 C 36.092 194.744 35.431 193.393 34.357 192.64 C 33.282 191.888 30.042 191.903 30.042 191.903 C 29.827 191.903 29.459 191.934 29.244 191.965 L 17.391 193.516 C 17.176 193.546 16.976 193.746 16.976 193.961 L 16.869 195.68 C 16.854 195.911 16.669 196.11 16.454 196.141 L 15.948 196.202 C 15.733 196.233 15.533 196.08 15.503 195.849 L 14.581 188.802 C 14.551 188.587 14.704 188.387 14.919 188.357 L 15.441 188.295 C 15.656 188.265 15.886 188.418 15.963 188.618 L 16.501 190.261 C 16.562 190.46 16.808 190.614 17.023 190.583 L 28.768 189.032 Z " fill="rgb(0,0,0)"/><path d=" M 14.689 170.762 C 14.704 170.547 14.873 170.27 15.057 170.163 L 31.532 160.337 L 17.744 159.323 C 17.529 159.308 17.299 159.461 17.237 159.676 L 16.792 161.304 C 16.731 161.519 16.501 161.672 16.286 161.657 L 15.764 161.626 C 15.549 161.611 15.38 161.411 15.395 161.196 L 15.902 154.426 C 15.917 154.211 16.117 154.042 16.332 154.057 L 16.854 154.103 C 17.069 154.118 17.268 154.318 17.299 154.533 L 17.498 156.253 C 17.529 156.468 17.729 156.667 17.944 156.682 L 37.473 158.156 C 37.688 158.172 37.857 158.371 37.842 158.586 L 37.688 160.506 C 37.673 160.72 37.504 160.997 37.32 161.104 L 18.282 172.266 L 34.326 173.479 C 34.541 173.495 34.771 173.341 34.833 173.126 L 35.278 171.499 C 35.339 171.284 35.554 171.13 35.784 171.145 L 36.307 171.176 C 36.521 171.192 36.69 171.376 36.675 171.606 L 36.153 178.392 C 36.138 178.607 35.938 178.776 35.723 178.761 L 35.201 178.715 C 34.986 178.699 34.787 178.5 34.756 178.285 L 34.556 176.581 C 34.526 176.366 34.326 176.166 34.111 176.151 L 16.562 174.815 C 16.347 174.8 16.117 174.953 16.055 175.168 L 15.61 176.826 C 15.549 177.041 15.334 177.195 15.103 177.179 L 14.581 177.149 C 14.366 177.133 14.197 176.934 14.213 176.719 L 14.689 170.762 Z " fill="rgb(0,0,0)"/><path d=" M 21.444 134.19 C 21.659 134.251 21.828 134.466 21.813 134.681 L 21.721 136.37 C 21.705 136.585 21.874 136.815 22.089 136.876 L 39.178 141.145 C 39.393 141.206 39.638 141.083 39.73 140.884 L 40.437 139.348 C 40.529 139.149 40.774 139.026 40.989 139.087 L 41.496 139.21 C 41.711 139.272 41.849 139.487 41.788 139.702 L 39.869 147.394 C 39.807 147.609 39.592 147.731 39.393 147.685 L 38.886 147.563 C 38.671 147.516 38.502 147.286 38.517 147.071 L 38.61 145.382 C 38.625 145.167 38.456 144.937 38.241 144.891 L 21.153 140.623 C 20.938 140.561 20.692 140.684 20.6 140.884 L 19.878 142.419 C 19.786 142.619 19.54 142.742 19.326 142.68 L 18.819 142.542 C 18.604 142.496 18.481 142.281 18.527 142.066 L 20.446 134.374 C 20.508 134.159 20.723 134.036 20.938 134.082 L 21.444 134.19 Z " fill="rgb(0,0,0)"/><path d=" M 48.221 121.231 C 48.374 121.385 48.436 121.676 48.344 121.876 L 47.422 124.056 C 47.33 124.256 47.085 124.409 46.87 124.394 L 26.127 122.997 C 25.912 122.982 25.62 123.12 25.498 123.289 L 24.73 124.333 C 24.592 124.517 24.331 124.594 24.131 124.502 L 23.655 124.302 C 23.456 124.225 23.364 123.98 23.44 123.78 L 26.281 117.101 C 26.373 116.902 26.603 116.809 26.803 116.886 L 27.279 117.086 C 27.478 117.163 27.616 117.424 27.57 117.639 L 27.325 118.974 C 27.294 119.189 27.432 119.373 27.647 119.404 L 44.306 120.694 L 32.069 108.995 C 31.915 108.841 31.685 108.872 31.547 109.056 L 30.626 110.407 C 30.503 110.591 30.242 110.668 30.027 110.591 L 29.551 110.392 C 29.351 110.3 29.259 110.069 29.336 109.87 L 31.9 103.851 C 31.992 103.651 32.222 103.559 32.422 103.636 L 32.898 103.836 C 33.098 103.928 33.236 104.174 33.19 104.388 L 32.867 105.955 C 32.821 106.169 32.913 106.477 33.067 106.615 L 48.221 121.231 Z " fill="rgb(0,0,0)"/><path d=" M 89.875 64.316 C 90.382 64.178 90.888 63.993 91.426 63.732 C 91.963 63.487 92.408 63.226 92.746 62.98 C 93.944 62.09 94.681 61.153 94.972 60.14 C 95.264 59.126 95.049 58.144 94.343 57.176 C 93.928 56.608 93.437 56.209 92.884 55.994 C 92.331 55.779 91.748 55.672 91.134 55.656 C 90.52 55.641 89.875 55.703 89.215 55.825 C 88.554 55.948 87.894 56.056 87.234 56.163 C 86.236 56.301 85.346 56.409 84.532 56.516 C 83.718 56.624 82.981 56.639 82.321 56.547 C 81.645 56.47 81.031 56.271 80.463 55.948 C 79.895 55.626 79.358 55.119 78.851 54.428 C 78.298 53.676 77.961 52.877 77.853 52.064 C 77.746 51.25 77.838 50.421 78.114 49.607 C 78.406 48.778 78.882 47.964 79.542 47.166 C 80.218 46.368 81.047 45.6 82.029 44.863 C 82.398 44.587 82.812 44.31 83.288 44.049 C 83.749 43.773 84.225 43.527 84.716 43.282 C 85.207 43.051 85.683 42.821 86.159 42.621 C 86.635 42.422 87.081 42.284 87.081 42.284 C 87.295 42.222 87.51 42.207 87.557 42.253 C 87.618 42.299 87.741 42.498 87.848 42.683 L 89.522 45.615 C 89.629 45.815 89.568 46.076 89.399 46.199 L 88.293 47.012 C 88.125 47.135 87.833 47.135 87.664 46.997 L 85.622 45.277 C 85.269 45.277 84.839 45.385 84.348 45.569 C 83.856 45.753 83.334 46.061 82.766 46.49 C 81.738 47.258 81.108 48.087 80.847 49.024 C 80.601 49.945 80.786 50.835 81.4 51.68 C 81.799 52.217 82.229 52.586 82.689 52.801 C 83.15 53 83.641 53.108 84.163 53.108 C 84.685 53.108 85.238 53.062 85.791 52.939 C 86.359 52.816 86.942 52.709 87.541 52.601 C 88.37 52.494 89.23 52.355 90.136 52.187 C 91.026 52.033 91.902 51.972 92.761 52.002 C 93.606 52.033 94.404 52.217 95.156 52.524 C 95.909 52.831 96.538 53.384 97.091 54.183 C 97.782 55.211 98.166 56.194 98.258 57.13 C 98.35 58.067 98.227 58.957 97.874 59.817 C 97.536 60.662 96.984 61.491 96.231 62.289 C 95.479 63.088 94.588 63.855 93.59 64.592 C 92.685 65.268 91.733 65.836 90.735 66.327 C 89.737 66.818 88.447 67.34 88.447 67.34 C 88.247 67.417 88.032 67.448 87.986 67.402 C 87.94 67.356 87.802 67.156 87.695 66.972 L 86.006 64.055 C 85.898 63.855 85.944 63.594 86.129 63.471 L 87.234 62.658 C 87.403 62.519 87.695 62.535 87.864 62.673 L 89.875 64.316 Z " fill="rgb(0,0,0)"/><path d=" M 105.658 31.859 C 105.766 32.058 105.704 32.319 105.535 32.473 L 104.215 33.532 C 104.046 33.67 103.985 33.947 104.092 34.131 L 112.429 49.653 C 112.537 49.853 112.798 49.945 112.997 49.884 L 114.609 49.377 C 114.824 49.315 115.07 49.408 115.177 49.607 L 115.423 50.068 C 115.531 50.267 115.454 50.498 115.254 50.605 L 108.268 54.351 C 108.069 54.459 107.838 54.382 107.731 54.183 L 107.485 53.722 C 107.378 53.538 107.439 53.261 107.608 53.123 L 108.913 52.048 C 109.082 51.91 109.144 51.649 109.036 51.45 L 100.699 35.943 C 100.592 35.743 100.346 35.635 100.131 35.712 L 98.519 36.219 C 98.304 36.28 98.058 36.173 97.951 35.989 L 97.705 35.528 C 97.598 35.328 97.674 35.083 97.874 34.991 L 104.86 31.229 C 105.059 31.122 105.305 31.198 105.397 31.398 L 105.658 31.859 Z " fill="rgb(0,0,0)"/><path d=" M 114.333 26.792 C 114.379 26.669 114.594 26.5 114.794 26.423 L 131.084 20.497 C 131.299 20.42 131.544 20.389 131.652 20.42 C 131.759 20.451 131.913 20.65 131.99 20.85 L 133.387 24.335 C 133.463 24.535 133.371 24.765 133.156 24.842 L 131.851 25.318 C 131.636 25.395 131.375 25.303 131.253 25.118 L 130.101 23.414 C 129.978 23.23 129.702 23.138 129.502 23.199 L 127.798 23.706 C 127.583 23.767 127.245 23.875 127.046 23.951 L 125.388 24.55 L 131.498 41.393 C 131.575 41.593 131.821 41.746 132.036 41.7 L 133.709 41.439 C 133.924 41.408 134.17 41.547 134.247 41.746 L 134.431 42.237 C 134.508 42.452 134.4 42.667 134.185 42.744 L 126.739 45.446 C 126.524 45.523 126.293 45.416 126.232 45.201 L 126.048 44.709 C 125.971 44.51 126.063 44.249 126.247 44.141 L 127.706 43.266 C 127.89 43.159 127.982 42.898 127.906 42.683 L 121.779 25.84 L 120.121 26.454 C 119.906 26.531 119.584 26.669 119.369 26.746 L 117.741 27.452 C 117.542 27.544 117.388 27.79 117.419 28.005 L 117.634 30.047 C 117.665 30.262 117.511 30.507 117.296 30.584 L 115.991 31.06 C 115.776 31.137 115.561 31.029 115.485 30.814 L 114.364 27.36 C 114.302 27.191 114.287 26.915 114.333 26.792 Z " fill="rgb(0,0,0)"/><path d=" M 154.221 29.095 L 146.944 30.477 L 145.823 37.14 C 145.792 37.355 145.931 37.539 146.161 37.539 L 147.665 37.57 C 147.88 37.57 148.095 37.754 148.141 37.969 L 148.234 38.476 C 148.264 38.691 148.126 38.906 147.911 38.936 L 141.539 40.134 C 141.324 40.165 141.11 40.027 141.079 39.812 L 140.987 39.305 C 140.941 39.09 141.079 38.844 141.278 38.752 L 142.583 38.2 C 142.783 38.107 142.983 37.862 143.029 37.647 L 147.051 16.705 C 147.097 16.49 147.312 16.275 147.512 16.229 L 150.306 15.707 C 150.521 15.676 150.782 15.783 150.89 15.983 L 161.253 34.192 C 161.361 34.376 161.637 34.545 161.852 34.545 L 163.234 34.591 C 163.464 34.591 163.664 34.776 163.71 34.991 L 163.802 35.497 C 163.848 35.712 163.695 35.927 163.48 35.958 L 156.187 37.34 C 155.972 37.37 155.757 37.232 155.711 37.017 L 155.619 36.511 C 155.573 36.296 155.711 36.05 155.91 35.958 L 157.215 35.405 C 157.415 35.328 157.492 35.098 157.4 34.899 L 154.221 29.095 Z  M 148.94 19.514 L 147.266 28.772 L 153.408 27.621 L 148.94 19.514 Z " fill="rgb(0,0,0)"/><path d=" M 174.381 33.578 C 174.857 33.762 175.394 33.916 175.977 34.023 C 176.561 34.131 177.067 34.192 177.482 34.192 C 178.971 34.192 180.123 33.87 180.967 33.225 C 181.796 32.58 182.211 31.674 182.211 30.477 C 182.211 29.77 182.042 29.156 181.735 28.665 C 181.412 28.158 181.013 27.728 180.522 27.345 C 180.031 26.961 179.478 26.638 178.864 26.347 C 178.265 26.055 177.651 25.748 177.067 25.441 C 176.192 24.965 175.394 24.535 174.672 24.136 C 173.966 23.737 173.352 23.322 172.861 22.861 C 172.369 22.401 171.985 21.879 171.724 21.28 C 171.463 20.681 171.325 19.96 171.325 19.1 C 171.325 18.163 171.525 17.319 171.909 16.597 C 172.308 15.876 172.861 15.261 173.582 14.77 C 174.304 14.279 175.164 13.895 176.177 13.649 C 177.19 13.388 178.311 13.265 179.555 13.25 C 180.015 13.25 180.507 13.281 181.044 13.342 C 181.581 13.404 182.119 13.48 182.641 13.572 C 183.178 13.665 183.7 13.772 184.191 13.895 C 184.698 14.018 185.128 14.171 185.128 14.171 C 185.328 14.248 185.527 14.356 185.543 14.417 C 185.558 14.494 185.558 14.724 185.527 14.939 L 185.128 18.286 C 185.097 18.501 184.898 18.685 184.683 18.685 L 183.316 18.685 C 183.101 18.685 182.871 18.516 182.825 18.301 L 182.18 15.707 C 181.888 15.492 181.489 15.323 180.983 15.2 C 180.476 15.062 179.877 15 179.155 15 C 177.881 15 176.868 15.307 176.116 15.906 C 175.363 16.505 174.995 17.334 174.995 18.378 C 174.995 19.054 175.133 19.606 175.379 20.036 C 175.624 20.466 175.962 20.85 176.392 21.157 C 176.806 21.464 177.282 21.741 177.804 21.986 C 178.326 22.232 178.864 22.478 179.417 22.754 C 180.153 23.153 180.921 23.552 181.75 23.951 C 182.564 24.351 183.301 24.827 183.961 25.349 C 184.621 25.886 185.159 26.485 185.589 27.176 C 186.003 27.867 186.203 28.696 186.157 29.648 C 186.095 30.891 185.834 31.905 185.358 32.718 C 184.882 33.532 184.253 34.177 183.47 34.653 C 182.687 35.144 181.75 35.482 180.675 35.666 C 179.601 35.866 178.434 35.958 177.175 35.958 C 176.039 35.958 174.933 35.866 173.843 35.682 C 172.753 35.482 171.402 35.144 171.402 35.144 C 171.187 35.083 171.003 34.991 171.003 34.914 C 170.987 34.852 171.003 34.607 171.033 34.392 L 171.402 31.045 C 171.433 30.83 171.632 30.646 171.847 30.646 L 173.214 30.646 C 173.429 30.646 173.659 30.814 173.705 31.029 L 174.381 33.578 Z " fill="rgb(0,0,0)"/><path d=" M 231.281 42.483 C 228.885 43.773 226.06 43.88 222.79 42.821 C 221.209 42.314 219.888 41.623 218.798 40.764 C 217.708 39.904 216.894 38.89 216.326 37.724 C 215.758 36.557 215.467 35.236 215.451 33.762 C 215.436 32.288 215.712 30.692 216.265 28.957 C 216.848 27.145 217.601 25.625 218.537 24.412 C 219.458 23.199 220.518 22.278 221.7 21.633 C 222.882 21.004 224.187 20.65 225.6 20.604 C 227.012 20.543 228.502 20.773 230.052 21.265 C 231.603 21.771 232.923 22.447 234.029 23.307 C 235.119 24.166 235.963 25.195 236.532 26.377 C 237.1 27.56 237.407 28.895 237.422 30.385 C 237.453 31.859 237.176 33.486 236.608 35.236 C 235.441 38.783 233.676 41.209 231.281 42.483 Z  M 233.261 26.669 C 232.678 24.827 231.403 23.598 229.438 22.953 C 227.442 22.309 225.677 22.539 224.126 23.644 C 222.591 24.75 221.301 26.853 220.303 29.97 C 219.274 33.118 219.059 35.605 219.627 37.447 C 220.195 39.29 221.485 40.518 223.466 41.163 C 225.462 41.808 227.227 41.577 228.778 40.472 C 230.329 39.366 231.603 37.263 232.601 34.146 C 233.614 30.999 233.829 28.511 233.261 26.669 Z " fill="rgb(0,0,0)"/><path d=" M 244.193 48.947 C 244.531 49.346 244.915 49.73 245.375 50.114 C 245.836 50.498 246.25 50.789 246.619 50.989 C 247.924 51.695 249.091 51.972 250.135 51.803 C 251.179 51.649 251.977 51.035 252.545 49.991 C 252.883 49.362 253.037 48.763 253.006 48.164 C 252.975 47.581 252.822 46.997 252.576 46.429 C 252.315 45.861 252.008 45.308 251.609 44.771 C 251.209 44.218 250.841 43.681 250.473 43.113 C 249.935 42.268 249.444 41.501 249.014 40.81 C 248.584 40.119 248.262 39.458 248.047 38.814 C 247.832 38.169 247.755 37.539 247.816 36.879 C 247.878 36.234 248.108 35.528 248.507 34.776 C 248.953 33.947 249.536 33.302 250.227 32.872 C 250.918 32.427 251.701 32.15 252.576 32.073 C 253.451 31.981 254.388 32.073 255.401 32.334 C 256.414 32.595 257.458 33.025 258.548 33.609 C 258.948 33.824 259.378 34.085 259.807 34.407 C 260.253 34.714 260.683 35.037 261.097 35.374 C 261.527 35.712 261.926 36.065 262.31 36.403 C 262.694 36.756 263.001 37.094 263.001 37.094 C 263.155 37.263 263.262 37.447 263.231 37.509 C 263.216 37.57 263.093 37.785 262.97 37.954 L 261.02 40.702 C 260.898 40.886 260.621 40.948 260.437 40.84 L 259.239 40.18 C 259.04 40.073 258.932 39.812 258.994 39.597 L 259.685 37.017 C 259.531 36.695 259.255 36.357 258.886 35.989 C 258.502 35.635 258.011 35.282 257.382 34.945 C 256.261 34.346 255.232 34.115 254.28 34.284 C 253.328 34.453 252.607 34.991 252.115 35.912 C 251.793 36.495 251.639 37.048 251.655 37.555 C 251.67 38.061 251.778 38.553 251.993 39.029 C 252.207 39.505 252.499 39.965 252.837 40.441 C 253.19 40.902 253.528 41.378 253.881 41.884 C 254.326 42.575 254.818 43.312 255.34 44.049 C 255.862 44.802 256.291 45.569 256.614 46.352 C 256.936 47.135 257.121 47.934 257.151 48.732 C 257.182 49.546 256.952 50.359 256.46 51.189 C 255.816 52.248 255.094 53.016 254.28 53.492 C 253.466 53.968 252.607 54.229 251.685 54.275 C 250.764 54.321 249.782 54.167 248.753 53.829 C 247.724 53.476 246.649 53.016 245.544 52.417 C 244.546 51.879 243.625 51.265 242.765 50.574 C 241.905 49.884 240.877 48.932 240.877 48.932 C 240.708 48.778 240.6 48.609 240.631 48.532 C 240.662 48.471 240.784 48.271 240.907 48.087 L 242.842 45.324 C 242.965 45.155 243.226 45.093 243.425 45.185 L 244.623 45.83 C 244.822 45.938 244.93 46.199 244.868 46.414 L 244.193 48.947 Z " fill="rgb(0,0,0)"/><path d=" M 267.054 63.379 C 266.916 63.548 266.947 63.809 267.116 63.947 L 269.818 66.066 C 269.987 66.204 270.279 66.419 270.463 66.542 L 271.906 67.54 C 272.09 67.663 272.382 67.648 272.551 67.509 L 274.316 66.081 C 274.485 65.943 274.777 65.943 274.946 66.081 L 276.051 66.941 C 276.22 67.079 276.251 67.325 276.113 67.494 L 273.779 70.273 C 273.641 70.442 273.457 70.641 273.38 70.703 C 273.303 70.78 273.088 70.718 272.919 70.58 L 261.205 61.399 C 261.036 61.26 261.005 61.015 261.143 60.831 L 261.466 60.431 C 261.604 60.262 261.88 60.201 262.064 60.293 L 263.569 61.061 C 263.769 61.168 264.03 61.107 264.168 60.923 L 275.038 47.074 C 275.176 46.905 275.161 46.629 275.023 46.46 L 273.917 45.185 C 273.779 45.016 273.764 44.74 273.902 44.571 L 274.224 44.172 C 274.363 44.003 274.608 43.957 274.792 44.095 L 281.011 48.962 C 281.18 49.1 281.21 49.346 281.087 49.53 L 280.765 49.945 C 280.627 50.114 280.366 50.175 280.166 50.083 L 278.662 49.315 C 278.462 49.208 278.186 49.269 278.063 49.454 L 267.054 63.379 Z " fill="rgb(0,0,0)"/><path d=" M 293.063 88.037 C 290.346 87.914 287.858 86.578 285.586 83.999 C 284.496 82.755 283.697 81.496 283.206 80.207 C 282.715 78.917 282.515 77.627 282.623 76.322 C 282.73 75.017 283.16 73.743 283.882 72.469 C 284.619 71.194 285.663 69.951 287.029 68.753 C 288.457 67.494 289.885 66.573 291.297 65.989 C 292.71 65.406 294.092 65.145 295.428 65.206 C 296.763 65.268 298.053 65.636 299.312 66.312 C 300.556 66.987 301.722 67.924 302.797 69.152 C 303.872 70.38 304.67 71.639 305.177 72.929 C 305.684 74.234 305.868 75.539 305.76 76.844 C 305.653 78.165 305.223 79.454 304.486 80.744 C 303.749 82.034 302.69 83.277 301.308 84.506 C 298.529 86.978 295.781 88.16 293.063 88.037 Z  M 302.813 75.432 C 303.258 73.559 302.782 71.839 301.415 70.288 C 300.034 68.722 298.391 68.016 296.502 68.185 C 294.614 68.354 292.434 69.521 289.992 71.67 C 287.505 73.866 286.047 75.892 285.601 77.765 C 285.156 79.639 285.617 81.358 287.014 82.924 C 288.396 84.49 290.038 85.197 291.927 85.028 C 293.815 84.859 295.996 83.707 298.437 81.542 C 300.924 79.347 302.383 77.32 302.813 75.432 Z " fill="rgb(0,0,0)"/><path d=" M 311.825 101.855 C 311.994 101.717 312.04 101.441 311.933 101.256 L 309.553 97.203 L 301.707 101.932 L 304.271 106.246 C 304.379 106.43 304.578 106.738 304.701 106.922 L 305.684 108.365 C 305.807 108.549 306.083 108.641 306.282 108.58 L 308.432 107.874 C 308.632 107.812 308.908 107.904 309.015 108.089 L 309.752 109.317 C 309.86 109.501 309.798 109.747 309.599 109.854 L 306.421 111.605 C 306.221 111.712 305.991 111.82 305.899 111.866 C 305.807 111.896 305.622 111.773 305.515 111.589 L 297.27 97.71 C 297.163 97.525 297.224 97.28 297.408 97.157 L 297.853 96.896 C 298.038 96.788 298.314 96.819 298.468 96.988 L 299.588 98.262 C 299.727 98.431 300.003 98.462 300.203 98.355 L 315.341 89.357 C 315.525 89.25 315.617 88.989 315.556 88.774 L 314.988 87.177 C 314.911 86.962 315.003 86.717 315.203 86.594 L 315.648 86.333 C 315.832 86.225 316.078 86.287 316.201 86.471 L 324.062 99.706 C 324.169 99.89 324.261 100.136 324.246 100.258 C 324.231 100.366 324.077 100.565 323.893 100.688 L 320.73 102.715 C 320.546 102.838 320.3 102.776 320.193 102.592 L 319.471 101.395 C 319.364 101.21 319.394 100.934 319.563 100.78 L 321.283 99.168 C 321.436 99.015 321.498 98.738 321.39 98.539 L 320.577 96.957 C 320.484 96.758 320.3 96.451 320.193 96.266 L 317.874 92.351 L 310.935 96.497 L 313.33 100.535 C 313.437 100.719 313.698 100.811 313.913 100.734 L 315.495 100.136 C 315.694 100.059 315.955 100.151 316.078 100.35 L 316.677 101.364 C 316.784 101.563 316.723 101.794 316.539 101.917 L 311.426 104.957 C 311.242 105.064 310.996 105.003 310.873 104.818 L 310.274 103.805 C 310.167 103.621 310.213 103.344 310.382 103.206 L 311.825 101.855 Z " fill="rgb(0,0,0)"/><path d=" M 52.397 92.474 C 52.197 92.382 51.936 92.474 51.814 92.658 L 49.234 96.589 L 56.942 101.548 L 59.69 97.341 C 59.813 97.157 59.997 96.85 60.104 96.65 L 60.964 95.13 C 61.072 94.931 61.041 94.654 60.887 94.501 L 59.306 92.889 C 59.153 92.735 59.122 92.459 59.245 92.275 L 60.028 91.077 C 60.151 90.893 60.396 90.847 60.58 90.969 L 63.559 93.058 C 63.743 93.18 63.943 93.349 64.02 93.411 C 64.096 93.487 64.066 93.687 63.943 93.871 L 55.13 107.398 C 55.007 107.582 54.761 107.628 54.577 107.505 L 54.147 107.229 C 53.963 107.106 53.886 106.845 53.963 106.645 L 54.608 105.079 C 54.685 104.88 54.608 104.619 54.424 104.496 L 39.669 94.885 C 39.485 94.762 39.208 94.793 39.055 94.961 L 37.873 96.174 C 37.719 96.328 37.443 96.359 37.258 96.236 L 36.829 95.959 C 36.644 95.837 36.598 95.591 36.706 95.407 L 45.119 82.51 C 45.242 82.325 45.426 82.141 45.534 82.095 C 45.641 82.049 45.887 82.111 46.071 82.233 L 49.296 84.183 C 49.48 84.291 49.541 84.536 49.418 84.721 L 48.651 85.887 C 48.528 86.072 48.267 86.164 48.052 86.087 L 45.841 85.273 C 45.641 85.197 45.365 85.273 45.227 85.458 L 44.168 86.885 C 44.029 87.07 43.83 87.361 43.707 87.546 L 41.204 91.353 L 47.991 95.76 L 50.555 91.829 C 50.677 91.645 50.647 91.369 50.478 91.231 L 49.25 90.064 C 49.096 89.91 49.065 89.634 49.173 89.449 L 49.818 88.467 C 49.94 88.283 50.186 88.221 50.37 88.344 L 55.36 91.599 C 55.544 91.722 55.606 91.967 55.483 92.152 L 54.838 93.15 C 54.715 93.334 54.454 93.411 54.255 93.319 L 52.397 92.474 Z " fill="rgb(0,0,0)"/><path d=" M 332.921 119.159 C 332.998 119.358 332.952 119.681 332.813 119.865 L 321.575 135.433 L 334.656 130.873 C 334.855 130.796 335.009 130.566 334.978 130.351 L 334.733 128.678 C 334.702 128.463 334.84 128.217 335.055 128.156 L 335.546 127.987 C 335.761 127.91 335.992 128.033 336.053 128.232 L 338.279 134.65 C 338.356 134.865 338.233 135.095 338.034 135.157 L 337.542 135.326 C 337.343 135.403 337.082 135.31 336.959 135.111 L 336.099 133.606 C 335.992 133.422 335.731 133.314 335.516 133.391 L 316.999 139.794 C 316.784 139.87 316.569 139.748 316.493 139.548 L 315.863 137.721 C 315.786 137.506 315.832 137.199 315.971 137.015 L 329.006 119.189 L 313.79 124.455 C 313.575 124.532 313.437 124.763 313.468 124.978 L 313.714 126.651 C 313.744 126.866 313.606 127.112 313.391 127.173 L 312.9 127.342 C 312.685 127.419 312.455 127.311 312.393 127.096 L 310.167 120.679 C 310.09 120.479 310.198 120.233 310.413 120.172 L 310.904 120.003 C 311.103 119.926 311.364 120.018 311.472 120.218 L 312.332 121.707 C 312.439 121.891 312.7 121.999 312.915 121.922 L 329.558 116.165 C 329.773 116.088 329.912 115.858 329.881 115.643 L 329.635 113.938 C 329.604 113.723 329.743 113.478 329.958 113.416 L 330.449 113.247 C 330.664 113.186 330.879 113.293 330.956 113.493 L 332.921 119.159 Z " fill="rgb(0,0,0)"/><path d=" M 321.375 152.829 C 321.252 153.32 321.191 153.873 321.16 154.472 C 321.129 155.07 321.145 155.577 321.206 155.992 C 321.421 157.45 321.897 158.556 322.649 159.293 C 323.402 160.03 324.369 160.321 325.551 160.152 C 326.257 160.045 326.825 159.815 327.286 159.415 C 327.731 159.032 328.115 158.571 328.422 158.034 C 328.729 157.496 328.975 156.897 329.175 156.253 C 329.374 155.608 329.589 154.978 329.819 154.349 C 330.173 153.412 330.495 152.552 330.787 151.8 C 331.078 151.032 331.416 150.388 331.8 149.819 C 332.184 149.267 332.66 148.821 333.213 148.484 C 333.765 148.146 334.472 147.916 335.316 147.793 C 336.253 147.655 337.097 147.731 337.865 148.023 C 338.632 148.315 339.323 148.775 339.907 149.42 C 340.49 150.065 340.981 150.864 341.381 151.846 C 341.78 152.813 342.056 153.919 342.24 155.132 C 342.302 155.592 342.348 156.084 342.363 156.606 C 342.379 157.143 342.379 157.68 342.363 158.218 C 342.348 158.755 342.302 159.293 342.256 159.799 C 342.194 160.321 342.118 160.767 342.118 160.767 C 342.071 160.981 341.995 161.181 341.918 161.212 C 341.857 161.242 341.611 161.273 341.396 161.273 L 338.018 161.35 C 337.803 161.35 337.588 161.181 337.558 160.966 L 337.358 159.615 C 337.327 159.4 337.465 159.154 337.68 159.062 L 340.152 158.08 C 340.321 157.757 340.429 157.343 340.49 156.836 C 340.552 156.314 340.536 155.715 340.429 154.994 C 340.244 153.735 339.815 152.767 339.108 152.107 C 338.402 151.447 337.542 151.201 336.514 151.339 C 335.853 151.432 335.316 151.631 334.917 151.954 C 334.518 152.261 334.195 152.645 333.934 153.105 C 333.688 153.566 333.474 154.072 333.305 154.625 C 333.136 155.178 332.967 155.746 332.767 156.314 C 332.476 157.097 332.184 157.926 331.907 158.786 C 331.616 159.646 331.263 160.444 330.817 161.181 C 330.387 161.903 329.85 162.532 329.236 163.039 C 328.606 163.545 327.823 163.853 326.856 163.945 C 325.628 164.068 324.569 163.945 323.709 163.576 C 322.849 163.208 322.112 162.686 321.529 161.979 C 320.945 161.273 320.469 160.398 320.131 159.354 C 319.794 158.325 319.533 157.174 319.348 155.93 C 319.195 154.809 319.133 153.704 319.164 152.598 C 319.21 151.493 319.364 150.111 319.364 150.111 C 319.394 149.896 319.456 149.697 319.533 149.681 C 319.594 149.666 319.84 149.651 320.055 149.635 L 323.432 149.543 C 323.647 149.528 323.862 149.712 323.893 149.927 L 324.093 151.278 C 324.123 151.493 323.985 151.739 323.785 151.831 L 321.375 152.829 Z " fill="rgb(0,0,0)"/><path d=" M 342.517 182.492 C 342.302 182.492 342.087 182.323 342.041 182.108 L 341.703 180.45 C 341.657 180.235 341.442 180.066 341.227 180.066 L 323.617 180.143 C 323.386 180.143 323.187 180.327 323.141 180.542 L 322.834 182.2 C 322.788 182.415 322.588 182.599 322.358 182.599 L 321.836 182.599 C 321.621 182.599 321.436 182.415 321.436 182.2 L 321.406 174.278 C 321.406 174.063 321.59 173.878 321.805 173.878 L 322.327 173.878 C 322.542 173.878 322.757 174.047 322.803 174.262 L 323.125 175.92 C 323.171 176.135 323.386 176.304 323.601 176.304 L 341.212 176.227 C 341.427 176.227 341.642 176.043 341.688 175.828 L 341.995 174.17 C 342.041 173.955 342.256 173.771 342.471 173.771 L 342.993 173.771 C 343.223 173.771 343.392 173.955 343.392 174.17 L 343.423 182.093 C 343.423 182.307 343.238 182.492 343.023 182.492 L 342.517 182.492 Z " fill="rgb(0,0,0)"/><path d=" M 322.358 195.895 C 322.097 196.341 321.866 196.847 321.667 197.4 C 321.467 197.953 321.329 198.444 321.268 198.859 C 321.037 200.317 321.175 201.515 321.682 202.451 C 322.173 203.372 323.018 203.925 324.2 204.109 C 324.906 204.217 325.536 204.156 326.073 203.925 C 326.611 203.695 327.117 203.357 327.562 202.943 C 328.008 202.513 328.422 202.021 328.806 201.469 C 329.19 200.916 329.574 200.379 329.988 199.841 C 330.602 199.058 331.155 198.337 331.662 197.692 C 332.168 197.047 332.675 196.525 333.213 196.11 C 333.75 195.696 334.318 195.404 334.963 195.235 C 335.592 195.066 336.329 195.051 337.174 195.189 C 338.11 195.327 338.893 195.665 339.554 196.156 C 340.214 196.663 340.72 197.308 341.089 198.106 C 341.457 198.889 341.703 199.81 341.78 200.855 C 341.872 201.899 341.826 203.035 341.626 204.248 C 341.565 204.708 341.442 205.184 341.304 205.706 C 341.166 206.228 340.997 206.735 340.828 207.242 C 340.659 207.764 340.459 208.24 340.26 208.731 C 340.06 209.207 339.845 209.606 339.845 209.606 C 339.738 209.806 339.6 209.959 339.523 209.974 C 339.446 209.974 339.216 209.928 339.001 209.882 L 335.746 208.961 C 335.531 208.9 335.393 208.669 335.423 208.454 L 335.638 207.103 C 335.669 206.888 335.884 206.704 336.099 206.673 L 338.755 206.459 C 339.001 206.198 339.231 205.829 339.446 205.368 C 339.661 204.892 339.815 204.309 339.937 203.603 C 340.137 202.344 339.999 201.3 339.523 200.455 C 339.047 199.626 338.295 199.12 337.266 198.966 C 336.606 198.859 336.038 198.905 335.562 199.073 C 335.086 199.258 334.656 199.519 334.287 199.887 C 333.919 200.256 333.566 200.67 333.243 201.146 C 332.921 201.622 332.583 202.113 332.23 202.605 C 331.723 203.265 331.201 203.971 330.679 204.708 C 330.142 205.445 329.574 206.105 328.944 206.673 C 328.315 207.242 327.624 207.671 326.872 207.979 C 326.135 208.286 325.275 208.347 324.338 208.147 C 323.125 207.886 322.158 207.472 321.436 206.873 C 320.715 206.274 320.177 205.537 319.824 204.693 C 319.471 203.848 319.287 202.866 319.272 201.776 C 319.256 200.686 319.348 199.519 319.533 198.275 C 319.701 197.154 319.978 196.08 320.346 195.036 C 320.715 193.991 321.268 192.717 321.268 192.717 C 321.36 192.518 321.482 192.349 321.559 192.349 C 321.621 192.349 321.866 192.395 322.066 192.456 L 325.321 193.347 C 325.536 193.408 325.674 193.623 325.643 193.853 L 325.428 195.204 C 325.398 195.419 325.183 195.619 324.968 195.634 L 322.358 195.895 Z " fill="rgb(0,0,0)"/></g><g><path d=" M 84.762 309.281 C 84.962 309.373 85.223 309.296 85.346 309.112 L 94.404 296.092 L 77.531 305.658 C 77.331 305.765 77.039 305.734 76.87 305.596 L 76.195 305.043 C 76.026 304.905 75.934 304.613 75.98 304.399 L 80.862 286.174 L 70.622 297.336 C 70.468 297.489 70.437 297.766 70.576 297.935 L 71.604 299.332 C 71.742 299.516 71.727 299.792 71.574 299.946 L 71.22 300.314 C 71.067 300.468 70.821 300.483 70.652 300.33 L 65.662 295.678 C 65.494 295.524 65.494 295.279 65.647 295.11 L 66 294.726 C 66.154 294.572 66.43 294.526 66.614 294.649 L 68.058 295.555 C 68.242 295.662 68.518 295.632 68.672 295.478 L 80.264 282.612 C 80.417 282.443 80.417 282.182 80.264 282.013 L 79.173 280.708 C 79.035 280.539 79.035 280.263 79.173 280.094 L 79.496 279.695 C 79.634 279.526 79.895 279.495 80.064 279.633 L 85.284 283.871 C 85.453 284.009 85.545 284.301 85.499 284.516 L 81.338 300.56 L 95.632 292.776 C 95.832 292.668 96.124 292.699 96.293 292.837 L 101.298 296.906 C 101.467 297.044 101.497 297.29 101.359 297.459 L 101.037 297.858 C 100.899 298.027 100.622 298.088 100.438 297.981 L 98.933 297.167 C 98.734 297.06 98.473 297.121 98.335 297.29 L 88.447 311.338 C 88.324 311.523 88.34 311.799 88.493 311.968 L 89.66 313.211 C 89.813 313.365 89.829 313.641 89.691 313.826 L 89.384 314.24 C 89.245 314.424 89 314.455 88.831 314.332 L 82.398 309.619 C 82.229 309.496 82.183 309.235 82.306 309.066 L 82.613 308.651 C 82.736 308.467 83.012 308.406 83.211 308.498 L 84.762 309.281 Z " fill="rgb(0,0,0)"/><path d=" M 122.562 308.16 C 124.113 308.943 125.464 309.834 126.631 310.832 C 127.783 311.814 128.658 312.935 129.241 314.163 C 129.825 315.392 130.086 316.758 130.024 318.247 C 129.948 319.752 129.456 321.395 128.535 323.207 C 127.675 324.895 126.662 326.247 125.495 327.245 C 124.328 328.243 123.069 328.918 121.703 329.256 C 120.336 329.594 118.893 329.624 117.358 329.348 C 115.822 329.072 112.982 327.859 112.982 327.859 C 112.782 327.767 112.46 327.628 112.26 327.521 L 104.645 323.621 C 104.445 323.529 104.369 323.283 104.476 323.084 L 104.706 322.623 C 104.798 322.424 105.059 322.316 105.274 322.377 L 106.917 322.853 C 107.132 322.915 107.378 322.807 107.485 322.608 L 115.485 306.978 C 115.592 306.778 115.531 306.517 115.346 306.379 L 114.011 305.335 C 113.842 305.197 113.78 304.936 113.872 304.736 L 114.103 304.276 C 114.21 304.076 114.44 303.999 114.64 304.107 L 122.562 308.16 Z  M 126.14 317.418 C 126.355 316.205 126.324 315.1 126.063 314.117 C 125.787 313.135 125.265 312.244 124.512 311.476 C 123.745 310.693 121.856 309.573 121.856 309.573 C 121.672 309.45 121.35 309.281 121.15 309.189 L 119.154 308.16 L 110.664 324.757 L 112.567 325.74 C 113.489 326.2 114.379 326.584 115.224 326.876 C 116.083 327.152 116.897 327.291 117.695 327.275 C 118.954 327.168 120.183 326.676 121.396 325.801 C 122.609 324.911 123.714 323.483 124.712 321.518 C 125.449 319.998 125.925 318.631 126.14 317.418 Z " fill="rgb(0,0,0)"/><path d=" M 160.117 323.621 C 160.071 322.884 160.086 322.761 160.071 322.239 C 160.04 321.594 159.841 321.364 159.196 320.95 C 158.935 320.796 158.659 320.658 158.367 320.535 C 157.891 320.32 157.354 320.151 156.755 320.044 C 155.665 319.844 154.636 319.859 153.669 320.074 C 152.701 320.289 151.842 320.719 151.074 321.364 C 150.306 322.009 149.646 322.869 149.093 323.944 C 148.541 325.018 148.141 326.323 147.865 327.813 C 147.282 331.006 147.512 333.478 148.541 335.259 C 149.569 337.04 151.366 338.161 153.899 338.621 C 154.636 338.76 155.45 338.806 156.325 338.775 C 157.077 338.744 157.922 338.637 158.904 338.514 C 159.411 338.453 159.457 338.821 159.457 338.821 L 159.518 339.22 C 159.518 339.22 159.564 339.681 159.181 339.834 C 158.321 340.157 157.338 340.387 156.248 340.541 C 154.974 340.71 153.592 340.663 152.072 340.387 C 150.629 340.126 149.308 339.681 148.111 339.067 C 146.913 338.437 145.946 337.623 145.163 336.579 C 144.395 335.551 143.858 334.292 143.566 332.818 C 143.274 331.344 143.32 329.624 143.674 327.644 C 144.042 325.648 144.641 323.99 145.485 322.654 C 146.33 321.333 147.358 320.289 148.571 319.537 C 149.769 318.785 151.12 318.324 152.625 318.125 C 154.129 317.925 155.711 317.986 157.384 318.293 C 158.52 318.508 159.564 318.8 160.516 319.199 C 161.177 319.476 161.806 319.752 162.389 320.044 C 163.203 320.443 162.988 321.134 162.988 321.134 L 162.113 324.02 C 162.113 324.02 161.898 324.65 161.345 324.558 C 160.854 324.466 160.547 324.419 160.547 324.419 C 160.547 324.419 160.163 324.358 160.117 323.621 Z " fill="rgb(0,0,0)"/><path d=" M 193.572 324.358 C 193.357 323.652 193.342 323.529 193.204 323.022 C 193.02 322.408 192.759 322.224 192.037 321.978 C 191.761 321.886 191.454 321.809 191.131 321.763 C 190.625 321.671 190.056 321.641 189.458 321.671 C 188.337 321.733 187.354 321.994 186.464 322.424 C 185.589 322.869 184.852 323.483 184.253 324.297 C 183.654 325.11 183.224 326.108 182.948 327.275 C 182.671 328.457 182.579 329.809 182.671 331.329 C 182.856 334.553 183.669 336.917 185.097 338.407 C 186.525 339.88 188.521 340.556 191.101 340.402 C 191.853 340.356 192.651 340.218 193.496 339.973 C 194.217 339.773 195.016 339.466 195.937 339.113 C 196.413 338.929 196.551 339.282 196.551 339.282 L 196.689 339.65 C 196.689 339.65 196.843 340.08 196.505 340.326 C 195.753 340.848 194.847 341.293 193.818 341.708 C 192.621 342.168 191.269 342.46 189.734 342.552 C 188.26 342.644 186.878 342.521 185.573 342.199 C 184.268 341.876 183.117 341.308 182.119 340.495 C 181.121 339.681 180.307 338.575 179.678 337.224 C 179.048 335.858 178.68 334.169 178.557 332.173 C 178.434 330.146 178.633 328.396 179.14 326.907 C 179.647 325.417 180.399 324.158 181.397 323.145 C 182.395 322.132 183.593 321.364 185.005 320.811 C 186.418 320.274 187.968 319.936 189.673 319.844 C 190.824 319.767 191.914 319.813 192.928 319.982 C 193.634 320.09 194.309 320.213 194.954 320.351 C 195.845 320.55 195.799 321.272 195.799 321.272 L 195.63 324.281 C 195.63 324.281 195.584 324.942 195.016 324.988 C 194.509 325.018 194.217 325.034 194.217 325.034 C 194.217 325.034 193.803 325.064 193.572 324.358 Z " fill="rgb(0,0,0)"/><path d=" M 226.214 317.48 C 225.845 316.835 225.815 316.712 225.569 316.251 C 225.262 315.683 224.97 315.561 224.218 315.468 C 223.926 315.422 223.604 315.438 223.281 315.438 C 222.759 315.453 222.207 315.545 221.623 315.699 C 220.549 315.99 219.627 316.451 218.86 317.065 C 218.092 317.679 217.509 318.432 217.094 319.353 C 216.679 320.274 216.465 321.333 216.449 322.546 C 216.418 323.759 216.618 325.095 217.017 326.569 C 217.877 329.686 219.167 331.82 220.871 332.971 C 222.575 334.123 224.679 334.353 227.166 333.662 C 227.888 333.463 228.64 333.156 229.408 332.756 C 230.068 332.403 230.789 331.943 231.618 331.405 C 232.048 331.129 232.263 331.436 232.263 331.436 L 232.478 331.774 C 232.478 331.774 232.724 332.158 232.447 332.465 C 231.818 333.125 231.035 333.754 230.114 334.369 C 229.039 335.09 227.78 335.643 226.291 336.057 C 224.878 336.441 223.496 336.626 222.161 336.579 C 220.825 336.533 219.581 336.226 218.43 335.643 C 217.278 335.044 216.265 334.154 215.359 332.956 C 214.453 331.758 213.732 330.177 213.21 328.258 C 212.672 326.308 212.488 324.542 212.672 322.976 C 212.856 321.41 213.332 320.028 214.085 318.831 C 214.837 317.633 215.85 316.62 217.125 315.791 C 218.384 314.977 219.842 314.332 221.485 313.872 C 222.591 313.565 223.665 313.38 224.694 313.319 C 225.416 313.273 226.107 313.257 226.751 313.257 C 227.657 313.257 227.765 313.979 227.765 313.979 L 228.241 316.958 C 228.241 316.958 228.333 317.618 227.78 317.771 C 227.289 317.91 226.997 317.986 226.997 317.986 C 226.997 317.986 226.582 318.109 226.214 317.48 Z " fill="rgb(0,0,0)"/><path d=" M 253.374 312.152 L 243.686 307.761 C 243.487 307.669 243.149 307.653 242.934 307.715 L 241.475 308.16 C 241.26 308.222 240.999 308.129 240.892 307.93 L 240.631 307.485 C 240.523 307.285 240.585 307.055 240.784 306.932 L 247.755 302.971 C 247.939 302.863 248.185 302.925 248.308 303.109 L 248.569 303.569 C 248.676 303.754 248.63 304.03 248.477 304.184 L 247.617 304.982 C 247.448 305.135 247.479 305.335 247.678 305.427 L 254.587 308.713 L 255.432 301.005 C 255.462 300.79 255.309 300.652 255.094 300.729 L 253.881 301.113 C 253.666 301.174 253.405 301.082 253.298 300.883 L 253.037 300.437 C 252.929 300.238 252.99 299.992 253.19 299.885 L 258.717 296.737 C 258.902 296.63 259.147 296.691 259.255 296.891 L 259.516 297.336 C 259.623 297.52 259.577 297.797 259.408 297.95 L 258.149 299.056 C 257.98 299.194 257.827 299.501 257.811 299.716 L 256.737 309.527 L 267.469 314.516 C 267.668 314.609 268.006 314.624 268.221 314.563 L 269.71 314.102 C 269.925 314.041 270.186 314.133 270.294 314.332 L 270.555 314.777 C 270.662 314.962 270.601 315.207 270.401 315.315 L 263.4 319.307 C 263.201 319.414 262.97 319.353 262.863 319.153 L 262.602 318.708 C 262.494 318.508 262.54 318.232 262.709 318.094 L 263.646 317.249 C 263.815 317.096 263.784 316.896 263.584 316.804 L 255.524 312.935 L 254.541 321.963 C 254.51 322.178 254.664 322.301 254.879 322.239 L 256.03 321.886 C 256.245 321.825 256.506 321.917 256.614 322.116 L 256.875 322.562 C 256.982 322.746 256.921 322.992 256.721 323.099 L 251.163 326.262 C 250.979 326.369 250.734 326.308 250.626 326.108 L 250.365 325.663 C 250.258 325.464 250.304 325.203 250.473 325.049 L 251.731 323.944 C 251.9 323.805 252.054 323.498 252.085 323.283 L 253.374 312.152 Z " fill="rgb(0,0,0)"/><path d=" M 277.387 282.673 C 277.525 282.842 277.541 283.119 277.403 283.287 L 276.359 284.639 C 276.22 284.807 276.236 285.099 276.374 285.253 L 287.996 298.426 C 288.135 298.595 288.411 298.641 288.611 298.518 L 290.069 297.658 C 290.253 297.551 290.53 297.582 290.683 297.75 L 291.021 298.134 C 291.159 298.303 291.144 298.549 290.99 298.702 L 285.018 303.969 C 284.849 304.107 284.603 304.107 284.45 303.938 L 284.112 303.554 C 283.958 303.385 283.958 303.109 284.097 302.94 L 285.141 301.589 C 285.279 301.42 285.264 301.144 285.125 300.975 L 273.503 287.801 C 273.365 287.632 273.088 287.586 272.889 287.709 L 271.43 288.569 C 271.23 288.677 270.969 288.63 270.816 288.477 L 270.478 288.093 C 270.34 287.924 270.355 287.679 270.509 287.525 L 276.481 282.259 C 276.65 282.105 276.896 282.136 277.049 282.289 L 277.387 282.673 Z " fill="rgb(0,0,0)"/></g><g><path d=" M 79.327 76.322 C 79.542 76.353 79.849 76.261 79.987 76.107 L 83.304 72.622 C 83.457 72.453 83.442 72.208 83.288 72.054 L 82.92 71.701 C 82.751 71.547 82.474 71.532 82.306 71.655 L 81.047 72.53 C 80.862 72.653 80.54 72.73 80.325 72.699 L 70.407 71.087 C 70.192 71.056 70.084 70.856 70.176 70.657 C 70.176 70.657 71.389 68.047 71.343 66.68 C 71.297 65.314 70.683 64.086 69.516 62.965 C 68.687 62.166 67.843 61.706 66.998 61.583 C 66.154 61.46 65.325 61.552 64.511 61.844 C 63.697 62.136 62.929 62.596 62.177 63.195 C 61.425 63.794 60.365 64.838 60.365 64.838 C 60.212 64.991 59.951 65.252 59.797 65.406 L 53.963 71.532 C 53.81 71.701 53.825 71.947 53.978 72.1 L 54.347 72.453 C 54.5 72.607 54.777 72.622 54.961 72.499 L 56.358 71.486 C 56.542 71.363 56.819 71.378 56.972 71.532 L 69.731 83.677 C 69.885 83.83 69.915 84.106 69.808 84.291 L 68.871 85.734 C 68.748 85.918 68.779 86.195 68.948 86.348 L 69.332 86.701 C 69.485 86.855 69.746 86.839 69.9 86.686 L 75.366 80.944 C 75.519 80.79 75.504 80.529 75.35 80.376 L 74.967 80.007 C 74.813 79.854 74.537 79.838 74.352 79.961 L 72.971 80.944 C 72.786 81.066 72.51 81.051 72.357 80.898 L 66.476 75.309 L 67.351 74.388 C 67.505 74.234 67.812 74.127 68.027 74.173 L 79.327 76.322 Z  M 65.77 74.096 C 65.616 74.265 65.509 74.357 65.509 74.357 L 59.168 68.354 L 60.304 67.172 C 60.458 67.003 60.703 66.757 60.872 66.603 C 60.872 66.603 61.563 65.928 62.054 65.559 C 62.546 65.206 63.037 64.961 63.544 64.853 C 64.05 64.746 64.572 64.776 65.11 64.961 C 65.647 65.145 66.2 65.513 66.783 66.051 C 68.042 67.248 68.641 68.415 68.564 69.551 C 68.503 70.688 67.06 72.653 67.06 72.653 C 66.937 72.837 66.691 73.113 66.553 73.267 L 65.77 74.096 Z " fill="rgb(0,0,0)"/></g></g></g><g><g><path d=" M 440.534 87.883 L 440.534 86.01 L 475.509 86.01 L 475.509 87.883 C 465.375 89.142 465.176 90.386 465.176 101.348 L 465.176 131.518 C 465.176 147.9 470.703 157.097 484.905 157.097 C 500.259 157.097 505.479 146.35 505.786 130.689 L 505.786 101.256 C 505.786 90.509 505.571 89.142 495.453 87.899 L 495.453 86.026 L 521.032 86.026 L 521.032 87.899 C 510.899 89.158 510.699 90.509 510.699 101.256 L 510.699 130.489 C 510.699 153.136 500.151 163.054 481.466 163.054 C 460.693 163.054 450.882 152.307 450.882 132.992 L 450.882 101.364 C 450.882 90.586 450.667 89.127 440.534 87.883 Z " fill="rgb(0,0,0)"/><path d=" M 579.283 87.883 L 579.283 86.01 L 604.862 86.01 L 604.862 87.883 C 594.729 89.142 594.529 90.494 594.529 101.241 L 594.529 161.688 L 585.762 161.688 L 541.299 104.174 L 541.299 146.457 C 541.299 157.205 541.513 158.571 551.631 159.815 L 551.631 161.688 L 526.053 161.688 L 526.053 159.815 C 536.186 158.556 536.385 157.205 536.385 146.457 L 536.385 97.802 L 534.604 95.499 C 530.95 90.693 528.97 88.713 526.037 87.561 L 526.037 85.995 L 545.459 85.995 L 589.616 142.788 L 589.616 101.241 C 589.616 90.494 589.416 89.127 579.283 87.883 Z " fill="rgb(0,0,0)"/><path d=" M 635.876 146.442 C 635.876 157.189 636.091 158.556 646.209 159.799 L 646.209 161.672 L 611.234 161.672 L 611.234 159.799 C 621.367 158.54 621.567 157.189 621.567 146.442 L 621.567 101.241 C 621.567 90.494 621.352 89.127 611.234 87.883 L 611.234 86.01 L 646.209 86.01 L 646.209 87.883 C 636.076 89.142 635.876 90.494 635.876 101.241 L 635.876 146.442 Z " fill="rgb(0,0,0)"/><path d=" M 662.299 98.109 C 659.382 90.494 658.123 88.713 651.644 87.883 L 651.644 86.01 L 683.902 86.01 L 683.902 87.883 C 677.331 88.713 675.335 90.601 677.223 95.821 L 695.601 146.027 L 708.329 109.179 C 715.116 89.557 712.198 88.713 704.153 87.883 L 704.153 86.01 L 728.273 86.01 L 728.273 87.883 C 721.272 88.713 720.228 90.079 714.808 105.632 L 695.079 161.688 L 686.619 161.688 L 662.299 98.109 Z " fill="rgb(0,0,0)"/><path d=" M 772.43 161.688 L 733.693 161.688 L 733.693 159.815 C 743.827 158.556 744.026 157.205 744.026 146.457 L 744.026 101.256 C 744.026 90.509 743.811 89.142 733.693 87.899 L 733.693 86.026 L 771.371 86.026 C 778.572 86.026 787.86 86.026 796.013 85.719 L 798.516 110.668 L 796.428 110.668 C 791.207 93.027 784.114 89.787 763.863 89.787 L 758.336 89.787 L 758.336 120.371 L 770.557 120.371 C 776.514 120.371 780.26 117.454 781.304 108.672 L 783.178 108.672 L 783.178 136.646 L 781.304 136.646 C 780.26 127.879 776.499 124.947 770.557 124.947 L 758.336 124.947 L 758.336 153.55 C 758.336 157.205 759.073 158.034 763.663 158.034 L 767.624 158.034 C 786.632 158.034 793.311 153.75 798.946 136.846 L 800.926 136.846 L 796.75 161.795 C 788.413 161.688 779.846 161.688 772.43 161.688 Z " fill="rgb(0,0,0)"/><path d=" M 810.645 159.799 C 820.778 158.54 820.978 157.189 820.978 146.442 L 820.978 101.241 C 820.978 90.494 820.763 89.127 810.645 87.883 L 810.645 86.01 L 824.003 86.01 C 829.115 86.01 839.663 85.903 842.903 85.903 C 862.217 85.903 877.141 91.123 877.141 105.847 C 877.141 115.98 869.526 121.922 858.241 124.64 L 874.423 149.697 C 879.229 157.112 880.795 158.986 888.103 159.83 L 888.103 161.703 L 864.72 161.703 C 862.739 157.834 859.5 152.092 856.061 146.457 L 851.577 139.456 C 847.186 132.562 844.899 129.015 842.811 126.19 L 835.303 126.19 L 835.303 146.442 C 835.303 157.189 835.502 158.556 846.68 159.799 L 846.68 161.672 L 810.66 161.672 L 810.66 159.799 L 810.645 159.799 Z  M 842.273 89.649 L 835.287 89.649 L 835.287 122.429 L 842.273 122.429 C 854.28 122.429 861.281 118.253 861.281 106.047 C 861.281 93.841 854.28 89.649 842.273 89.649 Z " fill="rgb(0,0,0)"/><path d=" M 896.256 157.404 L 896.256 131.933 L 898.344 131.933 C 901.261 151.355 909 159.185 921.421 159.185 C 930.602 159.185 938.233 154.702 938.233 145.306 C 938.233 138.212 932.598 134.558 924.246 130.582 L 914.957 126.19 C 903.887 120.97 896.901 114.077 896.901 103.959 C 896.901 91.952 908.278 83.6 922.894 83.6 C 930.402 83.6 940.229 85.688 945.341 88.82 L 945.341 110.223 L 943.253 110.223 C 940.336 95.299 933.135 87.469 922.787 87.469 C 914.327 87.469 908.385 91.43 908.385 98.738 C 908.385 105.939 913.299 109.286 918.826 111.896 L 929.896 117.117 C 941.488 122.552 950.147 128.294 950.147 139.671 C 950.147 153.351 937.096 163.054 921.436 163.054 C 911.18 163.039 902.321 160.644 896.256 157.404 Z " fill="rgb(0,0,0)"/><path d=" M 984.692 146.442 C 984.692 157.189 984.892 158.556 995.025 159.799 L 995.025 161.672 L 960.05 161.672 L 960.05 159.799 C 970.183 158.54 970.383 157.189 970.383 146.442 L 970.383 101.241 C 970.383 90.494 970.168 89.127 960.05 87.883 L 960.05 86.01 L 995.025 86.01 L 995.025 87.883 C 984.892 89.142 984.692 90.494 984.692 101.241 L 984.692 146.442 Z " fill="rgb(0,0,0)"/><path d=" M 1022.17 159.799 C 1033.24 158.54 1033.655 156.882 1033.655 146.442 L 1033.655 89.449 L 1031.045 89.449 C 1016.428 89.449 1010.271 96.865 1005.051 113.57 L 1002.963 113.57 L 1006.095 85.703 C 1014.125 86.01 1023.844 86.01 1031.045 86.01 L 1050.467 86.01 C 1057.667 86.01 1067.386 86.01 1075.524 85.703 L 1078.656 113.57 L 1076.46 113.57 C 1071.347 96.865 1065.191 89.449 1050.574 89.449 L 1047.964 89.449 L 1047.964 146.442 C 1047.964 156.882 1048.379 158.556 1059.448 159.799 L 1059.448 161.672 L 1022.186 161.672 L 1022.186 159.799 L 1022.17 159.799 Z " fill="rgb(0,0,0)"/><path d=" M 1125.315 161.688 L 1086.578 161.688 L 1086.578 159.815 C 1096.696 158.556 1096.911 157.205 1096.911 146.457 L 1096.911 101.256 C 1096.911 90.509 1096.696 89.142 1086.578 87.899 L 1086.578 86.026 L 1124.271 86.026 C 1131.472 86.026 1140.761 86.026 1148.913 85.719 L 1151.416 110.668 L 1149.328 110.668 C 1144.108 93.027 1137.014 89.787 1116.763 89.787 L 1111.236 89.787 L 1111.236 120.371 L 1123.457 120.371 C 1129.414 120.371 1133.161 117.454 1134.205 108.672 L 1136.078 108.672 L 1136.078 136.646 L 1134.205 136.646 C 1133.161 127.879 1129.399 124.947 1123.457 124.947 L 1111.236 124.947 L 1111.236 153.55 C 1111.236 157.205 1111.973 158.034 1116.564 158.034 L 1120.525 158.034 C 1139.532 158.034 1146.211 153.75 1151.846 136.846 L 1153.826 136.846 L 1149.65 161.795 C 1141.283 161.688 1132.731 161.688 1125.315 161.688 Z " fill="rgb(0,0,0)"/><path d=" M 1182.108 159.799 C 1193.177 158.54 1193.592 156.882 1193.592 146.442 L 1193.592 89.449 L 1190.982 89.449 C 1176.365 89.449 1170.209 96.865 1164.988 113.57 L 1162.9 113.57 L 1166.033 85.703 C 1174.078 86.01 1183.781 86.01 1190.982 86.01 L 1210.404 86.01 C 1217.605 86.01 1227.324 86.01 1235.461 85.703 L 1238.593 113.57 L 1236.398 113.57 C 1231.285 96.865 1225.128 89.449 1210.512 89.449 L 1207.902 89.449 L 1207.902 146.442 C 1207.902 156.882 1208.316 158.556 1219.386 159.799 L 1219.386 161.672 L 1182.123 161.672 L 1182.123 159.799 L 1182.108 159.799 Z " fill="rgb(0,0,0)"/><path d=" M 1285.252 161.688 L 1246.516 161.688 L 1246.516 159.815 C 1256.649 158.556 1256.848 157.205 1256.848 146.457 L 1256.848 101.256 C 1256.848 90.509 1256.634 89.142 1246.516 87.899 L 1246.516 86.026 L 1284.193 86.026 C 1291.394 86.026 1300.683 86.026 1308.835 85.719 L 1311.338 110.668 L 1309.25 110.668 C 1304.03 93.027 1296.936 89.787 1276.685 89.787 L 1271.158 89.787 L 1271.158 120.371 L 1283.379 120.371 C 1289.336 120.371 1293.083 117.454 1294.127 108.672 L 1296 108.672 L 1296 136.646 L 1294.127 136.646 C 1293.083 127.879 1289.321 124.947 1283.379 124.947 L 1271.158 124.947 L 1271.158 153.55 C 1271.158 157.205 1271.895 158.034 1276.486 158.034 L 1280.447 158.034 C 1299.454 158.034 1306.133 153.75 1311.768 136.846 L 1313.749 136.846 L 1309.572 161.795 C 1301.235 161.688 1292.668 161.688 1285.252 161.688 Z " fill="rgb(0,0,0)"/><path d=" M 1342.06 159.799 C 1353.13 158.54 1353.545 156.882 1353.545 146.442 L 1353.545 89.449 L 1350.935 89.449 C 1336.318 89.449 1330.161 96.865 1324.941 113.57 L 1322.853 113.57 L 1325.985 85.703 C 1334.031 86.01 1343.734 86.01 1350.935 86.01 L 1370.357 86.01 C 1377.558 86.01 1387.261 86.01 1395.414 85.703 L 1398.546 113.57 L 1396.35 113.57 C 1391.238 96.865 1385.081 89.449 1370.464 89.449 L 1367.854 89.449 L 1367.854 146.442 C 1367.854 156.882 1368.269 158.556 1379.339 159.799 L 1379.339 161.672 L 1342.076 161.672 L 1342.076 159.799 L 1342.06 159.799 Z " fill="rgb(0,0,0)"/><path d=" M 467.156 255.452 C 467.156 266.199 467.371 267.565 477.489 268.809 L 477.489 270.682 L 442.514 270.682 L 442.514 268.809 C 452.647 267.55 452.847 266.199 452.847 255.452 L 452.847 210.251 C 452.847 199.503 452.632 198.137 442.514 196.893 L 442.514 195.02 L 477.489 195.02 L 477.489 196.893 C 467.356 198.152 467.156 199.503 467.156 210.251 L 467.156 255.452 Z " fill="rgb(0,0,0)"/><path d=" M 554.441 192.917 C 574.907 192.917 594.222 206.689 594.222 232.483 C 594.222 258.261 574.907 272.049 554.441 272.049 C 533.975 272.049 514.66 258.277 514.66 232.483 C 514.66 206.704 533.975 192.917 554.441 192.917 Z  M 554.441 196.786 C 540.04 196.786 530.643 210.466 530.643 232.483 C 530.643 254.515 540.04 268.18 554.441 268.18 C 568.843 268.18 578.239 254.5 578.239 232.483 C 578.239 210.466 568.843 196.786 554.441 196.786 Z " fill="rgb(0,0,0)"/><path d=" M 608.102 266.414 L 608.102 240.942 L 610.19 240.942 C 613.107 260.365 620.845 268.195 633.266 268.195 C 642.447 268.195 650.078 263.712 650.078 254.315 C 650.078 247.222 644.443 243.568 636.091 239.591 L 626.802 235.2 C 615.732 229.98 608.746 223.086 608.746 212.968 C 608.746 200.962 620.123 192.61 634.74 192.61 C 642.263 192.61 652.074 194.698 657.187 197.83 L 657.187 219.233 L 655.099 219.233 C 652.182 204.309 644.965 196.479 634.632 196.479 C 626.173 196.479 620.231 200.44 620.231 207.748 C 620.231 214.949 625.144 218.296 630.671 220.906 L 641.741 226.126 C 653.333 231.562 661.992 237.304 661.992 248.681 C 661.992 262.361 648.942 272.064 633.281 272.064 C 623.041 272.049 614.166 269.654 608.102 266.414 Z " fill="rgb(0,0,0)"/><path d=" M 671.895 268.809 C 682.029 267.55 682.228 266.199 682.228 255.452 L 682.228 210.251 C 682.228 199.503 682.013 198.137 671.895 196.893 L 671.895 195.02 L 706.871 195.02 L 706.871 196.893 C 696.753 198.152 696.538 199.503 696.538 210.251 L 696.538 262.76 C 696.538 266.199 697.582 267.043 700.821 267.043 L 704.061 267.043 C 722.961 267.043 727.966 262.453 733.601 244.597 L 735.689 244.597 L 732.342 270.805 C 727.337 270.698 715.116 270.698 710.939 270.698 L 671.895 270.698 L 671.895 268.809 Z " fill="rgb(0,0,0)"/><path d=" M 783.193 192.917 C 803.659 192.917 822.974 206.689 822.974 232.483 C 822.974 258.261 803.659 272.049 783.193 272.049 C 762.727 272.049 743.412 258.277 743.412 232.483 C 743.412 206.704 762.727 192.917 783.193 192.917 Z  M 783.193 196.786 C 768.791 196.786 759.395 210.466 759.395 232.483 C 759.395 254.515 768.791 268.18 783.193 268.18 C 797.595 268.18 806.991 254.5 806.991 232.483 C 806.991 210.466 797.595 196.786 783.193 196.786 Z " fill="rgb(0,0,0)"/></g></g></g></svg>