<?xml version="1.0" encoding="UTF-8" standalone="no"?><!-- Generator: Gravit.io --><svg xmlns="http://www.w3.org/2000/svg" xmlns:xlink="http://www.w3.org/1999/xlink" style="isolation:isolate" viewBox="0 0 1240.65 382" width="1240.65pt" height="382pt"><defs><clipPath id="_clipPath_WPtci415JzwWIfLRd6PpmJFBHVxdjj7H"><rect width="1240.65" height="382"/></clipPath></defs><g clip-path="url(#_clipPath_WPtci415JzwWIfLRd6PpmJFBHVxdjj7H)"><g><g><g><path d=" M 0 190.705 C 0 144.634 16.334 102.367 43.535 69.403 L 43.535 69.403 C 78.508 27.02 131.445 0 190.672 0 L 190.672 0 C 296.002 0 381.36 85.391 381.376 190.705 L 381.376 190.705 C 381.376 296.002 296.002 381.393 190.672 381.393 L 190.672 381.393 C 85.374 381.393 0 296.019 0 190.705 L 0 190.705 Z  M 2.832 190.705 C 2.832 242.588 23.859 289.531 57.86 323.533 L 57.86 323.533 C 91.862 357.534 138.805 378.561 190.672 378.561 L 190.672 378.561 C 242.555 378.561 289.515 357.534 323.516 323.533 L 323.516 323.533 C 357.518 289.531 378.544 242.588 378.544 190.705 L 378.544 190.705 C 378.544 138.838 357.518 91.878 323.516 57.877 L 323.516 57.877 C 289.515 23.875 242.555 2.849 190.672 2.849 L 190.672 2.849 C 132.318 2.849 80.187 29.457 45.725 71.214 L 45.725 71.214 L 45.725 71.214 C 18.919 103.7 2.832 145.325 2.832 190.705 L 2.832 190.705 Z " fill="rgb(0,0,0)"/></g><g><path d=" M 41.888 268.06 C 41.921 265.574 43.963 263.581 46.449 263.614 C 48.936 263.647 50.945 265.689 50.912 268.175 C 50.879 270.678 48.837 272.67 46.351 272.637 C 43.864 272.604 41.872 270.563 41.888 268.06 Z " fill="rgb(0,0,0)"/><path d=" M 328.884 270.76 C 328.917 268.274 330.959 266.282 333.445 266.315 C 335.931 266.348 337.94 268.389 337.907 270.876 C 337.874 273.362 335.832 275.371 333.346 275.338 C 330.86 275.288 328.851 273.247 328.884 270.76 Z " fill="rgb(0,0,0)"/></g><g><g><g><path d=" M 321.112 135.924 C 313.983 119.096 303.807 103.997 290.832 91.022 C 277.873 78.08 262.775 67.888 245.963 60.775 C 228.559 53.431 210.052 49.71 191.017 49.71 C 171.95 49.71 153.459 53.431 136.039 60.775 C 119.227 67.888 104.145 78.096 91.154 91.022 C 78.195 103.997 68.019 119.079 60.923 135.924 C 53.546 153.311 49.808 171.819 49.808 190.853 C 49.808 209.936 53.546 228.444 60.923 245.831 C 68.019 262.626 78.195 277.742 91.154 290.7 C 104.128 303.659 119.211 313.851 136.039 320.964 C 141.308 323.203 146.676 325.08 152.126 326.645 C 152.175 326.661 152.224 326.677 152.274 326.694 C 155.007 327.55 157.79 328.225 160.589 328.785 C 170.518 330.959 180.677 332.062 191.017 332.062 C 197.307 332.062 203.548 331.65 209.706 330.843 C 209.722 330.843 209.739 330.843 209.755 330.843 C 213.345 330.629 215.88 330.086 217.544 329.575 C 227.258 327.731 236.775 324.866 245.963 320.98 C 262.775 313.867 277.873 303.675 290.832 290.717 L 289.827 289.712 L 290.832 290.717 C 303.807 277.758 313.966 262.643 321.096 245.848 C 328.439 228.46 332.177 209.953 332.177 190.869 C 332.177 171.819 328.456 153.328 321.112 135.924 Z  M 103.42 297.961 C 103.206 297.78 102.844 297.188 103.025 296.727 C 103.108 296.545 103.206 296.331 103.322 296.134 C 103.931 294.998 104.919 293.68 105.759 292.676 C 107.224 295.837 110.764 301.946 118.239 308.549 C 113.069 305.355 108.13 301.831 103.42 297.961 Z  M 102.251 214.25 C 105.149 217.082 105.66 219.536 105.676 221.199 C 105.676 221.874 105.577 222.401 105.495 222.763 C 105.446 222.944 105.413 223.076 105.38 223.158 C 105.38 223.175 105.363 223.191 105.363 223.208 C 105.232 223.405 104.096 225.546 100.852 225.546 C 100.358 225.546 99.782 225.496 99.156 225.365 C 93.673 224.294 88.239 222.17 83.761 221.611 C 83.695 221.594 83.596 221.611 83.514 221.594 L 94.282 206.824 C 97.806 210.068 100.852 212.9 102.251 214.25 Z  M 79.694 189.634 L 149.87 118.668 L 107.8 217.445 C 107.175 215.798 106.071 213.987 104.227 212.209 C 100.292 208.389 84.073 193.619 79.694 189.634 Z  M 98.596 228.147 C 99.386 228.296 100.144 228.378 100.835 228.378 C 103.338 228.394 105.149 227.439 106.269 226.468 C 107.389 225.496 107.85 224.541 107.899 224.426 L 107.899 224.41 C 107.899 224.41 107.899 224.393 107.899 224.393 C 107.899 224.377 107.916 224.36 107.932 224.311 L 108.014 224.13 L 151.171 123.196 C 151.269 123.871 151.467 125.171 151.648 125.797 C 152.323 137.126 154.925 145.078 157.658 151.171 C 159.239 154.694 160.852 157.395 162.104 159.288 C 162.73 160.243 163.273 161.001 163.685 161.544 C 163.816 161.725 163.948 161.89 164.047 162.022 L 153.986 196.78 C 153.822 197.324 154.019 197.933 154.464 198.279 L 156.868 200.189 C 156.868 200.189 157.164 200.469 157.032 200.996 C 156.884 201.522 145.836 242.324 145.836 242.324 L 110.731 282.632 C 108.13 280.475 100.522 273.428 90.446 257.769 C 81.669 244.152 79.051 235.557 79.068 230.667 C 79.068 228.23 79.677 226.748 80.402 225.826 C 80.418 225.809 80.418 225.809 80.434 225.793 L 80.467 225.743 C 80.517 225.694 80.55 225.628 80.599 225.579 C 81.406 224.69 82.394 224.377 83.135 224.377 C 83.234 224.377 83.316 224.377 83.398 224.393 C 87.301 224.887 92.817 226.995 98.596 228.147 Z  M 173.037 79.595 C 172.79 78.87 172.016 78.475 171.292 78.706 C 171.917 78.146 172.527 77.619 173.119 77.108 L 179.212 76.318 C 179.985 76.219 180.529 75.495 180.43 74.721 C 180.331 73.947 179.623 73.404 178.833 73.502 L 177.911 73.634 C 179.821 72.515 181.764 71.609 183.377 70.95 C 184.464 70.506 185.386 70.16 186.045 69.929 C 186.703 69.715 187.049 69.6 187.066 69.6 C 187.823 69.386 188.251 68.596 188.021 67.838 C 187.79 67.097 187 66.669 186.259 66.883 C 186.209 66.9 183.838 67.591 180.776 68.991 C 181.22 68.349 181.072 67.476 180.43 67.015 C 179.788 66.57 178.899 66.719 178.454 67.361 L 175.194 71.988 C 174.898 72.185 174.601 72.366 174.321 72.564 C 173.91 72.86 173.449 73.206 172.955 73.601 L 173.284 72.959 C 173.646 72.268 173.366 71.411 172.675 71.049 C 171.983 70.687 171.127 70.967 170.765 71.658 L 167.192 78.607 C 166.303 79.43 165.479 80.204 164.771 80.879 C 164.887 77.174 165.874 70.637 170.04 67.525 C 174.124 64.397 177.516 63.722 180.348 63.722 C 182.011 63.722 183.476 63.969 184.777 64.166 C 185.386 64.249 187.576 64.776 189.47 65.253 C 191.38 65.747 193.109 66.192 193.109 66.208 L 193.471 66.258 C 195.562 66.274 196.599 66.801 197.159 67.361 C 197.719 67.921 197.933 68.678 197.949 69.518 C 197.966 70.226 197.653 71.033 197.307 71.642 C 197.176 71.872 197.06 72.037 196.962 72.202 L 186.374 73.371 C 185.995 73.42 185.633 73.618 185.403 73.914 L 178.734 82.707 L 175.474 82.723 L 175.178 82.756 C 175.046 82.789 174.453 82.921 173.794 83.464 C 173.119 83.991 172.461 85.061 172.494 86.428 C 172.477 89.079 173.399 90.89 174.404 91.944 C 174.502 92.059 174.618 92.158 174.716 92.257 L 170.37 96.604 C 169.694 96.423 168.591 96.044 167.57 95.319 C 166.253 94.397 165.051 93.031 164.656 90.643 C 164.442 89.26 164.36 88.124 164.36 87.218 C 164.36 86.263 164.442 85.572 164.541 85.078 C 164.557 85.061 164.574 85.061 164.59 85.045 C 164.59 85.045 165.232 84.419 166.22 83.464 L 172.214 81.422 C 172.889 81.142 173.284 80.336 173.037 79.595 Z  M 194.722 90.429 C 194.722 90.429 194.739 90.874 194.376 91.088 C 193.998 91.302 193.751 91.664 193.668 92.092 C 193.603 92.52 193.784 92.915 194.014 93.261 C 194.064 93.343 194.08 93.525 193.981 93.706 C 193.882 93.87 193.701 94.2 193.701 94.2 C 193.504 94.545 193.454 94.957 193.586 95.336 C 193.586 95.336 193.586 95.336 193.603 95.385 C 193.652 95.55 193.751 96.011 193.751 96.505 C 193.751 96.785 193.537 97.575 192.977 97.806 C 192.45 98.036 191.561 98.217 190.375 98.25 L 187.379 98.184 C 186.687 98.168 186.078 98.662 185.962 99.337 C 185.946 99.403 185.88 99.782 185.88 100.374 C 185.88 101.148 185.995 102.317 186.621 103.503 C 186.852 103.964 187.197 104.408 187.609 104.82 C 187.609 104.82 187.609 104.836 187.626 104.836 L 187.626 104.836 L 192.664 110.484 L 179.59 111.373 L 170.682 104.408 C 171.127 104.194 171.374 104.063 171.374 104.063 C 171.851 103.832 172.164 103.338 172.164 102.795 L 172.164 98.678 L 177.878 92.948 C 178.224 92.603 178.372 92.076 178.257 91.598 C 178.125 91.104 177.763 90.725 177.285 90.594 L 177.285 90.594 C 177.022 90.413 175.309 89.869 175.26 86.362 C 175.276 85.786 175.424 85.72 175.54 85.572 C 175.589 85.539 175.639 85.506 175.671 85.473 L 179.393 85.44 C 179.837 85.44 180.249 85.226 180.512 84.88 C 180.512 84.88 186.456 77.01 186.868 76.516 C 187.28 76.005 187.905 75.956 187.905 75.956 L 195.957 75.083 C 195.957 75.083 196.369 75.067 196.435 75.561 C 196.5 76.302 196.583 77.207 196.682 78.195 C 196.698 78.607 196.435 78.755 196.27 78.771 C 195.249 78.804 194.179 78.837 193.043 78.87 C 191.857 78.92 190.556 79.463 189.7 80.187 C 189.058 80.714 189.042 81.719 189.634 82.295 C 189.964 82.608 190.672 82.723 191.446 82.954 C 192.417 83.25 193.504 83.612 194.047 83.448 C 194.739 83.217 195.002 82.608 195.051 81.933 C 195.101 81.192 195.545 80.665 196.303 80.665 C 196.616 80.665 196.813 80.928 196.846 81.192 C 196.994 82.608 197.241 84.386 197.34 85.407 C 197.39 85.901 197.423 86.362 197.455 86.757 C 197.472 87.268 197.027 87.301 196.797 87.334 C 196.319 87.399 195.957 87.399 195.957 87.416 C 195.578 87.432 195.216 87.597 194.969 87.893 C 194.706 88.173 194.59 88.552 194.607 88.931 L 194.722 90.429 Z  M 178.29 113.975 C 178.536 114.172 178.849 114.271 179.162 114.271 C 179.195 114.271 179.228 114.271 179.261 114.271 L 195.76 113.152 C 196.303 113.119 196.78 112.773 196.978 112.262 C 197.192 111.768 197.077 111.192 196.731 110.781 L 193.767 107.455 C 195.496 107.981 196.978 108.442 198.131 108.788 C 199.02 109.019 200.633 110.435 202 112.295 C 203.301 113.991 204.486 116 205.277 117.63 C 204.7 120.561 203.861 123.443 202.971 126.341 L 195.661 131.889 L 179.738 121.17 C 178.932 119.985 175.227 114.584 171.67 111.011 C 169.777 109.15 167.109 108.41 164.442 108.41 C 163.948 108.41 163.454 108.442 162.96 108.492 C 163.652 108.113 164.36 107.734 165.035 107.372 C 166.072 106.829 167.076 106.302 167.949 105.841 L 178.29 113.975 Z  M 164.409 111.258 C 166.582 111.258 168.509 111.884 169.645 113.02 C 171.489 114.864 173.482 117.367 174.98 119.409 C 176.495 121.45 177.516 122.982 177.516 122.998 C 177.614 123.163 177.746 123.294 177.911 123.393 L 194.903 134.837 C 195.414 135.183 196.072 135.166 196.55 134.787 L 218.186 118.338 L 218.284 118.256 C 218.284 118.256 218.762 117.828 219.388 117.301 C 220.013 116.774 220.804 116.148 221.281 115.852 C 222.401 115.111 227.176 112.279 230.222 112.197 C 230.485 112.18 230.749 112.18 230.996 112.18 C 232.461 112.164 233.532 112.427 234.075 112.789 C 234.585 113.152 234.816 113.448 234.865 114.518 C 234.865 116.247 234.898 118.799 234.898 118.799 C 234.898 119.491 235.392 119.952 236.067 120.067 C 236.594 120.067 237.319 120.215 237.319 121.039 C 237.319 121.977 236.677 122.109 236.38 122.158 C 235.87 122.224 235.376 122.29 235.178 122.306 L 233.844 122.306 L 233.482 122.356 C 233.482 122.356 231.655 122.833 229.695 123.294 C 228.724 123.525 227.703 123.772 226.879 123.937 C 226.468 124.019 226.106 124.101 225.826 124.151 C 225.694 124.167 225.579 124.184 225.496 124.2 C 225.414 124.216 225.398 124.2 225.398 124.216 C 224.146 124.216 222.203 124.431 222.17 124.431 C 221.775 124.48 221.396 124.694 221.166 125.023 C 221.166 125.04 218.762 128.432 215.765 132.433 C 212.768 136.434 209.13 141.077 206.808 143.399 C 204.387 145.819 202.395 147.647 200.996 148.865 C 200.567 149.244 200.189 149.557 199.876 149.82 C 199.711 149.952 199.333 150.133 198.921 149.969 C 196.846 149.112 192.417 147.334 187.082 145.062 C 179.64 141.884 170.419 137.751 163.438 134.014 C 162.054 133.305 159.585 131.791 157.543 129.634 C 157.329 129.403 157.115 129.156 156.901 128.909 C 156.835 128.827 156.769 128.745 156.703 128.679 C 156.538 128.481 156.39 128.283 156.242 128.102 C 156.127 127.954 156.028 127.79 155.913 127.641 C 155.814 127.51 155.732 127.378 155.649 127.23 C 155.551 127.081 155.452 126.917 155.353 126.752 C 155.32 126.686 155.287 126.62 155.238 126.555 C 155.04 126.209 154.875 125.863 154.727 125.501 C 154.711 125.451 154.678 125.402 154.661 125.353 C 154.579 125.139 154.497 124.925 154.431 124.71 C 154.431 124.71 154.431 124.71 154.431 124.71 C 154.431 124.71 154.431 124.71 154.431 124.694 C 154.299 124.315 154.2 123.92 154.118 123.525 C 154.085 123.36 154.052 123.179 154.019 123.014 C 154.003 122.883 153.986 122.751 153.97 122.619 C 153.937 122.29 153.904 121.961 153.904 121.615 C 153.904 121.384 153.92 121.17 153.937 120.94 C 153.953 120.759 153.97 120.561 154.003 120.364 C 154.003 120.331 154.003 120.298 154.003 120.265 C 154.069 119.804 154.167 119.343 154.299 118.865 C 154.299 118.865 154.299 118.865 154.299 118.865 L 154.299 118.865 C 154.381 118.585 154.464 118.289 154.579 117.992 C 154.579 117.976 154.596 117.96 154.596 117.943 C 154.694 117.68 154.81 117.383 154.925 117.103 C 154.941 117.07 154.958 117.021 154.974 116.988 C 155.089 116.725 155.221 116.461 155.369 116.198 C 155.402 116.148 155.435 116.082 155.468 116.017 C 155.649 115.704 155.83 115.374 156.028 115.045 L 156.028 115.045 C 157.312 112.855 161.017 111.225 164.409 111.258 Z  M 208.833 89.639 C 208.833 89.013 209.047 88.914 209.163 88.931 C 211.32 89.276 212.505 90.215 213.262 91.104 C 213.723 91.664 214.003 92.24 214.168 92.652 C 214.25 92.866 214.3 93.031 214.333 93.146 C 214.349 93.195 214.349 93.245 214.366 93.261 L 214.366 93.261 C 214.481 93.936 215.074 94.447 215.765 94.447 L 243.427 94.447 C 244.135 94.447 244.728 93.936 244.827 93.245 C 244.86 93.113 245.074 92.207 245.963 91.368 C 246.704 90.676 247.923 89.919 250.129 89.639 C 250.425 89.573 250.475 89.869 250.475 90.133 C 250.475 93.064 250.376 99.172 250.376 108.031 C 250.376 115.243 252.237 121.072 254.015 126.835 C 255.81 132.614 257.522 138.328 257.522 145.638 C 257.522 149.541 256.781 153.278 255.332 156.67 C 254.064 155.962 252.994 155.534 252.401 155.369 C 252.204 155.32 252.006 155.287 251.808 155.287 C 250.689 155.336 249.964 155.83 249.256 156.324 C 248.565 156.884 248.021 157.279 247.626 158.169 C 247.511 158.465 247.461 158.761 247.461 159.041 C 247.478 159.815 247.741 160.342 247.939 160.754 C 247.643 161.001 247.297 161.281 246.951 161.593 C 246.49 162.005 246.013 162.45 245.601 162.927 C 245.189 163.405 244.811 163.849 244.58 164.541 C 244.448 164.969 244.366 165.413 244.366 165.874 C 244.366 166.747 244.613 167.537 245.008 168.344 C 240.711 170.831 235.326 172.296 228.839 172.313 C 219.371 172.313 212.604 169.052 208.092 164.343 C 204.75 160.82 202.675 156.44 201.835 151.895 C 203.235 150.71 205.688 148.553 208.8 145.441 C 209.327 144.914 209.903 144.288 210.513 143.596 C 211.517 147.153 213.509 150.117 216.111 152.323 C 219.75 155.419 224.508 157.082 229.432 157.23 C 229.514 157.246 229.613 157.263 229.695 157.263 C 229.728 157.263 229.777 157.263 229.81 157.246 C 229.926 157.246 230.041 157.263 230.156 157.263 C 240.809 157.23 248.795 147.795 248.812 137.356 C 248.812 132.663 247.708 129.387 246.688 124.332 C 245.65 119.26 244.629 112.213 244.629 99.814 C 244.629 99.436 244.481 99.074 244.218 98.81 C 243.954 98.547 243.592 98.398 243.213 98.398 L 215.897 98.398 C 215.518 98.398 215.156 98.547 214.893 98.81 C 214.629 99.074 214.481 99.436 214.481 99.814 C 214.481 108.689 213.905 114.403 213.18 118.651 L 206.759 123.525 C 207.269 121.681 207.73 119.804 208.092 117.894 C 208.125 117.811 208.125 117.729 208.142 117.647 C 208.603 115.177 208.883 112.641 208.899 110.023 C 208.899 100.638 208.866 93.195 208.833 89.639 Z  M 248.219 168.13 C 247.445 167.044 247.198 166.319 247.215 165.842 C 247.215 165.677 247.231 165.529 247.297 165.348 L 247.297 165.348 C 247.412 165.084 248.252 164.178 249.009 163.536 C 249.767 162.861 250.458 162.351 250.458 162.351 C 250.853 162.104 251.117 161.462 251.084 161.083 C 251.067 160.523 250.919 160.326 250.82 160.095 C 250.722 159.897 250.623 159.716 250.541 159.568 C 250.442 159.354 250.376 158.877 250.804 158.465 C 251.282 157.971 251.973 158.169 252.105 158.234 C 252.632 158.448 253.488 158.844 254.328 159.338 C 255.563 160.062 256.814 161.066 257.259 161.923 C 257.72 162.713 258.098 163.767 258.082 164.475 C 258.082 164.952 257.884 165.298 257.654 165.562 C 257.193 166.089 253.027 169.579 252.599 169.843 C 252.154 170.156 250.376 170.913 248.861 171.473 C 248.417 171.637 247.988 171.786 247.61 171.934 C 247.083 172.148 247 171.802 247 171.802 C 247 171.802 246.902 171.489 247.099 171.292 C 247.346 171.094 247.577 170.88 247.807 170.633 C 248.054 170.304 248.433 169.991 248.482 169.102 C 248.532 168.805 248.433 168.427 248.219 168.13 Z  M 252.385 266.578 C 252.385 266.578 252.434 266.99 252.105 267.187 C 251.775 267.368 241.797 272.967 241.797 272.967 L 240.645 173.35 C 241.781 172.988 242.868 172.559 243.905 172.082 L 252.385 266.578 Z  M 206.726 312.632 C 206.726 312.632 210.397 317.391 210.546 317.605 C 210.694 317.819 210.579 318.066 210.48 318.148 C 204.914 322.693 195.891 325.871 185.567 327.007 C 187.197 319.515 193.454 289.992 198.114 259.926 C 202.906 228.938 205.03 199.514 205.441 193.388 C 205.441 193.388 209.163 193.141 209.821 193.076 C 210.463 193.01 210.546 193.388 210.546 193.784 C 210.529 194.179 206.462 311.677 206.462 311.677 C 206.429 312.056 206.528 312.369 206.726 312.632 Z  M 157.263 195.694 C 157.263 195.694 166.484 163.816 166.615 163.388 C 166.731 162.96 167.159 162.845 167.159 162.845 C 167.159 162.845 173.91 160.951 174.98 160.605 C 176.05 160.26 177.828 160.128 177.828 160.128 L 201.029 158.712 C 202.247 161.429 203.91 163.997 206.051 166.253 C 207.928 168.245 210.183 169.974 212.785 171.374 C 212.785 171.374 212.736 189.025 212.736 189.354 C 212.736 189.684 212.571 190.062 211.83 190.128 C 211.089 190.194 188.498 191.758 182.867 192.17 C 182.06 192.219 181.105 192.368 180.249 192.598 C 179.393 192.845 159.716 198.229 159.716 198.229 C 159.716 198.229 159.041 198.328 158.712 198.081 C 158.383 197.818 158.201 197.67 157.592 197.192 C 156.983 196.698 157.263 195.694 157.263 195.694 Z  M 165.99 159.897 C 163.75 156.818 157.23 147.696 155.024 131.05 C 155.172 131.231 155.336 131.395 155.485 131.56 C 157.839 134.03 160.523 135.677 162.12 136.5 C 176.33 144.107 199.135 153.097 199.168 153.114 C 199.184 153.114 199.201 153.114 199.217 153.13 C 199.415 154.085 199.678 155.007 199.991 155.946 L 178.586 157.246 C 178.586 157.246 176.067 157.362 174.255 157.872 C 172.066 158.481 167.06 159.914 166.731 160.029 C 166.303 160.144 166.056 159.996 165.99 159.897 Z  M 213.394 192.697 L 214.432 192.483 C 215.09 192.351 215.568 191.758 215.568 191.1 L 215.617 172.708 C 219.404 174.239 223.8 175.112 228.806 175.112 C 228.822 175.112 228.839 175.112 228.855 175.112 C 232.066 175.112 235.063 174.749 237.829 174.124 L 239.146 288.082 L 239.146 288.148 C 239.146 288.148 239.146 288.23 239.146 288.428 C 239.163 289.597 238.85 293.68 235.507 296.084 C 231.358 299.114 222.072 303.939 209.525 304.268 L 213.394 192.697 Z  M 212.834 140.797 C 216.144 136.73 219.799 131.741 221.857 128.909 L 221.857 152.57 C 220.441 151.912 219.124 151.088 217.972 150.1 C 215.288 147.812 213.411 144.733 212.834 140.797 Z  M 224.69 153.608 L 224.69 127.049 C 224.937 127.032 225.184 127.032 225.381 127.032 C 225.957 127.016 226.55 126.884 227.456 126.703 C 227.719 126.637 227.999 126.588 228.296 126.522 L 228.296 154.283 C 227.061 154.151 225.859 153.937 224.69 153.608 Z  M 231.128 154.316 L 231.128 125.83 C 232.428 125.517 233.565 125.221 233.993 125.122 L 234.52 125.122 L 234.52 153.69 C 233.433 154.036 232.313 154.25 231.128 154.316 Z  M 239.937 119.392 C 239.772 118.882 239.459 118.124 238.488 117.795 C 238.241 117.729 237.961 117.647 237.714 117.597 C 237.714 116.708 237.697 115.457 237.697 114.485 C 237.714 113.81 237.599 113.152 237.368 112.559 L 237.368 101.148 L 241.814 101.148 C 241.88 112.839 242.917 119.787 243.921 124.826 C 244.992 130.078 245.996 133.091 245.98 137.29 C 245.98 141.802 244.251 146.099 241.386 149.244 C 240.217 150.545 238.85 151.632 237.352 152.471 L 237.352 124.892 C 237.45 124.875 237.566 124.859 237.648 124.859 C 237.78 124.842 237.911 124.826 237.994 124.826 C 238.076 124.826 238.109 124.826 238.109 124.826 C 238.636 124.826 239.015 124.562 239.196 124.381 C 239.805 123.706 239.789 123.311 239.953 122.768 C 240.068 122.241 240.118 121.648 240.134 121.055 C 240.134 120.479 240.101 119.952 239.937 119.392 Z  M 234.52 101.148 L 234.52 109.858 C 233.499 109.48 232.363 109.348 231.128 109.332 L 231.128 101.148 L 234.52 101.148 Z  M 228.296 101.148 L 228.296 109.611 C 227.061 109.875 225.826 110.303 224.69 110.797 L 224.69 101.148 L 228.296 101.148 Z  M 221.857 101.148 L 221.857 112.213 C 220.902 112.74 220.178 113.201 219.766 113.448 C 218.482 114.255 216.753 115.803 216.424 116.099 L 216.424 116.115 C 216.918 112.328 217.28 107.57 217.329 101.148 L 221.857 101.148 L 221.857 101.148 Z  M 109.611 288.263 C 109.974 287.852 148.19 243.971 148.19 243.971 C 148.339 243.806 148.437 243.625 148.487 243.411 C 148.487 243.411 159.799 201.671 159.881 201.391 C 159.963 201.094 160.26 201.012 160.26 201.012 C 160.26 201.012 180.315 195.529 181.072 195.298 C 181.846 195.084 182.949 194.986 182.949 194.986 L 194.08 194.212 C 193.948 195.513 193.718 197.604 193.356 200.288 C 191.462 214.399 185.683 244.827 171.588 261.408 C 150.594 286.222 121.533 288.757 110.649 288.757 C 110.402 288.757 110.171 288.757 109.957 288.757 C 109.529 288.741 109.249 288.675 109.611 288.263 Z  M 108.92 291.556 C 109.43 291.573 110.007 291.573 110.632 291.573 C 121.895 291.573 151.879 288.988 173.729 263.236 C 191.709 241.88 196.221 201.144 196.929 194.014 L 202.56 193.619 C 202.362 196.533 201.868 203.449 200.979 212.785 C 199.81 225.315 197.966 242.176 195.282 259.514 C 192.598 276.853 189.371 294.043 186.819 306.886 C 184.925 316.386 183.41 323.5 182.752 326.562 C 182.686 326.842 182.34 327.353 181.681 327.353 C 180.117 327.353 178.553 327.501 176.956 327.484 C 171.786 327.484 166.434 327.007 161.165 325.986 C 158.399 325.377 155.666 324.702 152.949 323.911 C 133.404 317.753 122.059 309.043 115.589 301.996 C 112.345 298.455 110.32 295.311 109.118 293.071 C 108.92 292.709 108.755 292.38 108.607 292.067 C 108.459 291.754 108.64 291.556 108.92 291.556 Z  M 190.408 329.197 C 198.509 327.797 205.672 325.146 210.908 321.376 L 215.37 322.66 C 215.535 322.709 215.699 322.726 215.864 322.726 C 215.864 322.726 220.013 322.495 220.359 322.479 C 221.545 322.413 222.072 323.104 222.072 323.351 C 222.072 323.598 222.104 323.911 222.104 323.911 C 222.104 323.911 222.154 324.652 221.676 325.13 C 221.232 325.574 218.037 326.447 216.868 326.826 C 208.405 328.423 199.777 329.246 191.017 329.246 C 190.82 329.213 190.606 329.197 190.408 329.197 Z  M 318.494 244.712 C 311.496 261.177 301.551 275.963 288.823 288.691 C 276.112 301.386 261.326 311.364 244.86 318.346 C 238.372 321.096 231.737 323.319 224.986 325.014 L 224.821 322.265 C 224.821 320.602 222.944 319.778 221.907 319.778 L 215.963 319.877 C 215.963 319.877 214.135 319.433 213.905 319.367 C 213.674 319.301 213.74 319.07 213.773 319.021 C 214.185 318.511 214.217 317.786 213.806 317.259 L 209.261 311.332 L 209.409 307.116 C 222.747 306.787 232.577 301.732 237.154 298.39 C 241.666 295.047 241.946 289.959 241.962 288.444 C 241.962 288.23 241.962 288.082 241.946 288.016 L 241.814 276.194 C 241.863 276.178 241.896 276.161 241.946 276.145 L 241.946 276.145 L 254.591 269.048 C 255.085 268.768 255.349 268.241 255.316 267.681 L 247.017 175.178 C 247.379 175.062 248.548 174.651 249.882 174.157 C 251.496 173.531 253.208 172.872 254.212 172.214 C 255.118 171.572 258.922 168.377 259.844 167.422 C 260.65 166.566 260.947 165.463 260.947 164.491 C 260.93 162.977 260.354 161.61 259.761 160.54 C 259.234 159.634 258.526 158.893 257.736 158.251 C 259.481 154.365 260.371 150.067 260.354 145.622 C 260.354 137.866 258.493 131.758 256.715 125.978 C 254.92 120.199 253.192 114.732 253.192 108.014 C 253.192 95.55 253.323 88.14 253.323 88.124 C 253.323 87.745 253.175 87.383 252.912 87.103 C 252.648 86.823 252.286 86.675 251.907 86.675 C 247.725 86.658 245.123 88.042 243.691 89.589 C 243.016 90.314 242.621 91.022 242.357 91.615 L 216.77 91.615 C 216.523 90.972 216.095 90.149 215.403 89.309 C 214.02 87.597 211.418 85.95 207.368 85.967 C 206.989 85.967 206.627 86.115 206.363 86.395 C 206.1 86.658 205.952 87.021 205.952 87.399 C 205.952 87.416 206.034 96.801 206.034 109.957 C 206.034 110.995 205.985 112.015 205.902 113.036 C 205.375 112.213 204.816 111.39 204.223 110.599 C 202.642 108.574 200.979 106.779 198.921 106.104 C 197.077 105.544 194.327 104.688 191.1 103.7 C 189.914 103.322 189.437 102.795 189.091 102.186 C 188.893 101.84 188.795 101.445 188.729 101.082 L 190.293 101.115 L 190.375 101.115 C 191.791 101.066 192.993 100.885 194.031 100.457 C 195.051 100.045 195.974 99.288 196.319 98.151 C 196.5 97.575 196.55 97.015 196.55 96.521 C 196.55 95.962 196.484 95.484 196.402 95.122 L 197.077 93.936 C 197.291 93.558 197.324 93.097 197.159 92.701 C 197.472 92.421 197.637 91.993 197.604 91.565 L 197.505 90.116 C 197.571 90.1 197.637 90.083 197.719 90.083 C 198.147 90.001 198.592 89.902 199.069 89.688 C 199.3 89.573 199.547 89.441 199.81 89.178 C 200.074 88.931 200.353 88.453 200.353 87.91 C 200.353 87.531 200.271 86.626 200.139 85.193 C 199.827 81.702 199.283 75.775 199.102 73.931 C 199.678 73.157 200.683 71.559 200.716 69.468 C 200.716 68.135 200.337 66.554 199.102 65.319 C 197.917 64.117 196.056 63.409 193.586 63.376 C 192.483 63.08 186.769 61.565 185.106 61.318 C 183.871 61.137 182.225 60.857 180.282 60.857 C 176.972 60.84 172.79 61.73 168.245 65.253 C 162.367 69.88 161.89 78.162 161.857 81.834 C 161.857 82.542 161.873 83.102 161.906 83.415 C 161.709 84.007 161.412 85.226 161.412 87.169 C 161.412 88.239 161.495 89.523 161.742 91.038 C 162.318 94.71 164.59 96.933 166.599 98.086 C 167.62 98.678 168.575 99.024 169.299 99.238 L 169.299 101.939 C 168.18 102.498 161.116 105.61 154.316 110.287 C 154.167 110.418 153.608 110.731 153.081 111.34 C 153.064 111.357 153.048 111.357 153.031 111.373 L 76.582 188.679 C 76.318 188.943 76.17 189.321 76.17 189.717 C 76.186 190.095 76.351 190.474 76.631 190.721 C 76.647 190.738 81.9 195.513 87.729 200.847 C 89.178 202.181 90.676 203.531 92.125 204.865 L 78.113 224.08 C 76.927 225.579 76.17 227.769 76.186 230.667 C 76.203 236.528 79.101 245.436 88.009 259.317 C 98.168 275.107 105.94 282.385 108.821 284.773 L 105.116 289.021 C 104.985 289.152 103.799 290.404 102.581 292.034 C 101.939 292.874 101.296 293.812 100.786 294.767 C 100.654 294.998 100.539 295.228 100.44 295.475 C 97.937 293.302 95.5 291.046 93.129 288.675 C 80.434 275.963 70.456 261.177 63.508 244.695 C 56.279 227.67 52.624 209.541 52.624 190.836 C 52.624 172.181 56.279 154.069 63.508 137.01 C 70.473 120.512 80.434 105.726 93.129 93.014 C 105.857 80.319 120.627 70.341 137.109 63.36 C 154.184 56.164 172.28 52.509 190.968 52.509 C 209.64 52.509 227.752 56.148 244.811 63.36 C 261.293 70.341 276.079 80.319 288.774 93.014 C 301.485 105.726 311.447 120.512 318.445 137.01 C 325.64 154.069 329.296 172.181 329.296 190.836 C 329.345 209.558 325.69 227.686 318.494 244.712 Z " fill="rgb(0,0,0)"/></g></g></g><g><path d=" M 29.292 202.724 C 30.922 202.51 32.322 202.527 33.475 202.774 C 34.644 203.021 35.632 203.498 36.438 204.206 C 37.245 204.914 37.887 205.869 38.365 207.055 C 38.842 208.224 39.188 209.656 39.402 211.32 C 39.583 212.736 39.6 214.069 39.468 215.271 C 39.32 216.473 38.958 217.544 38.381 218.466 C 37.805 219.388 37.015 220.145 35.994 220.754 C 34.973 221.347 32.552 221.857 32.552 221.857 C 32.322 221.907 31.943 221.973 31.713 222.006 L 19.199 223.636 C 18.968 223.669 18.771 223.883 18.754 224.113 L 18.656 225.957 C 18.639 226.188 18.441 226.418 18.211 226.451 L 17.651 226.517 C 17.421 226.55 17.207 226.386 17.174 226.155 L 16.07 217.725 C 16.037 217.494 16.202 217.28 16.449 217.247 L 16.992 217.181 C 17.223 217.148 17.47 217.313 17.552 217.527 L 18.129 219.256 C 18.194 219.486 18.458 219.635 18.688 219.602 L 32.684 217.774 C 34.397 217.544 35.681 216.868 36.537 215.699 C 37.393 214.547 37.69 212.95 37.426 210.941 C 37.146 208.85 36.438 207.401 35.286 206.594 C 34.133 205.787 30.659 205.804 30.659 205.804 C 30.428 205.804 30.033 205.836 29.803 205.869 L 17.091 207.532 C 16.861 207.565 16.647 207.779 16.647 208.01 L 16.531 209.854 C 16.515 210.101 16.317 210.315 16.087 210.348 L 15.544 210.414 C 15.313 210.447 15.099 210.282 15.066 210.035 L 14.078 202.477 C 14.045 202.247 14.21 202.033 14.44 202 L 15 201.934 C 15.231 201.901 15.478 202.066 15.56 202.28 L 16.136 204.042 C 16.202 204.256 16.466 204.42 16.696 204.387 L 29.292 202.724 Z " fill="rgb(0,0,0)"/><path d=" M 14.193 183.13 C 14.21 182.9 14.391 182.603 14.589 182.488 L 32.256 171.95 L 17.47 170.864 C 17.239 170.847 16.992 171.012 16.927 171.242 L 16.449 172.988 C 16.383 173.218 16.136 173.383 15.906 173.366 L 15.346 173.333 C 15.115 173.317 14.934 173.103 14.951 172.872 L 15.494 165.611 C 15.511 165.38 15.725 165.199 15.955 165.216 L 16.515 165.265 C 16.746 165.282 16.96 165.496 16.992 165.726 L 17.207 167.57 C 17.239 167.801 17.454 168.015 17.684 168.031 L 38.628 169.612 C 38.859 169.629 39.04 169.843 39.023 170.073 L 38.859 172.131 C 38.842 172.362 38.661 172.658 38.464 172.774 L 18.046 184.744 L 35.253 186.045 C 35.483 186.061 35.73 185.897 35.796 185.666 L 36.274 183.921 C 36.34 183.69 36.57 183.526 36.817 183.542 L 37.377 183.575 C 37.607 183.591 37.789 183.789 37.772 184.036 L 37.212 191.314 C 37.196 191.544 36.982 191.725 36.751 191.709 L 36.191 191.66 C 35.961 191.643 35.747 191.429 35.714 191.199 L 35.5 189.371 C 35.467 189.14 35.253 188.926 35.022 188.91 L 16.202 187.477 C 15.972 187.461 15.725 187.626 15.659 187.856 L 15.181 189.634 C 15.115 189.865 14.885 190.029 14.638 190.013 L 14.078 189.98 C 13.848 189.964 13.666 189.75 13.683 189.519 L 14.193 183.13 Z " fill="rgb(0,0,0)"/><path d=" M 21.438 143.909 C 21.669 143.975 21.85 144.206 21.833 144.436 L 21.735 146.247 C 21.718 146.478 21.899 146.725 22.13 146.791 L 40.456 151.368 C 40.686 151.434 40.95 151.302 41.049 151.088 L 41.806 149.442 C 41.905 149.228 42.168 149.096 42.399 149.162 L 42.942 149.294 C 43.173 149.359 43.321 149.59 43.255 149.82 L 41.197 158.07 C 41.131 158.3 40.901 158.432 40.686 158.383 L 40.143 158.251 C 39.913 158.201 39.731 157.954 39.748 157.724 L 39.847 155.913 C 39.863 155.682 39.682 155.435 39.452 155.386 L 21.125 150.808 C 20.895 150.743 20.631 150.874 20.533 151.088 L 19.759 152.735 C 19.66 152.949 19.396 153.081 19.166 153.015 L 18.623 152.867 C 18.392 152.817 18.26 152.587 18.31 152.356 L 20.368 144.107 C 20.434 143.876 20.664 143.745 20.895 143.794 L 21.438 143.909 Z " fill="rgb(0,0,0)"/><path d=" M 50.154 130.012 C 50.319 130.177 50.385 130.49 50.286 130.704 L 49.298 133.042 C 49.199 133.256 48.936 133.421 48.705 133.404 L 26.46 131.906 C 26.23 131.889 25.917 132.038 25.785 132.219 L 24.962 133.338 C 24.814 133.536 24.534 133.618 24.32 133.52 L 23.809 133.305 C 23.595 133.223 23.496 132.96 23.579 132.746 L 26.625 125.583 C 26.724 125.369 26.971 125.27 27.185 125.353 L 27.695 125.567 C 27.909 125.649 28.057 125.929 28.008 126.159 L 27.745 127.592 C 27.712 127.822 27.86 128.02 28.09 128.053 L 45.955 129.436 L 32.832 116.889 C 32.668 116.725 32.421 116.758 32.273 116.955 L 31.285 118.404 C 31.153 118.602 30.873 118.684 30.642 118.602 L 30.132 118.388 C 29.918 118.289 29.819 118.042 29.902 117.828 L 32.651 111.373 C 32.75 111.159 32.997 111.06 33.211 111.143 L 33.722 111.357 C 33.936 111.456 34.084 111.719 34.034 111.95 L 33.689 113.629 C 33.639 113.86 33.738 114.189 33.903 114.337 L 50.154 130.012 Z " fill="rgb(0,0,0)"/><path d=" M 94.825 68.974 C 95.369 68.826 95.912 68.629 96.488 68.349 C 97.065 68.085 97.542 67.805 97.904 67.542 C 99.189 66.587 99.979 65.582 100.292 64.496 C 100.605 63.409 100.374 62.355 99.617 61.318 C 99.172 60.709 98.645 60.281 98.053 60.05 C 97.46 59.82 96.834 59.704 96.176 59.688 C 95.517 59.671 94.825 59.737 94.117 59.869 C 93.409 60.001 92.701 60.116 91.993 60.231 C 90.923 60.379 89.968 60.495 89.095 60.61 C 88.223 60.725 87.432 60.742 86.724 60.643 C 86 60.56 85.341 60.346 84.732 60.001 C 84.123 59.655 83.546 59.112 83.003 58.371 C 82.41 57.564 82.048 56.708 81.933 55.835 C 81.818 54.962 81.916 54.073 82.213 53.2 C 82.526 52.311 83.036 51.439 83.744 50.582 C 84.469 49.726 85.358 48.903 86.411 48.112 C 86.807 47.816 87.251 47.52 87.762 47.24 C 88.256 46.943 88.766 46.68 89.293 46.417 C 89.82 46.17 90.33 45.923 90.841 45.709 C 91.351 45.494 91.829 45.346 91.829 45.346 C 92.059 45.28 92.29 45.264 92.339 45.313 C 92.405 45.363 92.537 45.577 92.652 45.774 L 94.447 48.919 C 94.562 49.133 94.496 49.413 94.315 49.545 L 93.129 50.418 C 92.948 50.549 92.635 50.549 92.454 50.401 L 90.264 48.557 C 89.886 48.557 89.425 48.672 88.898 48.87 C 88.371 49.067 87.811 49.397 87.202 49.858 C 86.099 50.681 85.424 51.57 85.144 52.575 C 84.88 53.563 85.078 54.518 85.736 55.423 C 86.164 56 86.626 56.395 87.119 56.625 C 87.613 56.839 88.14 56.955 88.7 56.955 C 89.26 56.955 89.853 56.905 90.446 56.773 C 91.055 56.642 91.68 56.526 92.323 56.411 C 93.212 56.296 94.134 56.148 95.105 55.967 C 96.06 55.802 96.999 55.736 97.921 55.769 C 98.827 55.802 99.683 56 100.49 56.329 C 101.296 56.658 101.971 57.251 102.564 58.107 C 103.305 59.21 103.717 60.264 103.816 61.268 C 103.914 62.273 103.783 63.228 103.404 64.15 C 103.042 65.056 102.449 65.945 101.642 66.801 C 100.835 67.657 99.88 68.48 98.81 69.271 C 97.839 69.995 96.818 70.604 95.747 71.131 C 94.677 71.658 93.294 72.218 93.294 72.218 C 93.08 72.3 92.85 72.333 92.8 72.284 C 92.751 72.235 92.603 72.021 92.487 71.823 L 90.676 68.694 C 90.561 68.48 90.61 68.201 90.808 68.069 L 91.993 67.196 C 92.174 67.048 92.487 67.064 92.668 67.213 L 94.825 68.974 Z " fill="rgb(0,0,0)"/><path d=" M 111.752 34.166 C 111.867 34.38 111.801 34.66 111.62 34.825 L 110.204 35.961 C 110.023 36.109 109.957 36.405 110.073 36.603 L 119.013 53.25 C 119.129 53.464 119.409 53.563 119.623 53.497 L 121.351 52.953 C 121.582 52.888 121.845 52.986 121.961 53.2 L 122.224 53.694 C 122.339 53.908 122.257 54.155 122.043 54.271 L 114.551 58.288 C 114.337 58.403 114.09 58.321 113.975 58.107 L 113.711 57.613 C 113.596 57.416 113.662 57.119 113.843 56.971 L 115.243 55.818 C 115.424 55.67 115.49 55.39 115.374 55.176 L 106.434 38.546 C 106.318 38.332 106.055 38.217 105.824 38.299 L 104.096 38.842 C 103.865 38.908 103.602 38.793 103.486 38.595 L 103.223 38.101 C 103.108 37.887 103.19 37.624 103.404 37.525 L 110.896 33.491 C 111.11 33.376 111.373 33.458 111.472 33.672 L 111.752 34.166 Z " fill="rgb(0,0,0)"/><path d=" M 121.055 28.732 C 121.104 28.601 121.335 28.42 121.549 28.337 L 139.019 21.982 C 139.25 21.899 139.513 21.866 139.628 21.899 C 139.744 21.932 139.908 22.146 139.991 22.36 L 141.489 26.098 C 141.571 26.312 141.472 26.559 141.242 26.641 L 139.842 27.152 C 139.612 27.234 139.332 27.135 139.2 26.938 L 137.965 25.11 C 137.834 24.912 137.537 24.814 137.323 24.88 L 135.495 25.423 C 135.265 25.489 134.903 25.604 134.689 25.686 L 132.91 26.328 L 139.464 44.391 C 139.546 44.605 139.809 44.77 140.04 44.721 L 141.835 44.441 C 142.065 44.408 142.329 44.556 142.411 44.77 L 142.609 45.297 C 142.691 45.527 142.576 45.758 142.345 45.84 L 134.359 48.738 C 134.129 48.821 133.882 48.705 133.816 48.475 L 133.618 47.948 C 133.536 47.734 133.635 47.454 133.832 47.339 L 135.397 46.4 C 135.594 46.285 135.693 46.005 135.611 45.774 L 129.041 27.712 L 127.263 28.37 C 127.032 28.453 126.686 28.601 126.456 28.683 L 124.71 29.44 C 124.496 29.539 124.332 29.803 124.365 30.033 L 124.595 32.223 C 124.628 32.454 124.463 32.717 124.233 32.799 L 122.833 33.31 C 122.603 33.392 122.372 33.277 122.29 33.046 L 121.088 29.342 C 121.022 29.161 121.006 28.864 121.055 28.732 Z " fill="rgb(0,0,0)"/><path d=" M 163.833 31.202 L 156.028 32.684 L 154.826 39.83 C 154.793 40.061 154.941 40.258 155.188 40.258 L 156.802 40.291 C 157.032 40.291 157.263 40.489 157.312 40.719 L 157.411 41.263 C 157.444 41.493 157.296 41.724 157.065 41.757 L 150.232 43.041 C 150.002 43.074 149.771 42.926 149.738 42.695 L 149.639 42.152 C 149.59 41.921 149.738 41.658 149.952 41.559 L 151.352 40.966 C 151.566 40.868 151.78 40.604 151.829 40.374 L 156.143 17.915 C 156.193 17.684 156.423 17.454 156.637 17.404 L 159.634 16.844 C 159.865 16.811 160.144 16.927 160.26 17.141 L 171.374 36.669 C 171.489 36.866 171.786 37.048 172.016 37.048 L 173.498 37.097 C 173.745 37.097 173.959 37.295 174.008 37.525 L 174.107 38.068 C 174.157 38.299 173.992 38.53 173.761 38.562 L 165.94 40.044 C 165.71 40.077 165.479 39.929 165.43 39.699 L 165.331 39.155 C 165.282 38.925 165.43 38.661 165.644 38.562 L 167.044 37.97 C 167.258 37.887 167.34 37.64 167.241 37.426 L 163.833 31.202 Z  M 158.169 20.928 L 156.374 30.857 L 162.96 29.622 L 158.169 20.928 Z " fill="rgb(0,0,0)"/><path d=" M 185.452 36.01 C 185.962 36.208 186.539 36.373 187.164 36.488 C 187.79 36.603 188.334 36.669 188.778 36.669 C 190.375 36.669 191.61 36.323 192.516 35.632 C 193.405 34.94 193.85 33.969 193.85 32.684 C 193.85 31.927 193.668 31.268 193.339 30.741 C 192.993 30.198 192.565 29.737 192.038 29.325 C 191.511 28.914 190.919 28.568 190.26 28.255 C 189.618 27.942 188.959 27.613 188.334 27.283 C 187.395 26.773 186.539 26.312 185.765 25.884 C 185.007 25.456 184.349 25.011 183.822 24.517 C 183.295 24.023 182.883 23.463 182.603 22.821 C 182.324 22.179 182.175 21.405 182.175 20.483 C 182.175 19.479 182.389 18.573 182.801 17.799 C 183.229 17.025 183.822 16.367 184.596 15.84 C 185.37 15.313 186.292 14.901 187.379 14.638 C 188.465 14.358 189.667 14.226 191.001 14.21 C 191.495 14.21 192.022 14.243 192.598 14.309 C 193.174 14.374 193.751 14.457 194.311 14.556 C 194.887 14.654 195.447 14.77 195.974 14.901 C 196.517 15.033 196.978 15.198 196.978 15.198 C 197.192 15.28 197.406 15.395 197.423 15.461 C 197.439 15.544 197.439 15.791 197.406 16.021 L 196.978 19.611 C 196.945 19.841 196.731 20.039 196.5 20.039 L 195.035 20.039 C 194.805 20.039 194.558 19.858 194.508 19.627 L 193.817 16.844 C 193.504 16.614 193.076 16.433 192.532 16.301 C 191.989 16.153 191.347 16.087 190.573 16.087 C 189.206 16.087 188.119 16.416 187.313 17.058 C 186.506 17.701 186.111 18.59 186.111 19.709 C 186.111 20.434 186.259 21.027 186.522 21.488 C 186.786 21.949 187.148 22.36 187.609 22.69 C 188.054 23.019 188.564 23.315 189.124 23.579 C 189.684 23.842 190.26 24.106 190.853 24.402 C 191.643 24.83 192.466 25.258 193.356 25.686 C 194.228 26.114 195.019 26.625 195.727 27.185 C 196.435 27.761 197.011 28.403 197.472 29.144 C 197.917 29.885 198.131 30.774 198.081 31.795 C 198.015 33.129 197.735 34.216 197.225 35.088 C 196.715 35.961 196.039 36.652 195.2 37.163 C 194.36 37.69 193.356 38.052 192.203 38.25 C 191.05 38.464 189.799 38.562 188.449 38.562 C 187.23 38.562 186.045 38.464 184.876 38.266 C 183.707 38.052 182.258 37.69 182.258 37.69 C 182.027 37.624 181.83 37.525 181.83 37.443 C 181.813 37.377 181.83 37.113 181.863 36.883 L 182.258 33.293 C 182.291 33.063 182.505 32.865 182.735 32.865 L 184.201 32.865 C 184.431 32.865 184.678 33.046 184.728 33.277 L 185.452 36.01 Z " fill="rgb(0,0,0)"/><path d=" M 246.474 45.56 C 243.905 46.943 240.875 47.059 237.368 45.923 C 235.672 45.379 234.256 44.638 233.087 43.716 C 231.918 42.794 231.045 41.707 230.436 40.456 C 229.827 39.205 229.514 37.789 229.498 36.208 C 229.481 34.627 229.777 32.915 230.37 31.054 C 230.996 29.111 231.803 27.481 232.807 26.18 C 233.795 24.88 234.931 23.892 236.199 23.2 C 237.467 22.525 238.866 22.146 240.381 22.097 C 241.896 22.031 243.493 22.278 245.156 22.805 C 246.819 23.348 248.235 24.073 249.421 24.995 C 250.59 25.917 251.496 27.02 252.105 28.288 C 252.714 29.556 253.043 30.988 253.06 32.585 C 253.093 34.166 252.796 35.911 252.187 37.789 C 250.936 41.592 249.042 44.194 246.474 45.56 Z  M 248.598 28.601 C 247.972 26.625 246.605 25.308 244.498 24.616 C 242.357 23.925 240.464 24.172 238.801 25.357 C 237.154 26.543 235.771 28.798 234.701 32.141 C 233.597 35.516 233.367 38.184 233.976 40.16 C 234.585 42.135 235.969 43.453 238.093 44.144 C 240.233 44.836 242.127 44.589 243.79 43.403 C 245.453 42.218 246.819 39.962 247.89 36.619 C 248.976 33.244 249.207 30.577 248.598 28.601 Z " fill="rgb(0,0,0)"/><path d=" M 260.321 52.492 C 260.683 52.92 261.095 53.332 261.589 53.744 C 262.083 54.155 262.528 54.468 262.923 54.682 C 264.322 55.44 265.574 55.736 266.693 55.555 C 267.813 55.39 268.669 54.732 269.278 53.612 C 269.641 52.937 269.805 52.295 269.772 51.653 C 269.739 51.027 269.575 50.401 269.311 49.792 C 269.031 49.183 268.702 48.59 268.274 48.014 C 267.846 47.421 267.451 46.845 267.056 46.235 C 266.479 45.33 265.952 44.507 265.491 43.766 C 265.03 43.025 264.685 42.317 264.454 41.625 C 264.223 40.933 264.141 40.258 264.207 39.55 C 264.273 38.859 264.52 38.101 264.948 37.295 C 265.425 36.405 266.051 35.714 266.792 35.253 C 267.533 34.775 268.373 34.479 269.311 34.397 C 270.25 34.298 271.254 34.397 272.341 34.677 C 273.428 34.956 274.547 35.418 275.716 36.043 C 276.145 36.274 276.606 36.554 277.067 36.899 C 277.544 37.229 278.005 37.574 278.45 37.937 C 278.911 38.299 279.339 38.678 279.751 39.04 C 280.162 39.419 280.491 39.781 280.491 39.781 C 280.656 39.962 280.771 40.16 280.738 40.225 C 280.722 40.291 280.59 40.522 280.459 40.703 L 278.367 43.65 C 278.236 43.848 277.939 43.914 277.742 43.798 L 276.457 43.09 C 276.243 42.975 276.128 42.695 276.194 42.465 L 276.935 39.699 C 276.77 39.353 276.474 38.991 276.079 38.595 C 275.667 38.217 275.14 37.838 274.465 37.476 C 273.263 36.834 272.16 36.587 271.139 36.768 C 270.118 36.949 269.344 37.525 268.817 38.513 C 268.472 39.139 268.307 39.731 268.323 40.275 C 268.34 40.818 268.455 41.345 268.686 41.856 C 268.916 42.366 269.229 42.86 269.591 43.37 C 269.97 43.864 270.332 44.375 270.711 44.918 C 271.188 45.659 271.715 46.449 272.275 47.24 C 272.835 48.047 273.296 48.87 273.642 49.71 C 273.988 50.549 274.185 51.406 274.218 52.262 C 274.251 53.134 274.004 54.007 273.477 54.896 C 272.786 56.032 272.012 56.856 271.139 57.366 C 270.266 57.877 269.344 58.156 268.356 58.206 C 267.368 58.255 266.315 58.091 265.211 57.728 C 264.108 57.35 262.956 56.856 261.77 56.214 C 260.7 55.637 259.712 54.979 258.79 54.238 C 257.868 53.497 256.765 52.476 256.765 52.476 C 256.583 52.311 256.468 52.13 256.501 52.048 C 256.534 51.982 256.666 51.768 256.797 51.57 L 258.872 48.606 C 259.004 48.425 259.284 48.359 259.498 48.458 L 260.782 49.15 C 260.996 49.265 261.111 49.545 261.046 49.776 L 260.321 52.492 Z " fill="rgb(0,0,0)"/><path d=" M 284.838 67.97 C 284.69 68.151 284.723 68.431 284.904 68.579 L 287.802 70.851 C 287.983 71 288.296 71.23 288.494 71.362 L 290.042 72.432 C 290.239 72.564 290.552 72.547 290.733 72.399 L 292.627 70.868 C 292.808 70.72 293.121 70.72 293.302 70.868 L 294.487 71.79 C 294.668 71.938 294.701 72.202 294.553 72.383 L 292.05 75.363 C 291.902 75.544 291.705 75.758 291.622 75.824 C 291.54 75.906 291.309 75.841 291.128 75.692 L 278.565 65.846 C 278.384 65.698 278.351 65.434 278.499 65.237 L 278.845 64.809 C 278.993 64.627 279.29 64.562 279.487 64.66 L 281.101 65.484 C 281.315 65.599 281.595 65.533 281.743 65.335 L 293.401 50.484 C 293.549 50.302 293.532 50.006 293.384 49.825 L 292.199 48.458 C 292.05 48.277 292.034 47.981 292.182 47.8 L 292.528 47.372 C 292.676 47.19 292.939 47.141 293.137 47.289 L 299.806 52.509 C 299.987 52.657 300.02 52.92 299.888 53.118 L 299.542 53.563 C 299.394 53.744 299.114 53.81 298.9 53.711 L 297.286 52.888 C 297.072 52.772 296.776 52.838 296.644 53.036 L 284.838 67.97 Z " fill="rgb(0,0,0)"/><path d=" M 312.731 94.414 C 309.817 94.282 307.149 92.85 304.712 90.083 C 303.543 88.75 302.687 87.399 302.16 86.016 C 301.633 84.633 301.419 83.25 301.535 81.85 C 301.65 80.451 302.111 79.084 302.885 77.718 C 303.675 76.351 304.795 75.017 306.26 73.733 C 307.791 72.383 309.323 71.395 310.838 70.769 C 312.352 70.143 313.834 69.864 315.267 69.929 C 316.699 69.995 318.082 70.39 319.433 71.115 C 320.766 71.839 322.018 72.844 323.17 74.161 C 324.323 75.478 325.179 76.828 325.722 78.212 C 326.266 79.611 326.463 81.011 326.348 82.41 C 326.233 83.826 325.772 85.209 324.982 86.593 C 324.191 87.976 323.055 89.309 321.573 90.627 C 318.593 93.278 315.646 94.545 312.731 94.414 Z  M 323.187 80.895 C 323.664 78.887 323.154 77.043 321.688 75.38 C 320.207 73.7 318.445 72.943 316.419 73.124 C 314.394 73.305 312.056 74.556 309.438 76.861 C 306.771 79.216 305.206 81.389 304.729 83.398 C 304.251 85.407 304.745 87.251 306.244 88.931 C 307.726 90.61 309.487 91.368 311.513 91.186 C 313.538 91.005 315.876 89.77 318.494 87.449 C 321.162 85.094 322.726 82.921 323.187 80.895 Z " fill="rgb(0,0,0)"/><path d=" M 332.852 109.233 C 333.033 109.085 333.083 108.788 332.967 108.591 L 330.415 104.244 L 322.001 109.315 L 324.751 113.942 C 324.866 114.14 325.08 114.469 325.212 114.666 L 326.266 116.214 C 326.398 116.412 326.694 116.511 326.908 116.445 L 329.213 115.687 C 329.427 115.621 329.724 115.72 329.839 115.918 L 330.629 117.235 C 330.744 117.433 330.679 117.696 330.465 117.811 L 327.056 119.688 C 326.842 119.804 326.595 119.919 326.496 119.968 C 326.398 120.001 326.2 119.87 326.085 119.672 L 317.243 104.787 C 317.127 104.589 317.193 104.326 317.391 104.194 L 317.868 103.914 C 318.066 103.799 318.362 103.832 318.527 104.013 L 319.729 105.38 C 319.877 105.561 320.174 105.594 320.388 105.479 L 336.623 95.83 C 336.82 95.715 336.919 95.435 336.853 95.204 L 336.244 93.492 C 336.162 93.261 336.26 92.998 336.475 92.866 L 336.952 92.586 C 337.15 92.471 337.413 92.537 337.545 92.734 L 345.975 106.928 C 346.09 107.125 346.189 107.389 346.173 107.52 C 346.156 107.636 345.992 107.85 345.794 107.981 L 342.402 110.155 C 342.205 110.287 341.941 110.221 341.826 110.023 L 341.052 108.739 C 340.937 108.541 340.97 108.245 341.151 108.08 L 342.995 106.351 C 343.16 106.187 343.225 105.89 343.11 105.676 L 342.237 103.98 C 342.139 103.766 341.941 103.437 341.826 103.239 L 339.34 99.041 L 331.897 103.486 L 334.466 107.817 C 334.581 108.014 334.861 108.113 335.091 108.031 L 336.787 107.389 C 337.001 107.306 337.281 107.405 337.413 107.619 L 338.055 108.706 C 338.17 108.92 338.105 109.167 337.907 109.299 L 332.424 112.559 C 332.226 112.674 331.963 112.608 331.831 112.411 L 331.189 111.324 C 331.074 111.126 331.123 110.83 331.304 110.682 L 332.852 109.233 Z " fill="rgb(0,0,0)"/><path d=" M 54.633 99.172 C 54.419 99.074 54.139 99.172 54.007 99.37 L 51.241 103.585 L 59.507 108.903 L 62.454 104.392 C 62.586 104.194 62.783 103.865 62.899 103.651 L 63.821 102.021 C 63.936 101.807 63.903 101.51 63.738 101.346 L 62.042 99.617 C 61.878 99.452 61.845 99.156 61.977 98.958 L 62.816 97.674 C 62.948 97.476 63.211 97.427 63.409 97.559 L 66.603 99.798 C 66.801 99.93 67.015 100.111 67.097 100.177 C 67.18 100.259 67.147 100.473 67.015 100.671 L 57.564 115.177 C 57.432 115.374 57.169 115.424 56.971 115.292 L 56.51 114.996 C 56.312 114.864 56.23 114.584 56.312 114.37 L 57.004 112.691 C 57.086 112.477 57.004 112.197 56.806 112.065 L 40.983 101.757 C 40.785 101.626 40.489 101.659 40.324 101.84 L 39.056 103.141 C 38.892 103.305 38.595 103.338 38.398 103.206 L 37.937 102.91 C 37.739 102.778 37.69 102.515 37.805 102.317 L 46.828 88.486 C 46.96 88.289 47.157 88.091 47.273 88.042 C 47.388 87.992 47.651 88.058 47.849 88.19 L 51.307 90.281 C 51.504 90.396 51.57 90.66 51.439 90.857 L 50.615 92.109 C 50.484 92.306 50.204 92.405 49.973 92.323 L 47.602 91.45 C 47.388 91.368 47.092 91.45 46.943 91.648 L 45.807 93.179 C 45.659 93.376 45.445 93.689 45.313 93.887 L 42.629 97.97 L 49.907 102.696 L 52.657 98.481 C 52.789 98.283 52.756 97.987 52.575 97.839 L 51.257 96.587 C 51.093 96.423 51.06 96.126 51.175 95.929 L 51.867 94.875 C 51.998 94.677 52.262 94.611 52.459 94.743 L 57.811 98.234 C 58.008 98.365 58.074 98.629 57.942 98.827 L 57.251 99.897 C 57.119 100.094 56.839 100.177 56.625 100.078 L 54.633 99.172 Z " fill="rgb(0,0,0)"/><path d=" M 355.476 127.79 C 355.558 128.004 355.509 128.349 355.361 128.547 L 343.308 145.243 L 357.336 140.353 C 357.55 140.27 357.715 140.023 357.682 139.793 L 357.419 137.998 C 357.386 137.768 357.534 137.504 357.765 137.438 L 358.291 137.257 C 358.522 137.175 358.769 137.307 358.835 137.521 L 361.222 144.403 C 361.305 144.634 361.173 144.881 360.959 144.947 L 360.432 145.128 C 360.218 145.21 359.938 145.111 359.806 144.897 L 358.884 143.284 C 358.769 143.086 358.489 142.971 358.259 143.053 L 338.401 149.919 C 338.17 150.002 337.94 149.87 337.858 149.656 L 337.183 147.696 C 337.1 147.466 337.15 147.137 337.298 146.939 L 351.277 127.822 L 334.96 133.47 C 334.729 133.552 334.581 133.799 334.614 134.03 L 334.877 135.825 C 334.91 136.055 334.762 136.319 334.532 136.385 L 334.005 136.566 C 333.774 136.648 333.527 136.533 333.461 136.302 L 331.074 129.42 C 330.991 129.206 331.107 128.942 331.337 128.876 L 331.864 128.695 C 332.078 128.613 332.358 128.712 332.473 128.926 L 333.395 130.523 C 333.511 130.72 333.791 130.836 334.021 130.753 L 351.87 124.579 C 352.1 124.496 352.249 124.249 352.216 124.019 L 351.952 122.191 C 351.919 121.961 352.067 121.697 352.298 121.631 L 352.825 121.45 C 353.055 121.384 353.286 121.5 353.368 121.714 L 355.476 127.79 Z " fill="rgb(0,0,0)"/><path d=" M 343.094 163.899 C 342.962 164.425 342.896 165.018 342.863 165.66 C 342.83 166.303 342.847 166.846 342.913 167.29 C 343.143 168.855 343.654 170.04 344.46 170.831 C 345.267 171.621 346.304 171.934 347.572 171.753 C 348.33 171.637 348.939 171.39 349.433 170.962 C 349.91 170.551 350.322 170.057 350.651 169.48 C 350.981 168.904 351.244 168.262 351.458 167.57 C 351.672 166.879 351.903 166.204 352.15 165.529 C 352.528 164.524 352.874 163.602 353.187 162.795 C 353.5 161.972 353.862 161.281 354.274 160.671 C 354.685 160.079 355.196 159.601 355.789 159.239 C 356.381 158.877 357.139 158.63 358.044 158.498 C 359.049 158.35 359.954 158.432 360.778 158.745 C 361.601 159.058 362.342 159.552 362.968 160.243 C 363.593 160.935 364.12 161.791 364.548 162.845 C 364.976 163.882 365.273 165.068 365.47 166.368 C 365.536 166.862 365.586 167.389 365.602 167.949 C 365.619 168.525 365.619 169.102 365.602 169.678 C 365.586 170.254 365.536 170.831 365.487 171.374 C 365.421 171.934 365.339 172.411 365.339 172.411 C 365.289 172.642 365.207 172.856 365.125 172.889 C 365.059 172.922 364.795 172.955 364.565 172.955 L 360.942 173.037 C 360.712 173.037 360.481 172.856 360.448 172.625 L 360.234 171.176 C 360.201 170.946 360.35 170.682 360.58 170.584 L 363.231 169.53 C 363.412 169.184 363.528 168.739 363.593 168.196 C 363.659 167.636 363.643 166.994 363.528 166.22 C 363.33 164.87 362.869 163.833 362.111 163.125 C 361.354 162.417 360.432 162.153 359.329 162.301 C 358.621 162.4 358.044 162.614 357.616 162.96 C 357.188 163.289 356.842 163.701 356.563 164.195 C 356.299 164.689 356.069 165.232 355.887 165.825 C 355.706 166.418 355.525 167.027 355.311 167.636 C 354.998 168.476 354.685 169.365 354.389 170.287 C 354.076 171.209 353.698 172.066 353.22 172.856 C 352.759 173.63 352.183 174.305 351.524 174.848 C 350.849 175.392 350.009 175.721 348.972 175.82 C 347.655 175.951 346.519 175.82 345.596 175.424 C 344.674 175.029 343.884 174.469 343.258 173.712 C 342.633 172.955 342.122 172.016 341.76 170.896 C 341.398 169.793 341.118 168.558 340.92 167.225 C 340.756 166.023 340.69 164.837 340.723 163.652 C 340.772 162.466 340.937 160.984 340.937 160.984 C 340.97 160.754 341.035 160.54 341.118 160.523 C 341.184 160.507 341.447 160.49 341.678 160.474 L 345.3 160.375 C 345.531 160.358 345.761 160.556 345.794 160.787 L 346.008 162.236 C 346.041 162.466 345.893 162.73 345.679 162.828 L 343.094 163.899 Z " fill="rgb(0,0,0)"/><path d=" M 365.767 195.71 C 365.536 195.71 365.306 195.529 365.256 195.298 L 364.894 193.52 C 364.845 193.29 364.614 193.109 364.384 193.109 L 345.498 193.191 C 345.251 193.191 345.037 193.388 344.987 193.619 L 344.658 195.397 C 344.609 195.628 344.394 195.825 344.147 195.825 L 343.588 195.825 C 343.357 195.825 343.16 195.628 343.16 195.397 L 343.127 186.901 C 343.127 186.671 343.324 186.473 343.555 186.473 L 344.115 186.473 C 344.345 186.473 344.576 186.654 344.625 186.885 L 344.971 188.663 C 345.02 188.893 345.251 189.074 345.481 189.074 L 364.367 188.992 C 364.598 188.992 364.828 188.795 364.878 188.564 L 365.207 186.786 C 365.256 186.555 365.487 186.358 365.717 186.358 L 366.277 186.358 C 366.524 186.358 366.705 186.555 366.705 186.786 L 366.738 195.282 C 366.738 195.513 366.541 195.71 366.31 195.71 L 365.767 195.71 Z " fill="rgb(0,0,0)"/><path d=" M 344.147 210.085 C 343.868 210.562 343.621 211.105 343.407 211.698 C 343.192 212.291 343.044 212.818 342.978 213.262 C 342.731 214.827 342.88 216.111 343.423 217.115 C 343.95 218.103 344.856 218.696 346.123 218.894 C 346.881 219.009 347.556 218.943 348.132 218.696 C 348.708 218.449 349.252 218.087 349.729 217.642 C 350.207 217.181 350.651 216.654 351.063 216.062 C 351.475 215.469 351.886 214.893 352.331 214.316 C 352.99 213.476 353.582 212.703 354.126 212.011 C 354.669 211.32 355.212 210.76 355.789 210.315 C 356.365 209.871 356.974 209.558 357.666 209.377 C 358.341 209.195 359.131 209.179 360.037 209.327 C 361.041 209.475 361.881 209.838 362.589 210.365 C 363.297 210.908 363.84 211.599 364.236 212.456 C 364.631 213.295 364.894 214.283 364.976 215.403 C 365.075 216.523 365.026 217.741 364.812 219.042 C 364.746 219.536 364.614 220.046 364.466 220.606 C 364.318 221.166 364.137 221.709 363.956 222.253 C 363.774 222.812 363.56 223.323 363.346 223.85 C 363.132 224.36 362.902 224.788 362.902 224.788 C 362.787 225.002 362.638 225.167 362.556 225.184 C 362.474 225.184 362.227 225.134 361.996 225.085 L 358.506 224.097 C 358.275 224.031 358.127 223.784 358.16 223.553 L 358.39 222.104 C 358.423 221.874 358.654 221.676 358.884 221.643 L 361.733 221.413 C 361.996 221.133 362.243 220.738 362.474 220.244 C 362.704 219.733 362.869 219.108 363.001 218.35 C 363.215 217 363.066 215.88 362.556 214.975 C 362.046 214.086 361.239 213.542 360.136 213.378 C 359.428 213.262 358.818 213.312 358.308 213.493 C 357.797 213.691 357.336 213.97 356.941 214.366 C 356.546 214.761 356.167 215.205 355.822 215.716 C 355.476 216.226 355.114 216.753 354.735 217.28 C 354.192 217.988 353.632 218.745 353.072 219.536 C 352.496 220.326 351.886 221.034 351.211 221.643 C 350.536 222.253 349.795 222.714 348.988 223.043 C 348.198 223.372 347.276 223.438 346.272 223.224 C 344.971 222.944 343.933 222.5 343.16 221.857 C 342.386 221.215 341.809 220.425 341.431 219.519 C 341.052 218.614 340.854 217.56 340.838 216.391 C 340.821 215.222 340.92 213.97 341.118 212.637 C 341.299 211.435 341.595 210.282 341.991 209.163 C 342.386 208.043 342.978 206.676 342.978 206.676 C 343.077 206.462 343.209 206.281 343.291 206.281 C 343.357 206.281 343.621 206.33 343.835 206.396 L 347.325 207.351 C 347.556 207.417 347.704 207.648 347.671 207.895 L 347.441 209.344 C 347.408 209.574 347.177 209.788 346.947 209.805 L 344.147 210.085 Z " fill="rgb(0,0,0)"/></g><g><path d=" M 89.342 331.683 C 89.556 331.782 89.836 331.7 89.968 331.502 L 99.683 317.539 L 81.587 327.797 C 81.373 327.912 81.06 327.879 80.879 327.731 L 80.155 327.139 C 79.973 326.99 79.875 326.677 79.924 326.447 L 85.16 306.902 L 74.178 318.873 C 74.013 319.037 73.98 319.334 74.128 319.515 L 75.231 321.013 C 75.38 321.211 75.363 321.507 75.198 321.672 L 74.82 322.067 C 74.655 322.232 74.392 322.248 74.21 322.084 L 68.859 317.095 C 68.678 316.93 68.678 316.666 68.843 316.485 L 69.221 316.074 C 69.386 315.909 69.682 315.86 69.88 315.991 L 71.428 316.963 C 71.625 317.078 71.922 317.045 72.086 316.88 L 84.518 303.082 C 84.683 302.901 84.683 302.621 84.518 302.44 L 83.349 301.041 C 83.201 300.859 83.201 300.563 83.349 300.382 L 83.695 299.954 C 83.843 299.773 84.123 299.74 84.304 299.888 L 89.902 304.432 C 90.083 304.581 90.182 304.894 90.133 305.124 L 85.671 322.331 L 101 313.983 C 101.214 313.867 101.527 313.9 101.708 314.048 L 107.076 318.412 C 107.257 318.56 107.29 318.823 107.142 319.005 L 106.796 319.433 C 106.648 319.614 106.351 319.68 106.154 319.564 L 104.54 318.692 C 104.326 318.576 104.046 318.642 103.898 318.823 L 93.294 333.889 C 93.162 334.087 93.179 334.383 93.343 334.565 L 94.595 335.898 C 94.76 336.063 94.776 336.359 94.628 336.557 L 94.298 337.001 C 94.15 337.199 93.887 337.232 93.706 337.1 L 86.807 332.045 C 86.626 331.914 86.576 331.634 86.708 331.453 L 87.037 331.008 C 87.169 330.81 87.465 330.744 87.679 330.843 L 89.342 331.683 Z " fill="rgb(0,0,0)"/><path d=" M 129.881 330.481 C 131.544 331.321 132.993 332.276 134.244 333.346 C 135.479 334.4 136.417 335.602 137.043 336.919 C 137.669 338.236 137.949 339.702 137.883 341.299 C 137.801 342.913 137.274 344.674 136.286 346.617 C 135.364 348.429 134.277 349.878 133.026 350.948 C 131.774 352.018 130.424 352.743 128.959 353.105 C 127.493 353.467 125.945 353.5 124.299 353.204 C 122.652 352.907 119.606 351.606 119.606 351.606 C 119.392 351.508 119.046 351.359 118.832 351.244 L 110.665 347.062 C 110.451 346.963 110.369 346.7 110.484 346.486 L 110.731 345.992 C 110.83 345.778 111.11 345.662 111.34 345.728 L 113.102 346.239 C 113.333 346.304 113.596 346.189 113.711 345.975 L 122.29 329.213 C 122.405 328.999 122.339 328.719 122.142 328.571 L 120.709 327.451 C 120.528 327.303 120.462 327.023 120.561 326.809 L 120.808 326.315 C 120.923 326.101 121.17 326.019 121.384 326.134 L 129.881 330.481 Z  M 133.717 340.41 C 133.948 339.109 133.915 337.924 133.635 336.87 C 133.338 335.816 132.779 334.861 131.972 334.038 C 131.149 333.198 129.123 331.996 129.123 331.996 C 128.926 331.864 128.58 331.683 128.366 331.584 L 126.225 330.481 L 117.12 348.28 L 119.162 349.334 C 120.149 349.828 121.104 350.24 122.01 350.553 C 122.932 350.849 123.805 350.997 124.661 350.981 C 126.011 350.865 127.328 350.339 128.629 349.4 C 129.93 348.445 131.116 346.914 132.186 344.806 C 132.976 343.176 133.487 341.711 133.717 340.41 Z " fill="rgb(0,0,0)"/><path d=" M 170.156 347.062 C 170.106 346.272 170.123 346.14 170.106 345.58 C 170.073 344.888 169.859 344.641 169.168 344.197 C 168.888 344.032 168.591 343.884 168.278 343.752 C 167.768 343.522 167.192 343.341 166.55 343.225 C 165.38 343.011 164.277 343.028 163.24 343.258 C 162.203 343.489 161.281 343.95 160.457 344.641 C 159.634 345.333 158.926 346.255 158.333 347.408 C 157.74 348.56 157.312 349.96 157.016 351.557 C 156.39 354.982 156.637 357.633 157.74 359.543 C 158.844 361.453 160.77 362.655 163.487 363.149 C 164.277 363.297 165.15 363.346 166.089 363.313 C 166.895 363.281 167.801 363.165 168.855 363.034 C 169.398 362.968 169.447 363.363 169.447 363.363 L 169.513 363.791 C 169.513 363.791 169.563 364.285 169.151 364.45 C 168.229 364.795 167.175 365.042 166.006 365.207 C 164.64 365.388 163.158 365.339 161.528 365.042 C 159.98 364.762 158.564 364.285 157.279 363.626 C 155.995 362.951 154.958 362.079 154.118 360.959 C 153.295 359.856 152.718 358.506 152.406 356.925 C 152.093 355.344 152.142 353.5 152.521 351.376 C 152.916 349.235 153.558 347.457 154.464 346.025 C 155.369 344.609 156.473 343.489 157.773 342.682 C 159.058 341.875 160.507 341.381 162.12 341.167 C 163.734 340.953 165.43 341.019 167.225 341.348 C 168.443 341.579 169.563 341.892 170.584 342.32 C 171.292 342.616 171.967 342.913 172.592 343.225 C 173.465 343.654 173.235 344.394 173.235 344.394 L 172.296 347.49 C 172.296 347.49 172.066 348.165 171.473 348.066 C 170.946 347.968 170.617 347.918 170.617 347.918 C 170.617 347.918 170.205 347.852 170.156 347.062 Z " fill="rgb(0,0,0)"/><path d=" M 206.034 347.852 C 205.804 347.095 205.787 346.963 205.639 346.42 C 205.441 345.761 205.161 345.564 204.387 345.3 C 204.091 345.201 203.762 345.119 203.416 345.07 C 202.873 344.971 202.263 344.938 201.621 344.971 C 200.419 345.037 199.365 345.317 198.41 345.778 C 197.472 346.255 196.682 346.914 196.039 347.786 C 195.397 348.659 194.936 349.729 194.64 350.981 C 194.343 352.249 194.245 353.698 194.343 355.328 C 194.541 358.785 195.414 361.321 196.945 362.918 C 198.476 364.499 200.617 365.223 203.383 365.059 C 204.19 365.009 205.046 364.861 205.952 364.598 C 206.726 364.384 207.582 364.054 208.57 363.676 C 209.08 363.478 209.228 363.857 209.228 363.857 L 209.377 364.252 C 209.377 364.252 209.541 364.713 209.179 364.976 C 208.372 365.536 207.401 366.014 206.297 366.458 C 205.013 366.952 203.564 367.265 201.918 367.364 C 200.337 367.463 198.855 367.331 197.455 366.985 C 196.056 366.64 194.821 366.03 193.751 365.158 C 192.68 364.285 191.808 363.099 191.133 361.65 C 190.458 360.185 190.062 358.374 189.931 356.233 C 189.799 354.06 190.013 352.183 190.556 350.586 C 191.1 348.988 191.907 347.638 192.977 346.551 C 194.047 345.465 195.331 344.641 196.846 344.049 C 198.361 343.472 200.024 343.11 201.852 343.011 C 203.087 342.929 204.256 342.978 205.342 343.16 C 206.1 343.275 206.824 343.407 207.516 343.555 C 208.471 343.769 208.422 344.543 208.422 344.543 L 208.24 347.77 C 208.24 347.77 208.191 348.478 207.582 348.527 C 207.038 348.56 206.726 348.577 206.726 348.577 C 206.726 348.577 206.281 348.61 206.034 347.852 Z " fill="rgb(0,0,0)"/><path d=" M 241.04 340.476 C 240.645 339.784 240.612 339.652 240.348 339.158 C 240.019 338.549 239.706 338.417 238.899 338.319 C 238.587 338.269 238.241 338.286 237.895 338.286 C 237.335 338.302 236.742 338.401 236.117 338.566 C 234.964 338.879 233.976 339.372 233.153 340.031 C 232.33 340.69 231.704 341.497 231.259 342.484 C 230.815 343.472 230.584 344.609 230.568 345.909 C 230.535 347.21 230.749 348.643 231.177 350.223 C 232.099 353.566 233.482 355.855 235.31 357.089 C 237.138 358.324 239.393 358.571 242.061 357.83 C 242.835 357.616 243.641 357.287 244.465 356.859 C 245.173 356.48 245.947 355.986 246.836 355.41 C 247.297 355.114 247.527 355.443 247.527 355.443 L 247.758 355.805 C 247.758 355.805 248.021 356.217 247.725 356.546 C 247.05 357.254 246.21 357.929 245.222 358.588 C 244.07 359.362 242.719 359.954 241.122 360.399 C 239.607 360.811 238.126 361.008 236.693 360.959 C 235.26 360.909 233.927 360.58 232.692 359.954 C 231.457 359.312 230.37 358.357 229.399 357.073 C 228.427 355.789 227.653 354.093 227.094 352.035 C 226.517 349.943 226.32 348.05 226.517 346.37 C 226.715 344.691 227.225 343.209 228.032 341.925 C 228.839 340.64 229.926 339.554 231.292 338.664 C 232.642 337.792 234.207 337.1 235.969 336.606 C 237.154 336.277 238.307 336.079 239.41 336.013 C 240.184 335.964 240.925 335.948 241.616 335.948 C 242.588 335.948 242.703 336.722 242.703 336.722 L 243.213 339.916 C 243.213 339.916 243.312 340.624 242.719 340.789 C 242.193 340.937 241.88 341.019 241.88 341.019 C 241.88 341.019 241.435 341.151 241.04 340.476 Z " fill="rgb(0,0,0)"/><path d=" M 270.168 334.762 L 259.778 330.053 C 259.564 329.954 259.201 329.938 258.971 330.004 L 257.407 330.481 C 257.176 330.547 256.896 330.448 256.781 330.234 L 256.501 329.757 C 256.386 329.543 256.452 329.296 256.666 329.164 L 264.141 324.916 C 264.339 324.8 264.602 324.866 264.734 325.064 L 265.014 325.558 C 265.129 325.755 265.08 326.052 264.915 326.216 L 263.993 327.073 C 263.812 327.237 263.845 327.451 264.059 327.55 L 271.468 331.074 L 272.374 322.808 C 272.407 322.578 272.242 322.429 272.012 322.512 L 270.711 322.923 C 270.48 322.989 270.2 322.89 270.085 322.676 L 269.805 322.199 C 269.69 321.985 269.756 321.721 269.97 321.606 L 275.898 318.231 C 276.095 318.115 276.359 318.181 276.474 318.395 L 276.754 318.873 C 276.869 319.07 276.82 319.367 276.639 319.531 L 275.288 320.717 C 275.107 320.865 274.943 321.194 274.926 321.425 L 273.774 331.946 L 285.283 337.298 C 285.497 337.397 285.859 337.413 286.09 337.347 L 287.687 336.853 C 287.917 336.787 288.197 336.886 288.313 337.1 L 288.593 337.578 C 288.708 337.775 288.642 338.039 288.428 338.154 L 280.92 342.435 C 280.706 342.55 280.459 342.484 280.343 342.27 L 280.063 341.793 C 279.948 341.579 279.998 341.282 280.179 341.134 L 281.183 340.229 C 281.364 340.064 281.331 339.85 281.117 339.751 L 272.473 335.602 L 271.419 345.284 C 271.386 345.514 271.551 345.646 271.781 345.58 L 273.016 345.201 C 273.247 345.135 273.527 345.234 273.642 345.448 L 273.922 345.926 C 274.037 346.123 273.971 346.387 273.757 346.502 L 267.797 349.894 C 267.599 350.009 267.335 349.943 267.22 349.729 L 266.94 349.252 C 266.825 349.038 266.874 348.758 267.056 348.593 L 268.406 347.408 C 268.587 347.259 268.752 346.93 268.784 346.7 L 270.168 334.762 Z " fill="rgb(0,0,0)"/><path d=" M 295.92 303.148 C 296.068 303.329 296.084 303.626 295.936 303.807 L 294.817 305.256 C 294.668 305.437 294.685 305.75 294.833 305.914 L 307.297 320.042 C 307.446 320.223 307.742 320.272 307.956 320.141 L 309.52 319.219 C 309.718 319.103 310.014 319.136 310.179 319.317 L 310.541 319.729 C 310.689 319.91 310.673 320.174 310.508 320.338 L 304.103 325.986 C 303.922 326.134 303.659 326.134 303.494 325.953 L 303.132 325.541 C 302.967 325.36 302.967 325.064 303.115 324.883 L 304.235 323.434 C 304.383 323.253 304.367 322.956 304.218 322.775 L 291.754 308.648 C 291.606 308.467 291.309 308.417 291.095 308.549 L 289.531 309.471 C 289.317 309.586 289.037 309.537 288.872 309.372 L 288.51 308.961 C 288.362 308.779 288.379 308.516 288.543 308.351 L 294.948 302.704 C 295.129 302.539 295.393 302.572 295.558 302.737 L 295.92 303.148 Z " fill="rgb(0,0,0)"/></g><g><path d=" M 83.514 81.85 C 83.744 81.883 84.073 81.785 84.222 81.62 L 87.778 77.882 C 87.943 77.701 87.926 77.438 87.762 77.273 L 87.366 76.894 C 87.185 76.73 86.889 76.713 86.708 76.845 L 85.358 77.783 C 85.16 77.915 84.814 77.998 84.584 77.965 L 73.947 76.236 C 73.716 76.203 73.601 75.989 73.7 75.775 C 73.7 75.775 75.001 72.976 74.951 71.51 C 74.902 70.045 74.243 68.727 72.992 67.525 C 72.103 66.669 71.197 66.175 70.292 66.044 C 69.386 65.912 68.497 66.011 67.624 66.323 C 66.752 66.636 65.928 67.13 65.121 67.772 C 64.315 68.415 63.179 69.534 63.179 69.534 C 63.014 69.699 62.734 69.979 62.569 70.143 L 56.312 76.713 C 56.148 76.894 56.164 77.158 56.329 77.322 L 56.724 77.701 C 56.889 77.866 57.185 77.882 57.383 77.751 L 58.881 76.664 C 59.079 76.532 59.375 76.549 59.54 76.713 L 73.223 89.738 C 73.387 89.902 73.42 90.199 73.305 90.396 L 72.3 91.944 C 72.169 92.141 72.202 92.438 72.383 92.603 L 72.794 92.981 C 72.959 93.146 73.239 93.129 73.404 92.965 L 79.265 86.807 C 79.43 86.642 79.414 86.362 79.249 86.197 L 78.837 85.802 C 78.673 85.638 78.376 85.621 78.179 85.753 L 76.697 86.807 C 76.499 86.938 76.203 86.922 76.038 86.757 L 69.732 80.764 L 70.67 79.776 C 70.835 79.611 71.164 79.496 71.395 79.545 L 83.514 81.85 Z  M 68.974 79.463 C 68.81 79.644 68.694 79.743 68.694 79.743 L 61.894 73.305 L 63.113 72.037 C 63.277 71.856 63.541 71.592 63.722 71.428 C 63.722 71.428 64.463 70.703 64.99 70.308 C 65.517 69.929 66.044 69.666 66.587 69.551 C 67.13 69.435 67.69 69.468 68.266 69.666 C 68.843 69.864 69.435 70.259 70.061 70.835 C 71.411 72.119 72.053 73.371 71.971 74.589 C 71.905 75.808 70.358 77.915 70.358 77.915 C 70.226 78.113 69.962 78.409 69.814 78.574 L 68.974 79.463 Z " fill="rgb(0,0,0)"/></g></g></g><g><g><path d=" M 470.883 94.249 L 470.883 92.24 L 508.392 92.24 L 508.392 94.249 C 497.541 95.599 497.311 96.933 497.311 108.689 L 497.311 141.044 C 497.311 158.613 503.238 168.476 518.469 168.476 C 534.934 168.476 540.533 156.95 540.862 140.155 L 540.862 108.591 C 540.862 97.065 540.631 95.599 529.781 94.266 L 529.781 92.257 L 557.212 92.257 L 557.212 94.266 C 546.345 95.616 546.131 97.065 546.131 108.591 L 546.131 139.941 C 546.131 164.228 534.819 174.865 514.781 174.865 C 492.503 174.865 481.981 163.339 481.981 142.625 L 481.981 108.706 C 481.965 97.164 481.734 95.599 470.883 94.249 Z " fill="rgb(0,0,0)"/><path d=" M 619.683 94.249 L 619.683 92.24 L 647.115 92.24 L 647.115 94.249 C 636.247 95.599 636.033 97.048 636.033 108.574 L 636.033 173.399 L 626.631 173.399 L 578.947 111.719 L 578.947 157.065 C 578.947 168.591 579.177 170.057 590.028 171.39 L 590.028 173.399 L 562.597 173.399 L 562.597 171.39 C 573.464 170.04 573.678 168.591 573.678 157.065 L 573.678 104.886 L 571.768 102.416 C 567.849 97.262 565.725 95.138 562.58 93.903 L 562.58 92.224 L 583.409 92.224 L 630.764 153.13 L 630.764 108.574 C 630.764 97.048 630.534 95.599 619.683 94.249 Z " fill="rgb(0,0,0)"/><path d=" M 680.359 157.065 C 680.359 168.591 680.589 170.057 691.44 171.39 L 691.44 173.399 L 653.931 173.399 L 653.931 171.39 C 664.799 170.04 665.013 168.591 665.013 157.065 L 665.013 108.591 C 665.013 97.065 664.782 95.599 653.931 94.266 L 653.931 92.257 L 691.44 92.257 L 691.44 94.266 C 680.573 95.616 680.359 97.065 680.359 108.591 L 680.359 157.065 Z " fill="rgb(0,0,0)"/><path d=" M 708.696 105.215 C 705.567 97.048 704.217 95.138 697.269 94.249 L 697.269 92.24 L 731.863 92.24 L 731.863 94.249 C 724.816 95.138 722.675 97.164 724.7 102.762 L 744.41 156.604 L 758.06 117.087 C 765.338 96.044 762.209 95.138 753.581 94.249 L 753.581 92.24 L 779.449 92.24 L 779.449 94.249 C 771.957 95.138 770.837 96.604 765.008 113.283 L 743.85 173.399 L 734.777 173.399 L 708.696 105.215 Z " fill="rgb(0,0,0)"/><path d=" M 826.804 173.399 L 785.277 173.399 L 785.277 171.39 C 796.128 170.04 796.359 168.591 796.359 157.065 L 796.359 108.591 C 796.359 97.065 796.128 95.599 785.277 94.266 L 785.277 92.257 L 825.684 92.257 C 833.406 92.257 843.368 92.257 852.111 91.927 L 854.795 118.684 L 852.556 118.684 C 846.958 99.765 839.35 96.291 817.632 96.291 L 811.705 96.291 L 811.705 129.09 L 824.811 129.09 C 831.2 129.09 835.218 125.962 836.337 116.544 L 838.346 116.544 L 838.346 146.544 L 836.337 146.544 C 835.218 137.142 831.183 133.997 824.811 133.997 L 811.705 133.997 L 811.705 164.672 C 811.705 168.591 812.495 169.48 817.418 169.48 L 821.666 169.48 C 842.051 169.48 849.213 164.887 855.256 146.758 L 857.38 146.758 L 852.902 173.514 C 843.944 173.399 834.757 173.399 826.804 173.399 Z " fill="rgb(0,0,0)"/><path d=" M 867.786 171.39 C 878.637 170.04 878.868 168.591 878.868 157.065 L 878.868 108.591 C 878.868 97.065 878.637 95.599 867.786 94.266 L 867.786 92.257 L 882.112 92.257 C 887.595 92.257 898.906 92.141 902.381 92.141 C 923.094 92.141 939.099 97.74 939.099 113.53 C 939.099 124.398 930.932 130.77 918.83 133.684 L 936.185 160.556 C 941.338 168.509 943.018 170.518 950.855 171.423 L 950.855 173.432 L 925.778 173.432 C 923.654 169.283 920.18 163.125 916.492 157.082 L 911.684 149.574 C 906.975 142.18 904.521 138.377 902.282 135.347 L 894.214 135.347 L 894.214 157.065 C 894.214 168.591 894.444 170.057 906.415 171.39 L 906.415 173.399 L 867.786 173.399 L 867.786 171.39 L 867.786 171.39 Z  M 901.722 96.159 L 894.214 96.159 L 894.214 131.313 L 901.722 131.313 C 914.598 131.313 922.107 126.835 922.107 113.744 C 922.107 100.654 914.598 96.159 901.722 96.159 Z " fill="rgb(0,0,0)"/><path d=" M 959.599 168.805 L 959.599 141.489 L 961.838 141.489 C 964.966 162.318 973.249 170.715 986.586 170.715 C 996.432 170.715 1004.616 165.907 1004.616 155.83 C 1004.616 148.223 998.573 144.305 989.615 140.04 L 979.654 135.331 C 967.782 129.732 960.29 122.339 960.29 111.489 C 960.29 98.612 972.491 89.655 988.166 89.655 C 996.235 89.655 1006.756 91.895 1012.239 95.253 L 1012.239 118.207 L 1010 118.207 C 1006.871 102.202 999.133 93.805 988.051 93.805 C 978.979 93.805 972.607 98.053 972.607 105.89 C 972.607 113.613 977.875 117.202 983.803 120.001 L 995.675 125.6 C 1008.106 131.428 1017.393 137.587 1017.393 149.788 C 1017.393 164.458 1003.397 174.865 986.602 174.865 C 975.62 174.865 966.103 172.28 959.599 168.805 Z " fill="rgb(0,0,0)"/><path d=" M 1054.441 157.065 C 1054.441 168.591 1054.671 170.057 1065.522 171.39 L 1065.522 173.399 L 1028.013 173.399 L 1028.013 171.39 C 1038.864 170.04 1039.095 168.591 1039.095 157.065 L 1039.095 108.591 C 1039.095 97.065 1038.864 95.599 1028.013 94.266 L 1028.013 92.257 L 1065.522 92.257 L 1065.522 94.266 C 1054.655 95.616 1054.441 97.065 1054.441 108.591 L 1054.441 157.065 Z " fill="rgb(0,0,0)"/><path d=" M 1094.633 171.39 C 1106.505 170.04 1106.949 168.262 1106.949 157.065 L 1106.949 95.945 L 1104.15 95.945 C 1088.475 95.945 1081.872 103.898 1076.274 121.813 L 1074.035 121.813 L 1077.394 91.927 C 1086.022 92.257 1096.428 92.257 1104.15 92.257 L 1124.979 92.257 C 1132.702 92.257 1143.108 92.257 1151.851 91.927 L 1155.21 121.813 L 1152.855 121.813 C 1147.372 103.898 1140.77 95.945 1125.094 95.945 L 1122.295 95.945 L 1122.295 157.065 C 1122.295 168.262 1122.74 170.057 1134.612 171.39 L 1134.612 173.399 L 1094.65 173.399 L 1094.65 171.39 L 1094.633 171.39 Z " fill="rgb(0,0,0)"/><path d=" M 1218.915 171.39 L 1218.915 173.399 L 1178.953 173.399 L 1178.953 171.39 C 1190.825 170.04 1191.27 168.262 1191.27 157.065 L 1191.27 141.505 L 1170.786 104.672 C 1166.423 96.604 1164.859 95.155 1159.705 94.266 L 1159.705 92.257 L 1194.299 92.257 L 1194.299 94.266 C 1187.252 95.155 1184.667 97.065 1187.367 102.334 L 1204.607 134.804 L 1218.372 110.402 C 1225.65 97.756 1223.74 95.072 1215.688 94.282 L 1215.688 92.273 L 1240.65 92.273 L 1240.65 94.282 C 1234.607 95.286 1231.923 97.196 1225.304 108.278 L 1206.616 140.748 L 1206.616 157.098 C 1206.599 168.245 1207.044 170.04 1218.915 171.39 Z " fill="rgb(0,0,0)"/><path d=" M 517.234 206.907 C 539.183 206.907 559.88 221.693 559.88 249.339 C 559.88 276.984 539.166 291.77 517.234 291.77 C 495.285 291.77 474.572 276.984 474.572 249.339 C 474.572 221.693 495.285 206.907 517.234 206.907 Z  M 517.234 211.04 C 501.789 211.04 491.712 225.71 491.712 249.322 C 491.712 272.934 501.789 287.605 517.234 287.605 C 532.679 287.605 542.756 272.934 542.756 249.322 C 542.756 225.71 532.679 211.04 517.234 211.04 Z " fill="rgb(0,0,0)"/><path d=" M 570.632 288.296 C 581.499 286.946 581.713 285.497 581.713 273.971 L 581.713 225.496 C 581.713 213.97 581.483 212.505 570.632 211.171 L 570.632 209.163 L 613.294 209.163 C 621.017 209.163 630.978 209.163 639.721 208.833 L 642.405 235.59 L 640.166 235.59 C 634.568 216.671 626.961 213.197 605.243 213.197 L 597.076 213.197 L 597.076 245.996 L 610.182 245.996 C 616.571 245.996 620.588 242.868 621.708 233.449 L 623.717 233.449 L 623.717 263.45 L 621.708 263.45 C 620.588 254.048 616.554 250.903 610.182 250.903 L 597.076 250.903 L 597.076 274.07 C 597.076 285.267 597.52 286.946 609.392 288.296 L 609.392 290.305 L 570.648 290.305 L 570.648 288.296 L 570.632 288.296 Z " fill="rgb(0,0,0)"/><path d=" M 722.576 206.907 C 744.525 206.907 765.222 221.693 765.222 249.339 C 765.222 276.984 744.509 291.77 722.576 291.77 C 700.628 291.77 679.914 276.984 679.914 249.339 C 679.914 221.693 700.628 206.907 722.576 206.907 Z  M 722.576 211.04 C 707.132 211.04 697.055 225.71 697.055 249.322 C 697.055 272.934 707.132 287.605 722.576 287.605 C 738.021 287.605 748.098 272.934 748.098 249.322 C 748.098 225.71 738.021 211.04 722.576 211.04 Z " fill="rgb(0,0,0)"/><path d=" M 780.124 285.711 L 780.124 258.395 L 782.363 258.395 C 785.491 279.224 793.774 287.621 807.111 287.621 C 816.957 287.621 825.141 282.813 825.141 272.736 C 825.141 265.129 819.098 261.21 810.14 256.946 L 800.179 252.237 C 788.307 246.638 780.815 239.245 780.815 228.394 C 780.815 215.518 793.016 206.561 808.691 206.561 C 816.76 206.561 827.281 208.8 832.764 212.159 L 832.764 235.112 L 830.525 235.112 C 827.396 219.108 819.658 210.71 808.576 210.71 C 799.504 210.71 793.131 214.958 793.131 222.796 C 793.131 230.518 798.4 234.108 804.328 236.907 L 816.2 242.505 C 828.631 248.334 837.918 254.492 837.918 266.693 C 837.918 281.364 823.922 291.77 807.127 291.77 C 796.128 291.77 786.611 289.185 780.124 285.711 Z " fill="rgb(0,0,0)"/><path d=" M 848.538 288.296 C 859.389 286.946 859.62 285.497 859.62 273.971 L 859.62 225.496 C 859.62 213.97 859.389 212.505 848.538 211.171 L 848.538 209.163 L 886.047 209.163 L 886.047 211.171 C 875.18 212.521 874.965 213.97 874.965 225.496 L 874.965 281.809 C 874.965 285.497 876.085 286.403 879.559 286.403 L 883.034 286.403 C 903.303 286.403 908.671 281.479 914.713 262.33 L 916.953 262.33 L 913.363 290.437 C 907.995 290.321 894.889 290.321 890.41 290.321 L 848.538 290.321 L 848.538 288.296 Z " fill="rgb(0,0,0)"/><path d=" M 967.881 206.907 C 989.83 206.907 1010.543 221.693 1010.543 249.339 C 1010.543 276.984 989.83 291.77 967.881 291.77 C 945.932 291.77 925.219 276.984 925.219 249.339 C 925.219 221.693 945.949 206.907 967.881 206.907 Z  M 967.881 211.04 C 952.436 211.04 942.359 225.71 942.359 249.322 C 942.359 272.934 952.436 287.605 967.881 287.605 C 983.326 287.605 993.403 272.934 993.403 249.322 C 993.403 225.71 983.342 211.04 967.881 211.04 Z " fill="rgb(0,0,0)"/></g></g></g></svg>